{"glyphs":{"0":{"ha":554,"x_min":-14,"x_max":897,"o":"m 296 629 l 319 629 q 422 603 389 623 l 453 572 q 488 535 488 547 l 490 535 q 495 543 490 543 l 498 543 l 500 541 l 548 553 l 561 551 l 569 551 l 585 559 l 585 551 l 597 551 l 600 553 l 603 553 l 624 543 l 758 538 l 758 532 l 736 532 l 728 527 l 666 530 q 610 538 666 538 q 582 530 592 538 l 527 530 l 519 535 l 498 535 q 492 527 492 535 q 500 501 500 517 q 548 396 548 443 l 550 341 l 550 330 q 506 202 550 246 q 422 81 457 109 q 338 31 386 54 q 277 11 338 25 l 262 8 q 214 24 229 8 q 117 63 143 37 q 34 181 45 141 l 39 186 l 39 189 q 7 257 21 189 l 5 315 l 5 323 q 128 561 5 456 q 183 600 140 561 q 296 629 246 629 m 606 582 l 613 572 l 608 566 q 600 580 604 566 l 603 582 l 606 582 m 125 438 l 125 417 l 134 275 l 134 252 q 207 113 180 115 q 286 87 230 87 l 301 87 q 377 121 377 98 q 414 184 414 151 q 432 281 432 210 l 430 283 l 427 283 l 430 309 l 430 354 l 425 362 l 425 378 q 388 462 425 397 q 364 514 388 471 l 351 514 l 353 511 l 353 506 l 307 498 l 298 506 l 273 506 l 264 511 l 222 511 l 222 517 l 293 519 l 296 522 l 296 524 l 319 519 q 335 527 322 527 l 346 519 l 356 519 q 270 564 322 564 l 252 564 q 131 456 175 564 l 125 438 m 513 566 q 524 559 524 562 l 522 556 l 519 556 l 511 564 l 513 566 m 534 566 l 540 561 l 537 559 l 534 559 l 530 564 l 532 566 l 534 566 m 739 559 l 752 553 l 752 548 l 745 548 l 736 556 l 739 559 m 708 553 l 710 551 l 710 548 l 703 543 l 684 543 l 684 548 l 700 548 l 708 553 m 448 548 q 443 538 448 538 l 440 538 l 432 543 l 427 543 l 427 541 l 435 532 l 451 532 l 453 545 l 453 548 l 448 548 m 797 551 l 802 545 l 821 545 l 886 543 l 886 538 l 873 538 l 847 541 l 842 541 l 842 538 l 897 532 l 897 527 l 870 527 l 867 530 l 865 530 l 860 524 l 847 532 l 823 530 l 815 530 l 815 535 l 826 535 l 826 541 l 797 538 l 763 541 l 755 541 l 755 545 l 789 545 l 797 551 m 724 548 l 734 548 l 734 543 l 724 543 l 724 548 m 409 541 l 409 535 l 419 535 l 419 541 l 409 541 m 558 538 l 558 535 l 579 535 l 579 538 l 558 538 m 367 535 l 367 530 l 377 530 l 377 535 l 367 535 m 708 535 l 708 532 l 726 532 l 726 535 l 708 535 m 393 530 l 393 524 l 404 524 l 404 530 l 393 530 m 406 530 l 406 524 l 425 524 l 425 530 l 406 530 m 451 530 l 451 524 l 461 524 l 461 530 l 451 530 m 136 501 l 138 501 q 146 514 143 501 l 155 514 l 155 519 l 152 519 q 136 501 136 519 m 110 514 l 110 509 l 120 509 l 125 514 l 125 517 l 123 517 l 110 514 m 191 514 l 196 509 l 210 509 l 207 511 l 207 514 l 210 514 l 214 509 l 210 503 l 168 503 l 162 509 q 191 514 183 509 m 44 506 l 47 503 l 47 501 l 44 498 l 39 498 l 39 501 l 44 506 m 0 498 l 2 496 l 2 493 l 0 490 l -11 490 l -11 496 l 0 498 m 307 496 l 309 493 l 309 485 l 304 485 l 301 493 l 304 496 l 307 496 m 317 485 l 319 482 l 319 477 l 314 472 l 307 472 l 301 477 l 304 480 l 307 477 l 312 477 q 317 485 312 485 m 579 404 l 585 404 l 590 399 l 587 396 l 579 399 l 579 404 m 509 383 l 509 380 l 511 380 l 524 383 l 524 388 l 513 388 l 509 383 m 60 372 l 55 362 l 55 357 l 68 357 l 68 359 l 65 372 l 60 372 m 249 367 l 252 367 l 256 362 l 254 359 l 252 359 l 249 362 l 249 367 m 492 349 l 492 336 l 495 336 l 503 344 l 503 346 l 492 349 m 81 326 l 81 323 l 83 315 l 86 315 q 94 323 86 323 l 94 326 l 81 326 m 231 288 l 243 288 l 243 283 l 231 283 l 231 288 m 233 247 l 235 244 l 235 241 l 231 233 l 233 231 l 231 228 l 228 228 l 222 233 q 233 247 228 245 m 634 205 l 637 205 l 637 197 l 640 199 l 642 199 l 645 197 l 645 194 l 642 191 l 634 191 l 629 197 l 629 199 l 634 205 m 391 87 l 391 81 l 401 81 l 401 90 l 398 90 l 391 87 m 170 68 l 170 60 l 175 60 l 175 68 l 170 68 m 267 58 l 267 52 l 275 52 l 275 58 l 267 58 m 39 37 l 47 34 l 55 37 l 55 34 l 57 16 l 55 13 l 47 13 l 50 26 l 50 29 q 36 34 36 29 l 39 37 m 537 16 l 548 16 l 548 11 l 537 11 l 537 16 m 590 -20 l 592 -23 l 592 -28 l 590 -28 l 585 -23 l 587 -20 l 590 -20 m 642 -26 l 645 -28 l 645 -31 l 642 -34 l 640 -34 l 637 -31 l 637 -28 l 640 -26 l 642 -26 m 689 -26 l 692 -28 l 692 -31 l 689 -34 l 687 -34 l 684 -31 l 684 -28 l 687 -26 l 689 -26 m 474 -31 l 477 -34 l 477 -37 l 474 -39 l 458 -39 l 458 -34 l 474 -31 m 231 -37 l 231 -39 l 225 -44 l 222 -41 l 222 -39 l 225 -37 l 231 -37 m 703 -39 l 705 -41 l 705 -47 l 703 -47 l 697 -41 l 700 -39 l 703 -39 m 456 -41 l 458 -44 l 458 -47 l 453 -52 l 451 -50 l 451 -47 l 456 -41 m 629 -52 l 631 -55 l 631 -57 l 629 -60 l 627 -60 l 624 -57 l 624 -55 l 627 -52 l 629 -52 m -14 -55 l 7 -55 l 16 -62 l 13 -65 l 7 -65 l 0 -60 l -14 -60 l -14 -55 m 534 -60 l 537 -62 l 537 -65 l 534 -68 l 532 -68 l 530 -65 l 530 -62 l 532 -60 l 534 -60 m 485 -65 l 488 -68 l 488 -71 l 485 -73 l 479 -73 l 479 -71 l 485 -65 m 728 -65 l 734 -73 l 731 -76 l 726 -76 l 721 -71 l 728 -65 m 446 -68 l 448 -71 l 448 -73 l 432 -89 l 430 -86 l 430 -83 l 446 -68 m 524 -68 l 527 -71 l 527 -73 l 524 -76 l 522 -76 l 519 -73 l 519 -71 l 522 -68 l 524 -68 m 618 -68 l 621 -68 l 621 -73 l 616 -78 l 613 -78 l 613 -73 l 618 -68 m 94 -73 l 99 -83 l 96 -86 l 94 -86 l 89 -78 l 94 -73 m 464 -83 l 469 -83 l 474 -89 l 474 -92 l 471 -92 l 464 -89 l 464 -83 m 540 -83 q 550 -89 540 -89 l 550 -94 l 543 -94 l 545 -96 l 545 -102 l 540 -102 l 530 -94 l 527 -94 l 519 -99 l 516 -96 l 516 -94 q 540 -83 516 -90 m 587 -92 l 592 -104 l 587 -104 l 579 -96 l 587 -92 m 416 -96 l 419 -99 l 419 -102 l 416 -104 l 414 -104 l 412 -102 l 412 -99 l 414 -96 l 416 -96 m 430 -96 l 435 -102 l 432 -104 l 430 -104 l 427 -102 l 425 -104 l 425 -102 l 430 -96 m 610 -96 l 613 -99 l 613 -102 l 610 -104 l 608 -104 l 606 -102 l 606 -99 l 608 -96 l 610 -96 m 679 -96 q 710 -120 679 -105 q 718 -99 710 -101 l 721 -99 q 726 -107 726 -99 l 724 -115 l 726 -115 q 739 -120 739 -115 l 742 -117 l 745 -117 l 776 -120 l 776 -123 l 773 -125 l 773 -128 l 752 -123 l 749 -125 l 749 -131 q 758 -136 758 -131 l 749 -138 l 742 -136 l 736 -141 l 721 -134 q 713 -146 719 -146 l 703 -146 q 697 -134 697 -146 l 642 -149 l 637 -141 l 640 -138 l 640 -136 l 642 -138 l 663 -138 l 663 -136 q 655 -131 655 -136 l 658 -128 l 661 -128 l 661 -131 q 692 -123 692 -128 q 671 -115 692 -115 l 671 -113 l 673 -110 l 673 -107 l 658 -107 l 658 -102 l 671 -102 l 679 -96 m 530 -104 l 534 -110 l 532 -113 l 530 -113 l 524 -107 l 527 -104 l 530 -104 m 797 -115 l 810 -128 l 808 -131 l 805 -131 q 791 -117 798 -131 l 794 -115 l 797 -115 m 513 -128 l 516 -131 l 516 -134 l 513 -136 l 511 -136 l 509 -134 l 509 -131 l 511 -128 l 513 -128 m 398 -136 l 401 -138 l 401 -146 l 398 -146 l 393 -141 l 398 -136 m 474 -141 l 479 -141 l 479 -146 l 474 -152 l 471 -149 l 474 -141 m 492 -141 l 495 -144 l 495 -146 l 492 -149 l 490 -149 l 488 -146 l 488 -144 l 490 -141 l 492 -141 m 530 -144 l 532 -146 l 532 -152 l 530 -152 l 524 -146 l 527 -144 l 530 -144 m 537 -144 l 550 -146 l 550 -152 l 540 -152 l 534 -146 l 537 -144 m 456 -149 l 458 -152 l 458 -155 l 456 -157 l 453 -157 l 451 -155 l 451 -152 l 453 -149 l 456 -149 m 697 -149 l 703 -157 l 700 -159 l 697 -159 l 692 -155 l 697 -149 m 590 -155 l 595 -159 l 592 -162 l 590 -162 l 585 -157 l 587 -155 l 590 -155 m 673 -157 l 676 -159 l 669 -170 l 663 -170 l 663 -168 l 673 -157 m 766 -157 l 781 -173 l 779 -175 l 768 -175 q 760 -159 763 -175 l 763 -157 l 766 -157 m 364 -159 l 370 -159 l 370 -162 l 364 -168 l 359 -168 l 359 -165 l 364 -159 m 689 -162 l 689 -165 l 684 -170 l 682 -168 l 682 -165 l 684 -162 l 689 -162 m 291 -165 l 293 -168 l 293 -170 l 291 -173 l 288 -173 l 286 -170 l 286 -168 l 288 -165 l 291 -165 m 666 -173 l 669 -173 l 673 -178 l 671 -180 l 669 -180 l 666 -178 l 666 -173 m 414 -186 l 427 -191 l 427 -196 l 419 -196 l 412 -189 l 414 -186 m 721 -191 q 728 -196 721 -196 l 731 -199 l 731 -201 l 728 -204 l 726 -204 q 715 -196 715 -200 l 721 -191 m 453 -194 l 461 -201 l 453 -210 l 451 -210 l 448 -196 l 451 -194 l 453 -194 m 537 -194 l 540 -196 l 540 -199 l 537 -201 l 534 -201 l 532 -199 l 532 -196 l 534 -194 l 537 -194 m 634 -196 l 645 -199 l 655 -196 l 663 -201 l 676 -199 q 655 -212 676 -203 l 652 -204 l 640 -204 l 634 -199 l 634 -196 m 692 -196 q 703 -204 692 -204 l 705 -207 l 705 -210 l 703 -212 l 700 -212 l 687 -201 l 692 -196 m 550 -204 l 555 -210 l 553 -212 l 550 -212 l 545 -207 l 548 -204 l 550 -204 m 616 -207 l 629 -207 l 629 -212 l 616 -212 l 616 -207 m 671 -210 l 673 -212 l 673 -214 l 661 -231 l 655 -225 l 671 -210 m 645 -214 l 650 -220 l 645 -225 l 640 -217 l 642 -214 l 645 -214 m 566 -228 l 569 -231 l 569 -233 l 566 -241 l 561 -241 l 561 -233 l 566 -228 m 634 -231 l 637 -233 l 637 -235 l 631 -241 l 629 -241 l 624 -235 l 634 -231 m 361 -238 l 367 -243 l 364 -246 l 356 -246 l 356 -243 l 361 -238 m 642 -241 l 648 -241 l 648 -246 l 642 -252 l 640 -252 l 640 -249 l 642 -241 m 519 -256 l 522 -256 l 527 -262 l 527 -264 l 524 -264 l 519 -259 l 519 -256 m 692 -296 l 694 -298 l 694 -301 l 692 -304 l 689 -304 l 687 -301 l 687 -298 l 689 -296 l 692 -296 m 532 -301 l 537 -301 l 537 -304 l 532 -309 l 527 -309 l 527 -307 l 532 -301 m 516 -304 l 522 -309 l 519 -312 l 516 -312 l 511 -307 l 513 -304 l 516 -304 z "},"1":{"ha":275,"x_min":0,"x_max":713,"o":"m 188 795 l 191 793 l 191 789 l 185 783 l 182 787 l 182 789 l 188 795 m 182 650 l 184 650 q 193 631 191 650 l 191 628 l 187 628 l 182 650 m 241 625 l 252 614 l 246 488 q 252 452 252 475 l 252 449 q 235 440 252 443 l 235 437 q 252 427 248 437 q 241 292 252 326 l 241 253 l 246 222 l 246 189 l 243 121 l 246 113 l 241 66 l 241 46 q 277 7 253 21 q 299 -7 298 -1 l 299 -12 l 296 -12 q 271 -4 283 -12 l 184 -1 l 174 -1 l 168 -7 l 109 -1 l 92 -7 l 87 -7 l 81 -1 l 81 1 q 115 91 115 20 l 123 169 l 123 172 l 117 194 l 117 216 l 123 281 q 115 362 120 362 l 117 395 l 117 471 l 95 474 l 92 471 l 92 474 l 98 479 l 115 479 l 115 482 q 67 502 106 502 l 62 502 q 25 471 25 494 l 39 457 q 64 474 53 457 q 56 485 60 485 l 37 479 l 34 482 l 34 485 q 59 496 49 496 q 81 474 81 494 l 81 465 q 45 435 81 439 l 34 435 q 0 454 0 444 l 0 457 q 37 516 0 498 q 50 538 50 520 l 56 538 l 56 530 l 59 530 q 123 594 78 537 q 207 625 162 625 l 241 625 m 42 616 l 50 614 l 50 608 l 45 608 l 39 614 l 42 616 m 39 603 l 45 603 l 45 594 l 39 594 l 39 603 m 50 586 l 56 586 l 56 569 l 53 566 l 56 564 l 56 561 q 47 544 56 546 l 45 547 l 45 552 l 47 555 l 45 558 l 45 561 l 50 586 m 606 500 q 629 490 629 496 l 627 488 l 625 488 l 616 490 l 614 488 q 606 493 614 493 l 604 496 l 604 498 l 606 500 m 576 532 l 579 530 l 579 527 l 576 524 l 574 524 l 571 527 l 571 530 l 574 532 l 576 532 m 657 486 l 660 483 l 660 480 l 657 478 l 655 478 l 652 480 l 652 483 l 655 486 l 657 486 m 579 522 l 582 519 l 582 516 l 576 510 l 574 510 l 574 516 l 579 522 m 395 473 l 474 465 l 479 470 q 515 463 496 463 l 564 463 l 599 465 l 614 463 l 614 468 l 619 468 q 713 455 619 458 l 713 450 l 711 450 l 660 452 l 647 452 l 647 450 l 667 450 l 667 445 l 510 458 l 507 455 l 507 452 q 429 460 429 456 l 426 458 l 395 463 l 390 458 l 375 458 l 370 463 q 395 473 370 467 m 370 505 l 386 505 l 386 499 l 370 499 l 370 505 m 578 458 l 578 455 l 596 455 l 594 458 l 594 460 l 578 458 m 504 482 l 509 482 l 509 479 l 504 465 l 498 465 l 498 477 l 504 482 m 585 463 l 587 463 l 593 457 l 591 454 l 587 454 l 585 457 l 585 463 m 604 427 l 606 425 l 606 422 l 604 419 l 584 419 l 584 425 l 599 425 l 602 427 l 604 427 m 184 410 l 187 407 l 187 404 l 182 395 l 184 395 l 201 401 q 184 410 201 407 m 137 66 l 142 66 l 149 71 l 149 79 l 146 79 q 137 66 140 79 m 191 35 l 191 21 l 196 21 l 196 35 l 191 35 m 291 35 l 294 32 l 294 29 l 291 26 l 288 26 l 286 29 l 286 32 l 288 35 l 291 35 m 204 12 l 204 7 l 218 4 l 218 9 l 210 18 l 204 12 m 321 -12 l 325 -16 l 325 -18 l 319 -24 l 316 -21 l 316 -18 l 321 -12 m 249 -41 l 252 -43 l 252 -46 l 249 -49 l 246 -49 l 243 -46 l 243 -43 l 246 -41 l 249 -41 m 254 -68 l 258 -71 l 258 -74 l 254 -77 l 252 -77 l 249 -74 l 249 -71 l 252 -68 l 254 -68 m 216 -99 l 218 -99 l 224 -105 l 221 -108 l 218 -108 l 216 -105 l 216 -99 m 146 -102 l 149 -105 l 149 -108 l 146 -111 l 137 -111 l 137 -105 l 146 -102 m 191 -115 l 194 -117 l 194 -120 l 191 -123 l 189 -123 l 186 -120 l 186 -117 l 189 -115 l 191 -115 m 120 -145 l 123 -148 l 123 -151 l 118 -156 l 115 -153 l 115 -151 l 120 -145 z "},"2":{"ha":561,"x_min":-207,"x_max":564,"o":"m 59 690 l 64 690 q 78 652 64 665 l 78 644 l 64 625 l 67 585 l 59 582 q 64 552 64 571 l 64 533 l 62 533 q 56 544 56 533 q 45 552 45 544 l 51 557 l 54 549 l 56 549 l 56 552 q 51 566 56 566 l 56 631 l 54 633 l 54 636 l 59 690 m 81 682 l 83 680 l 83 677 l 81 674 l 78 674 l 75 677 l 75 680 l 78 682 l 81 682 m 92 677 l 94 677 l 94 671 l 89 666 l 86 669 l 86 671 l 92 677 m 498 642 l 504 633 l 501 631 l 498 631 l 493 639 l 496 642 l 498 642 m 271 617 q 431 590 328 617 q 496 528 478 570 q 528 427 528 512 l 528 411 q 393 270 528 363 l 376 273 q 338 259 359 273 l 333 259 l 336 273 l 336 275 l 333 275 q 319 243 326 275 l 322 235 l 235 194 q 176 151 208 163 q 113 102 162 134 l 113 99 l 149 99 l 154 94 l 205 96 l 412 91 q 517 115 517 91 q 534 151 528 115 q 504 191 534 191 l 490 191 q 458 164 458 186 q 498 137 479 137 l 509 137 l 512 140 l 515 140 l 517 137 l 517 134 q 490 126 504 126 l 485 126 q 439 164 439 134 l 439 167 q 496 216 439 208 l 512 216 q 564 156 548 216 q 417 -7 509 -7 l 349 -7 q 86 4 215 -7 l 81 4 l 73 9 l 64 4 l 18 4 l -1 1 l -1 4 q 56 126 -1 45 q 73 134 56 134 l 78 140 l 75 148 q 151 199 119 170 q 219 251 185 210 q 379 427 379 348 l 379 452 q 292 568 379 550 l 273 571 l 241 571 q 130 498 185 571 l 121 468 l 121 433 q 178 378 121 386 l 211 378 q 252 419 235 378 l 252 438 q 205 487 239 487 q 168 457 177 487 q 192 425 176 425 q 214 444 214 431 q 189 473 214 456 l 192 476 q 227 449 216 476 l 227 425 q 186 397 227 397 q 138 430 138 411 q 205 519 138 519 l 208 519 q 290 452 279 519 l 290 435 q 222 349 290 366 l 219 349 q 67 433 91 349 q 56 463 60 433 l 56 468 l 62 468 l 62 484 l 54 484 l 54 503 l 62 506 l 59 519 q 86 560 74 548 l 157 593 q 224 604 169 600 q 271 617 258 617 m 32 574 l 35 571 l 35 568 l 32 566 l 29 566 l 26 568 l 26 571 l 29 574 l 32 574 m 97 528 l 97 525 l 102 519 l 108 519 l 111 530 l 108 530 l 97 528 m 371 522 l 371 517 l 374 517 l 379 522 l 371 522 m 452 519 l 452 511 l 458 511 l 458 519 l 452 519 m 376 509 l 376 506 l 385 506 l 385 511 l 376 509 m 62 435 l 62 387 q 73 335 67 381 l 67 251 l 73 237 l 64 224 l 73 216 l 70 216 l 67 218 l 64 218 l 62 216 q 73 191 73 199 l 64 183 l 62 183 l 56 189 l 56 197 l 59 210 q 51 218 51 210 l 54 227 l 51 229 q 62 264 62 229 l 56 270 l 59 273 l 59 275 l 56 286 l 62 294 l 59 297 l 62 311 l 62 319 l 56 327 l 62 332 l 56 338 l 56 357 l 54 376 l 56 400 l 56 430 l 62 435 m 447 384 l 447 376 l 463 376 l 463 384 l 447 384 m -142 351 l -139 349 l -139 346 l -142 343 l -144 343 l -147 346 l -147 349 l -144 351 l -142 351 m 40 351 l 45 351 l 45 343 l 40 343 l 40 351 m 35 335 l 37 335 l 29 327 l 26 327 l 35 335 m 138 335 l 140 335 l 146 330 l 146 327 l 132 330 l 138 335 m 168 316 l 170 313 l 170 311 l 168 308 l 165 308 l 162 311 l 162 313 l 165 316 l 168 316 m 146 294 l 151 294 l 157 289 l 154 286 l 151 286 l 146 292 l 146 294 m 157 264 l 159 264 l 168 256 l 157 248 l 154 256 l 157 264 m 257 172 l 262 167 l 260 164 l 257 164 l 252 170 l 254 172 l 257 172 m 73 167 l 75 164 l 75 161 l 70 156 l 67 156 l 67 161 l 73 167 m -147 153 l -142 153 l -142 151 l -147 145 l -153 145 l -153 148 l -147 153 m 67 102 l 67 96 l 64 94 l 67 91 l 75 88 l 75 102 l 67 102 m -153 83 l -150 80 l -150 77 l -158 69 l -161 72 l -161 75 l -153 83 m 70 56 l 70 39 l 75 39 l 75 56 l 70 56 m -144 39 l -142 37 l -142 34 l -144 31 l -147 31 l -150 34 l -150 37 l -147 39 l -144 39 m 73 31 q 67 20 73 20 l 67 15 l 70 15 l 73 18 l 75 15 l 83 15 q 75 31 81 31 l 73 31 m 284 31 l 284 26 l 292 26 l 292 31 l 284 31 m -14 -9 l -12 -12 l -12 -15 l -14 -18 l -17 -18 l -20 -15 l -20 -12 l -17 -9 l -14 -9 m 70 -15 l 75 -15 l 78 -39 l 64 -45 l 64 -39 l 70 -31 l 70 -15 m 70 -75 l 73 -77 l 73 -83 l 70 -83 l 64 -77 l 67 -75 l 70 -75 m 105 -80 l 108 -80 l 113 -85 l 111 -88 l 108 -88 l 105 -85 l 105 -80 m 75 -85 l 78 -88 l 78 -96 l 73 -102 l 70 -102 l 67 -99 l 64 -99 q 75 -85 70 -86 m 73 -107 l 78 -107 q 89 -129 78 -119 l 81 -132 l 81 -134 l 89 -137 l 100 -134 l 113 -142 l 130 -142 l 132 -140 l 135 -140 l 138 -142 l 138 -145 l 135 -148 l 89 -148 l 70 -145 l 70 -156 l 64 -156 q 54 -148 64 -148 l 51 -145 l 18 -153 l -6 -153 l -33 -167 l -68 -159 l -125 -170 l -142 -167 l -163 -170 l -172 -170 l -207 -151 l -204 -148 l -177 -148 l -169 -142 l -158 -142 l -158 -148 l -163 -148 l -163 -153 l -155 -161 l -120 -161 l -106 -156 l -106 -148 l -115 -148 l -115 -145 l -109 -137 l -58 -145 l -47 -142 l -47 -140 q -63 -132 -60 -140 l -63 -129 l -60 -129 q -14 -137 -35 -137 q -1 -129 -14 -132 l 2 -132 l 2 -134 l -1 -137 l 21 -140 q 32 -134 21 -134 l 29 -132 l 29 -123 l 32 -123 q 37 -132 37 -123 l 45 -132 l 56 -123 l 64 -126 l 64 -118 l 70 -118 l 70 -126 l 78 -126 l 73 -118 l 73 -107 m 97 -121 l 124 -123 l 127 -123 l 127 -129 l 111 -129 l 97 -126 l 97 -121 m 149 -123 l 151 -126 l 151 -129 l 146 -134 l 138 -134 l 132 -129 l 132 -126 l 135 -126 l 143 -129 l 149 -123 m -125 -129 l -123 -129 q -150 -153 -123 -153 l -153 -151 l -153 -142 l -150 -145 l -144 -145 l -144 -142 l -150 -142 l -144 -137 l -142 -137 l -134 -142 q -125 -129 -132 -129 m -182 -153 l -182 -156 l -172 -156 l -172 -153 l -182 -153 z "},"3":{"ha":537,"x_min":-75,"x_max":852,"o":"m 209 705 l 212 703 l 212 699 l 209 696 l 206 696 l 203 699 l 203 703 l 206 705 l 209 705 m 498 703 l 504 696 l 501 694 l 498 694 l 492 699 l 495 703 l 498 703 m 498 688 l 504 682 l 501 679 l 498 679 l 492 685 l 495 688 l 498 688 m 85 675 l 87 673 l 87 670 l 85 667 l 82 667 l 79 670 l 79 673 l 82 675 l 85 675 m 640 649 l 643 646 l 646 646 l 658 649 l 661 640 l 705 640 l 705 637 l 699 631 l 669 631 q 649 640 660 631 l 646 640 l 646 635 l 649 631 l 649 629 l 640 625 q 628 640 628 625 l 625 637 l 622 637 l 616 644 l 640 649 m 593 646 l 595 644 l 595 640 l 590 635 l 595 635 l 604 640 l 604 637 q 569 625 604 625 l 536 631 l 525 631 l 525 629 l 551 625 l 551 620 l 536 616 l 540 620 l 540 623 l 498 623 l 498 629 l 510 629 l 510 631 q 498 637 498 631 l 501 640 l 545 640 l 554 635 l 563 635 l 593 646 m 746 644 l 758 644 l 758 637 l 746 637 l 746 644 m 288 637 l 307 623 l 307 620 l 298 620 l 271 623 l 241 620 l 235 620 l 229 625 l 233 629 l 235 629 l 256 625 l 262 631 l 274 629 l 288 637 m 430 637 l 433 635 l 460 635 l 475 637 l 477 635 l 480 637 l 484 635 l 484 631 l 480 629 q 492 623 492 629 q 427 616 475 616 q 407 629 407 624 l 410 631 l 412 629 l 427 629 l 430 637 m 327 635 l 359 625 l 389 635 l 401 631 l 401 629 q 348 620 401 620 l 333 623 l 315 620 l 312 623 l 312 625 l 327 635 m 770 635 l 782 635 l 782 629 l 770 629 l 770 635 m 850 635 l 852 631 l 852 629 q 814 623 839 623 l 814 629 l 850 635 m 599 625 l 602 623 l 602 620 l 599 616 l 595 616 l 593 620 l 593 623 l 595 625 l 599 625 m 220 614 l 229 611 l 265 614 l 377 611 l 549 611 l 551 614 l 554 614 l 554 611 q 460 511 508 547 q 395 446 446 482 q 268 310 280 310 l 268 307 l 274 301 l 294 304 q 371 286 298 297 q 410 277 371 281 q 501 212 478 253 q 530 100 530 136 l 534 26 l 534 -12 q 501 -79 528 -56 q 445 -159 501 -111 q 374 -218 445 -178 q 288 -236 325 -236 l 253 -239 l 165 -236 l 102 -201 q 28 -142 52 -165 q -3 -41 -3 -90 q 46 88 12 53 q 218 147 126 147 q 253 130 241 147 q 318 64 296 115 l 321 50 l 321 38 q 288 -68 321 -37 q 227 -106 288 -88 l 191 -112 l 185 -112 q 120 -68 120 -93 q 100 -6 102 -68 q 156 64 100 28 l 188 64 q 238 12 227 64 l 238 5 q 209 -41 238 -16 l 176 -41 l 165 -29 l 165 -3 l 170 -3 q 182 -26 170 -18 q 209 14 209 -11 q 161 35 191 35 q 138 -41 138 14 l 138 -44 q 185 -79 138 -68 q 253 -33 253 -73 q 288 44 288 9 q 215 103 273 81 l 176 103 q 106 68 130 103 q 46 3 67 48 q 32 -59 32 -43 q 85 -144 32 -87 l 165 -192 q 279 -203 193 -199 q 383 -133 343 -185 q 421 18 402 -101 l 421 92 q 401 138 421 102 q 377 195 397 178 q 345 236 366 200 q 307 251 324 236 l 238 251 q 153 233 214 251 l 153 236 q 206 286 189 286 q 229 307 220 307 l 229 310 l 224 310 l 224 313 l 233 321 l 235 319 l 238 319 q 371 457 245 338 l 425 528 q 389 546 425 537 l 238 543 l 126 528 q 56 493 126 518 l 50 493 q 5 549 19 493 q 35 581 12 581 l 43 581 l 52 572 l 50 570 l 46 570 l 43 572 q 32 543 32 560 l 32 540 q 41 531 41 540 q 46 522 46 531 q 64 516 64 520 q 120 561 81 516 q 220 614 168 597 m 194 599 l 194 590 l 200 590 l 200 599 l 194 599 m 182 585 l 182 581 l 191 581 l 191 590 l 188 590 l 182 585 m 235 575 l 235 570 l 238 570 l 253 575 l 253 581 l 241 581 l 235 575 m 224 575 l 224 566 l 229 566 l 229 575 l 224 575 m 374 575 l 374 570 l 386 564 l 389 564 l 395 570 l 395 572 l 380 575 l 374 575 m 595 537 l 599 537 l 599 531 l 593 525 l 590 528 l 590 531 l 595 537 m -42 466 l -39 463 l -39 460 l -42 457 l -45 457 l -47 460 l -47 463 l -45 466 l -42 466 m 138 389 l 144 384 l 138 378 l 132 384 l 138 389 m 359 307 l 404 298 l 404 292 l 392 292 l 359 301 l 359 307 m 412 292 l 418 292 l 427 289 l 427 283 l 425 283 q 412 292 412 288 m -68 256 l -62 251 l -68 245 l -75 251 l -68 256 m 448 227 l 448 221 l 463 221 l 463 227 l 448 227 m 451 206 l 451 201 l 454 201 l 460 206 l 460 212 l 457 212 l 451 206 m 5 195 l 11 189 l 5 182 l -1 189 l 5 195 m 631 189 l 634 186 l 634 182 l 628 177 l 625 180 l 625 182 l 631 189 m 654 127 l 661 127 l 661 118 l 654 118 l 654 127 m 97 106 l 97 100 l 109 100 l 109 106 l 97 106 m 70 88 l 70 77 l 76 77 l 87 88 l 87 92 l 85 92 l 70 88 m 404 88 l 410 88 l 410 79 l 404 79 l 404 88 m 501 38 l 501 32 l 504 32 l 510 38 l 510 44 l 507 44 l 501 38 m 433 14 l 433 5 l 439 5 l 439 14 l 433 14 m 392 5 l 395 3 l 395 0 l 392 -3 l 389 -3 l 386 0 l 386 3 l 389 5 l 392 5 m 433 -50 l 442 -50 l 445 -26 l 442 -26 q 433 -50 433 -28 m 416 -92 l 416 -98 l 425 -98 l 425 -92 l 416 -92 m 318 -201 l 312 -201 l 312 -207 l 321 -207 l 318 -221 l 324 -221 q 336 -203 330 -221 l 345 -203 l 345 -195 l 318 -201 m 300 -210 l 300 -218 l 309 -218 l 309 -216 l 303 -210 l 300 -210 m 646 -216 l 649 -218 l 649 -221 l 646 -224 l 643 -224 l 640 -221 l 640 -218 l 643 -216 l 646 -216 z "},"4":{"ha":538,"x_min":-102,"x_max":653,"o":"m 47 663 l 60 655 q 41 645 60 645 q 33 631 39 631 l 31 645 l 28 642 l 23 642 l 18 648 l 47 663 m 407 661 l 412 661 l 422 650 l 417 645 l 407 658 l 407 661 m 47 655 l 44 652 l 44 650 l 52 650 l 47 655 m 396 626 l 410 602 l 410 528 l 404 452 l 407 388 l 404 385 l 404 382 l 410 324 q 393 221 401 324 q 401 157 398 217 l 410 152 l 407 139 q 471 115 407 115 q 513 149 513 132 q 484 186 513 178 q 463 160 463 172 q 481 152 472 152 l 486 157 l 486 160 l 478 171 l 481 174 l 486 174 l 497 163 l 497 147 q 486 139 497 139 q 446 168 458 139 l 446 171 q 481 208 458 208 l 484 208 q 536 128 528 208 q 471 67 536 106 l 444 67 l 404 70 l 399 62 l 399 60 l 404 52 l 399 28 l 399 -6 l 412 -6 l 433 -4 l 454 -6 l 463 -6 l 481 -4 l 481 -6 q 457 -12 481 -12 l 457 -14 l 486 -14 l 502 -6 l 505 -6 l 505 -12 l 499 -12 q 494 -20 499 -20 l 468 -20 l 460 -25 l 444 -14 l 420 -14 l 401 -12 l 401 -14 q 412 -81 401 -54 q 401 -163 404 -111 q 420 -210 401 -193 l 420 -213 l 412 -213 l 380 -210 l 340 -213 l 288 -213 l 282 -208 q 306 -144 306 -178 l 309 -136 l 301 -88 l 306 -17 l 285 -17 l 285 -12 q 290 -4 290 -12 l 293 -1 l 296 -1 l 301 -6 l 304 -6 l 304 22 l 298 31 l 298 60 l 264 60 l 136 64 l 134 62 l 132 62 q 36 67 113 67 l 33 67 l -6 62 l -6 64 q 31 118 24 115 l 39 136 l 36 144 q 147 361 131 318 l 142 367 l 182 435 q 279 587 251 569 l 282 584 l 285 584 q 301 602 292 584 q 396 626 351 626 m 357 570 l 357 566 l 372 566 l 372 570 l 357 570 m 296 549 q 224 452 256 486 q 179 367 224 431 q 144 298 179 356 l 132 269 q 123 250 132 252 l 126 237 l 76 144 l 79 142 l 79 139 l 76 136 l 73 136 q 60 144 60 136 l 54 144 q 83 123 54 123 l 108 123 l 115 118 l 142 118 l 150 123 l 253 123 l 285 115 l 288 115 l 298 125 l 298 385 l 306 456 l 306 473 l 298 549 l 296 549 m 351 499 l 351 491 l 357 491 l 357 499 l 351 499 m 105 467 l 108 465 l 108 462 l 105 459 l 102 459 l 100 462 l 100 465 l 102 467 l 105 467 m 81 449 l 89 449 l 89 444 l 81 444 l 81 449 m 478 385 l 481 385 l 486 380 l 486 374 q 475 367 486 371 l 473 370 l 473 380 l 478 385 m 253 382 l 258 377 l 256 374 l 253 374 l 248 380 l 250 382 l 253 382 m 648 279 l 653 274 l 650 271 l 648 271 l 642 277 l 645 279 l 648 279 m -94 263 l -85 263 l -85 258 l -94 258 l -94 263 m 229 234 l 235 229 l 227 221 l 221 221 l 221 227 l 229 234 m 71 186 l 71 174 l 79 174 l 83 186 l 83 189 l 71 186 m 41 107 l 41 102 l 50 102 l 54 107 l 54 110 l 41 107 m 370 92 l 361 81 l 361 75 l 372 78 l 380 75 l 380 89 l 370 92 m 44 25 q 52 4 52 25 q 60 -9 58 4 l 57 -9 l 50 -4 l 47 -6 l 39 9 l 39 12 l 41 12 l 44 9 l 47 9 l 47 12 l 44 25 m 136 25 l 139 25 l 136 14 l 139 7 l 136 4 l 134 4 l 132 7 l 132 20 l 136 25 m 232 17 l 235 14 l 235 9 l 232 9 l 227 14 l 229 17 l 232 17 m 182 12 l 187 7 l 184 4 l 182 4 l 176 9 l 179 12 l 182 12 m 279 -1 l 285 -1 l 285 -6 l 275 -6 l 279 -1 m 144 -4 l 147 -14 l 155 -14 q 190 -4 163 -8 q 197 -9 190 -9 l 221 -6 l 221 -9 l 224 -6 l 240 -6 l 248 -12 l 256 -6 l 258 -6 l 267 -12 l 272 -6 l 275 -6 l 275 -12 l 264 -20 l 237 -14 l 237 -22 l 224 -20 l 216 -28 l 214 -25 l 200 -28 l 184 -28 l 187 -14 l 168 -14 l 132 -28 l 129 -31 l 105 -25 l 86 -33 l 76 -33 l 71 -28 q 86 -22 71 -22 l 86 -20 l 65 -20 l 65 -22 l 68 -25 l 68 -28 l 65 -31 l 62 -31 q 47 -20 60 -20 l 33 -20 l 25 -25 l 20 -25 l 7 -22 l 1 -28 l -1 -28 l -6 -22 l 7 -20 l 7 -17 l -27 -14 l -30 -14 l -30 -17 l -24 -17 l -24 -22 l -51 -20 l -54 -20 l -62 -25 l -64 -22 l -64 -20 l -67 -22 l -77 -22 l -102 -17 l -102 -14 l -96 -9 l -88 -14 l -80 -12 l -77 -14 l -77 -17 l -41 -12 l -38 -14 q -30 -6 -38 -6 l -19 -9 l -12 -6 l -9 -9 l -9 -12 l -6 -9 l -3 -9 l 4 -12 l 12 -9 l 15 -12 l 15 -14 l 18 -12 l 20 -12 l 23 -14 l 25 -14 l 31 -9 l 33 -12 l 33 -14 l 54 -12 l 57 -14 l 60 -14 l 71 -12 l 73 -14 l 76 -12 l 79 -12 l 81 -14 l 83 -12 l 86 -12 l 92 -17 l 129 -12 l 132 -20 l 139 -20 l 134 -12 l 144 -4 m 547 -6 l 555 -9 l 555 -14 l 550 -14 l 545 -9 l 547 -6 m 378 -14 l 378 -22 l 380 -22 l 386 -17 l 386 -14 l 378 -14 m 248 -20 l 250 -22 l 250 -25 l 237 -31 l 235 -28 l 235 -25 l 248 -20 m 343 -22 l 343 -28 l 351 -28 l 351 -22 l 343 -22 m 349 -54 l 346 -67 l 359 -64 l 359 -60 l 354 -54 l 349 -54 m -51 -81 q -27 -94 -27 -89 l -33 -99 l -41 -99 l -45 -94 l -48 -96 l -54 -96 l -59 -91 l -59 -88 l -51 -81 m 192 -94 l 195 -96 l 195 -99 l 192 -102 l 190 -102 l 187 -99 l 187 -96 l 190 -94 l 192 -94 m 65 -99 l 73 -107 l 71 -110 l 60 -107 l 60 -104 l 65 -99 m 531 -113 l 531 -120 l 521 -131 l 515 -120 l 531 -113 m 200 -245 l 203 -245 l 211 -248 l 211 -250 l 205 -256 l 200 -250 l 200 -245 z "},"5":{"ha":557,"x_min":17,"x_max":1063,"o":"m 471 621 q 530 583 530 595 q 437 429 530 489 q 321 401 393 408 l 323 398 l 323 392 l 311 395 l 292 389 l 211 389 q 130 176 185 372 l 133 176 q 258 216 216 216 l 296 216 q 528 66 465 216 q 552 -43 536 -2 q 509 -196 552 -179 q 340 -250 450 -250 l 283 -250 q 95 -190 244 -250 q 20 -83 20 -145 l 17 -43 q 64 41 17 0 q 158 66 96 66 q 283 20 258 66 q 296 -12 296 6 q 233 -93 296 -64 q 211 -102 220 -93 l 193 -102 q 98 -37 98 -93 l 98 -31 q 161 26 98 21 l 183 26 q 220 -12 220 18 l 220 -18 q 189 -46 220 -42 l 164 -46 l 158 -40 q 199 -8 199 -34 q 174 4 185 4 q 123 -24 148 4 l 123 -27 q 183 -74 134 -74 q 258 -5 246 -74 q 155 45 258 22 q 102 26 155 37 l 64 -8 l 58 -46 q 98 -124 58 -100 q 195 -178 109 -142 q 261 -203 195 -203 l 308 -209 l 311 -212 q 433 -168 412 -212 q 468 -81 468 -140 q 449 -12 462 -39 q 412 92 437 58 l 412 98 l 418 98 q 383 138 411 124 q 311 167 373 138 l 292 163 l 258 167 l 239 167 q 73 101 160 167 l 70 101 q 139 311 70 117 q 186 452 164 338 q 236 483 186 483 l 321 483 q 503 555 503 507 l 505 555 q 474 589 498 589 q 443 574 450 585 q 487 549 443 560 l 487 545 l 484 543 l 462 543 q 414 576 414 548 l 414 583 q 471 621 422 621 m 152 586 l 152 583 l 145 576 l 142 580 l 142 583 l 145 586 l 152 586 m 133 445 l 149 429 l 145 427 l 142 427 l 127 439 l 133 445 m 149 404 l 152 404 l 158 398 l 155 395 l 152 395 l 149 398 l 149 404 m 352 401 l 355 398 l 355 395 l 352 392 l 349 392 l 346 395 l 346 398 l 349 401 l 352 401 m 606 47 l 612 38 l 612 32 l 606 26 l 602 28 l 602 32 l 606 35 l 600 41 l 606 47 m 528 -31 l 521 -56 l 530 -56 l 536 -33 l 536 -31 l 528 -31 m 656 -93 l 659 -96 l 659 -99 l 656 -102 l 652 -102 l 650 -99 l 650 -96 l 652 -93 l 656 -93 m 734 -203 l 759 -218 l 762 -209 l 800 -224 l 809 -224 l 819 -218 l 828 -224 l 831 -224 l 838 -218 l 897 -237 l 903 -231 l 947 -237 l 956 -237 l 956 -234 q 937 -228 937 -234 l 937 -224 q 1059 -243 1015 -224 l 1063 -243 l 1063 -250 l 994 -243 q 985 -253 994 -253 l 903 -246 l 831 -250 l 809 -240 l 806 -240 l 793 -250 l 765 -250 q 722 -240 733 -250 l 712 -240 l 718 -250 l 715 -253 l 625 -253 l 615 -259 l 552 -259 l 546 -253 l 549 -250 l 552 -253 l 574 -253 l 584 -246 l 618 -246 l 631 -240 l 656 -246 l 659 -246 l 659 -243 q 627 -231 627 -238 l 631 -228 l 634 -228 l 637 -231 l 640 -228 l 671 -228 l 696 -234 l 712 -234 q 703 -228 712 -228 l 699 -224 l 699 -221 l 703 -218 q 753 -228 713 -224 l 756 -228 l 756 -224 q 731 -205 745 -224 l 734 -203 m 584 -218 l 587 -218 l 596 -228 q 577 -237 593 -237 l 562 -237 l 562 -231 l 581 -231 l 577 -228 l 577 -224 l 584 -218 m 718 -231 l 718 -234 l 734 -234 l 734 -231 l 718 -231 m 825 -237 l 825 -240 l 878 -240 l 878 -237 l 840 -237 l 840 -234 l 825 -237 m 749 -240 l 749 -243 l 784 -243 l 784 -240 l 749 -240 m 844 -269 l 856 -271 l 856 -278 l 844 -278 l 838 -271 l 840 -269 l 844 -269 z "},"6":{"ha":551,"x_min":-58,"x_max":960,"o":"m 161 886 l 163 884 l 163 877 l 161 877 l 156 882 l 161 886 m 377 884 l 382 877 l 382 867 l 380 855 q 470 825 451 855 q 496 765 496 797 l 496 744 q 451 703 496 720 q 413 696 451 699 q 370 703 380 699 l 370 699 l 375 691 l 375 689 l 370 682 l 370 680 l 372 680 l 372 684 l 377 680 l 377 661 l 372 656 l 377 629 q 366 618 373 618 l 366 608 l 370 608 q 377 580 370 588 l 377 568 l 375 566 l 375 563 l 382 558 l 389 561 l 391 558 l 391 556 q 375 520 378 556 l 382 503 l 380 501 l 377 501 l 380 489 l 380 484 l 377 482 l 377 479 q 463 439 433 456 q 506 368 488 418 q 532 332 532 348 l 544 292 q 520 140 529 153 q 385 39 490 79 l 387 16 l 385 -7 l 387 -7 l 396 -3 l 399 -5 l 399 -7 l 385 -12 l 387 -50 l 399 -41 l 404 -41 l 408 -45 l 396 -50 l 396 -55 l 477 -62 l 479 -60 l 479 -58 l 506 -62 l 508 -60 l 508 -58 l 553 -62 l 565 -62 l 579 -58 l 574 -50 l 577 -48 l 579 -48 q 584 -58 584 -48 l 591 -58 l 596 -53 l 598 -55 l 601 -55 l 603 -53 l 606 -53 l 636 -60 l 663 -60 l 669 -55 l 691 -58 l 696 -58 l 696 -55 l 688 -55 l 688 -50 l 795 -60 l 800 -55 l 827 -55 l 822 -48 q 829 -43 822 -43 q 852 -55 852 -49 l 841 -58 l 841 -60 l 855 -60 l 862 -58 l 922 -67 l 922 -69 l 950 -69 l 955 -74 l 952 -77 l 936 -74 l 922 -74 l 914 -69 l 848 -74 l 814 -72 l 798 -72 l 798 -74 l 862 -79 l 874 -77 l 874 -81 l 862 -83 l 843 -83 q 755 -72 806 -83 l 751 -77 l 622 -74 l 608 -74 l 608 -77 l 639 -79 l 639 -83 l 517 -72 l 477 -72 l 470 -77 l 458 -77 l 410 -79 l 413 -81 l 413 -86 l 410 -88 l 410 -91 q 427 -100 418 -91 l 432 -100 l 432 -105 l 427 -105 q 382 -81 421 -105 l 380 -81 l 380 -83 l 385 -83 l 385 -86 q 377 -91 385 -91 l 380 -93 l 380 -96 q 366 -112 370 -112 l 361 -107 l 356 -112 l 353 -110 l 353 -107 l 366 -86 l 332 -86 l 328 -81 l 330 -79 l 332 -79 l 344 -81 l 344 -77 q 328 -72 333 -77 l 323 -72 l 315 -77 l 311 -77 l 306 -72 l 315 -69 l 315 -67 l 273 -67 l 273 -62 l 337 -62 l 339 -60 l 342 -60 l 347 -64 q 356 -60 347 -60 q 361 -50 356 -50 l 368 -53 l 368 -10 l 366 1 l 370 6 l 370 23 l 375 23 l 375 -7 l 377 -7 l 377 35 l 375 35 l 311 25 l 201 37 q 71 118 83 92 q 40 175 40 165 l 42 203 q 16 247 16 203 l 9 247 q -55 282 -28 247 l -58 296 q -45 318 -51 318 l -41 313 l -50 301 q -38 292 -47 292 q 4 366 4 326 q 18 458 16 366 q 28 527 22 458 l 52 575 l 50 585 l 52 591 l 54 589 l 56 589 l 64 606 l 64 610 l 68 610 l 68 596 l 71 596 l 71 601 l 73 601 l 71 604 l 71 606 q 85 629 71 627 l 85 637 q 118 689 85 662 l 118 694 l 116 694 l 109 689 l 106 689 l 113 703 l 118 703 l 118 696 l 123 696 q 161 741 135 741 l 161 746 q 154 751 154 746 q 237 822 178 795 l 268 822 l 273 827 l 254 827 l 254 831 l 268 831 q 366 853 284 844 l 366 874 l 363 874 l 363 865 l 358 865 l 358 874 l 363 879 l 368 879 l 370 877 l 372 877 q 377 884 372 884 m 380 836 l 380 834 l 385 829 l 404 829 q 448 784 448 821 l 448 770 q 408 741 448 747 l 396 741 l 377 746 q 372 734 377 734 l 368 739 l 368 741 l 372 741 l 372 744 l 366 746 q 399 787 366 787 l 401 787 l 401 782 q 387 774 387 779 l 387 772 q 404 760 387 768 q 425 782 425 764 q 394 803 412 803 l 389 803 l 377 801 l 380 798 l 380 789 l 372 782 l 368 782 q 363 791 363 782 l 361 791 q 347 753 347 764 q 401 713 374 713 l 406 713 q 470 772 470 722 q 391 839 448 839 l 387 839 l 380 836 m 116 430 l 140 437 q 256 487 140 464 l 309 489 l 368 484 l 370 496 l 368 496 q 356 501 356 496 l 361 506 l 363 503 l 368 511 l 366 525 l 368 534 l 363 539 l 363 563 l 361 561 l 358 561 l 356 563 l 356 589 l 361 589 l 361 585 l 363 585 l 363 589 l 358 615 q 366 648 366 631 l 366 656 l 363 667 l 366 670 l 368 670 l 366 682 l 366 705 q 323 749 323 727 l 323 768 q 368 825 323 797 l 368 829 q 299 791 342 824 l 239 753 q 201 708 201 713 q 151 587 201 700 q 116 430 116 494 m 214 777 l 214 770 l 218 770 l 218 777 l 214 777 m 78 751 l 80 751 l 85 746 l 85 744 l 80 739 l 78 739 l 80 741 l 80 744 l 78 751 m 23 744 l 23 741 l 18 736 l 16 739 l 16 741 l 18 744 l 23 744 m 123 675 l 123 667 l 130 667 l 130 670 l 125 675 l 123 675 m 268 629 l 275 629 l 275 625 l 268 625 l 268 629 m 479 625 l 487 615 l 487 601 l 482 601 l 482 615 q 475 620 475 615 l 479 625 m 211 596 l 216 591 l 214 589 l 211 589 l 206 594 l 209 596 l 211 596 m 508 570 l 511 568 l 511 566 l 508 563 l 501 563 l 501 568 l 508 570 m 199 568 l 201 566 l 201 563 l 199 561 l 189 561 l 189 566 l 199 568 m 372 556 l 372 546 l 375 546 l 375 556 l 372 556 m 342 544 l 342 541 q 325 534 342 536 l 325 536 q 342 544 325 543 m 301 508 l 301 506 l 296 501 l 292 506 l 294 508 l 301 508 m 123 292 l 123 271 q 140 216 132 255 l 165 146 q 197 118 174 146 q 296 73 225 97 l 337 71 l 342 71 l 377 80 l 377 94 l 370 104 l 370 154 l 361 154 l 361 159 l 370 159 l 370 175 l 366 197 l 375 189 l 375 197 l 372 206 l 375 216 l 375 223 l 370 235 l 368 235 q 353 194 360 194 l 351 194 l 372 271 l 368 275 l 370 287 l 366 313 l 368 315 l 370 315 l 372 313 l 372 318 l 366 339 l 375 351 l 375 377 l 380 385 l 375 404 l 377 406 l 377 408 q 342 435 368 408 l 334 437 l 254 439 q 168 399 217 439 q 132 349 151 381 q 123 292 123 343 m 539 435 l 541 432 l 541 430 l 539 427 l 536 427 l 534 430 l 534 432 l 536 435 l 539 435 m 116 401 l 116 399 l 130 399 l 130 401 l 127 408 l 123 408 l 116 401 m 382 401 l 385 389 l 385 328 l 389 323 l 391 247 l 391 223 l 387 218 l 387 220 l 385 301 l 385 313 l 380 313 l 380 301 l 375 296 l 380 275 l 375 258 l 385 242 l 385 220 l 389 213 l 389 201 l 385 168 l 387 168 l 394 165 l 408 170 l 410 168 l 410 165 l 396 161 l 389 161 l 391 137 l 382 99 l 385 85 q 432 180 432 119 l 432 254 q 413 356 432 286 q 387 401 412 377 l 382 401 m 468 399 l 468 394 l 475 394 l 475 399 l 468 399 m 351 382 l 353 380 l 353 375 l 351 375 l 347 380 l 349 382 l 351 382 m 363 368 l 366 368 l 370 363 l 366 358 l 363 361 l 363 368 m -12 296 l -12 287 l -5 287 l -5 290 l -7 296 l -12 296 m 225 290 l 228 287 l 228 285 l 225 282 l 223 282 l 220 285 l 220 287 l 223 290 l 225 290 m 313 275 l 315 275 l 315 273 l 309 263 l 306 266 l 313 275 m 223 261 l 225 258 l 225 256 l 223 254 l 216 254 l 216 258 l 223 261 m 320 256 l 323 254 l 323 252 l 320 249 l 318 249 l 315 252 l 315 254 l 318 256 l 320 256 m 513 197 l 513 194 l 520 194 l 520 201 l 517 201 l 513 197 m 506 187 l 506 184 l 513 184 l 513 192 l 511 192 l 506 187 m 501 178 l 496 173 l 496 168 l 501 168 l 506 173 l 506 178 l 501 178 m 375 154 l 375 125 l 377 125 l 377 154 l 375 154 m 385 146 l 385 135 l 387 135 l 387 146 l 385 146 m 90 137 l 90 132 l 99 127 l 106 127 l 106 132 l 97 137 l 90 137 m 111 127 l 111 123 l 127 121 l 130 121 l 130 123 l 123 130 l 111 127 m 14 97 q 26 87 24 92 l 23 85 l 21 85 l 12 94 l 14 97 m 206 90 l 206 87 l 211 83 l 220 83 l 220 87 l 206 90 m 225 85 l 225 80 l 244 75 l 244 78 q 225 85 243 85 m 473 11 l 473 9 l 468 4 l 465 6 l 465 9 l 468 11 l 473 11 m 394 6 l 396 4 l 396 -1 l 394 -1 l 389 4 l 391 6 l 394 6 m 734 4 q 755 -5 755 -1 l 753 -7 l 751 -7 q 732 1 732 -2 l 734 4 m 446 -1 l 448 -3 l 448 -5 l 446 -7 l 444 -7 l 441 -5 l 441 -3 l 444 -1 l 446 -1 m 311 -7 l 315 -12 l 315 -15 l 311 -15 l 306 -10 l 309 -7 l 311 -7 m 482 -7 l 484 -10 l 484 -12 l 479 -17 l 477 -15 l 477 -12 l 482 -7 m 563 -10 l 570 -12 l 570 -17 l 563 -17 l 558 -12 l 560 -10 l 563 -10 m 639 -17 l 641 -20 l 641 -22 l 639 -24 l 629 -24 l 629 -20 l 639 -17 m 898 -24 l 905 -24 l 905 -29 l 898 -29 l 898 -24 m 608 -26 l 610 -29 l 610 -31 l 608 -34 l 606 -34 l 603 -31 l 603 -29 l 606 -26 l 608 -26 m 650 -39 l 653 -41 l 653 -43 l 646 -50 l 641 -50 l 641 -48 l 650 -39 m 952 -50 l 960 -50 l 960 -55 l 952 -55 l 952 -50 m 701 -58 l 701 -60 l 729 -60 l 729 -58 l 701 -58 m 753 -62 l 753 -64 l 762 -64 l 762 -62 l 753 -62 m 429 -67 l 429 -69 l 444 -69 l 444 -67 l 429 -67 m 660 -67 l 660 -69 l 705 -69 l 705 -67 l 660 -67 m 698 -100 l 701 -102 l 701 -105 l 698 -107 l 691 -107 l 691 -102 l 698 -100 m 475 -105 l 482 -112 l 482 -115 l 477 -115 l 470 -107 l 473 -105 l 475 -105 m 539 -115 l 541 -117 l 541 -119 l 539 -122 l 530 -122 l 530 -117 l 539 -115 z "},"7":{"ha":639,"x_min":-166,"x_max":648,"o":"m 159 753 l 170 753 l 170 747 l 159 747 l 159 753 m 246 747 l 254 745 l 254 742 l 252 739 l 252 736 q 262 728 262 735 l 262 696 l 257 690 l 254 693 l 257 674 l 257 623 q 241 609 241 621 l 243 601 l 241 585 l 241 579 l 246 579 q 254 590 246 590 l 252 604 l 252 609 l 257 614 l 309 606 l 374 606 l 382 601 l 417 601 q 536 614 469 601 l 555 614 q 631 604 631 614 q 599 563 631 578 l 520 460 q 477 422 520 452 l 469 392 q 477 387 477 392 q 287 186 287 204 q 249 37 249 117 l 249 34 q 287 -66 249 -16 q 322 -102 287 -75 q 376 -137 322 -125 q 439 -172 385 -150 l 452 -175 l 482 -175 q 534 -140 519 -175 q 545 -107 541 -140 q 509 -42 528 -42 q 477 -23 492 -23 l 466 -23 q 406 -72 423 -23 l 406 -77 q 450 -118 423 -118 q 479 -96 465 -118 q 460 -69 471 -69 l 441 -77 l 439 -77 l 433 -72 q 452 -53 433 -64 l 460 -53 q 507 -88 507 -53 l 507 -107 q 466 -142 487 -142 q 452 -148 466 -148 l 431 -148 q 363 -94 401 -148 l 357 -80 l 357 -58 q 401 7 357 -28 q 471 26 444 26 l 474 26 q 558 -4 507 26 q 612 -110 612 -52 l 612 -148 q 539 -221 578 -221 l 469 -245 l 466 -248 l 455 -254 q 314 -221 389 -254 q 265 -197 270 -208 l 268 -194 l 268 -191 l 265 -183 l 246 -183 q 197 -121 204 -146 q 143 -28 174 -121 l 132 7 l 132 26 l 138 34 l 138 45 q 216 202 138 111 q 238 237 235 224 l 235 262 l 235 270 l 241 289 q 233 316 239 309 l 233 349 l 235 368 l 233 365 l 230 365 l 224 370 l 224 389 q 230 373 230 389 l 233 373 l 238 384 l 238 389 q 224 397 238 394 l 224 389 l 222 389 l 216 395 l 216 397 l 222 403 l 224 400 l 224 406 l 227 406 l 235 400 l 238 414 l 233 422 l 235 433 l 233 435 l 230 435 l 233 438 l 233 476 l 238 476 l 238 460 l 243 454 l 241 481 l 241 495 l 243 495 l 246 492 l 249 492 l 254 498 l 257 495 l 252 484 q 265 438 252 438 l 273 452 l 279 452 l 279 444 q 262 425 273 425 l 260 425 l 260 419 l 262 422 l 265 422 l 271 416 l 260 411 q 268 387 267 402 l 265 384 l 262 387 l 257 387 l 246 305 l 246 286 q 241 273 246 273 l 243 259 l 243 240 l 246 240 l 330 316 q 458 449 332 334 q 504 500 458 454 l 463 500 l 452 506 l 268 503 l 254 506 l 254 511 l 260 511 l 260 514 l 254 530 l 243 530 l 243 528 l 249 519 l 246 506 l 197 509 q 89 492 197 501 q 51 435 73 479 l 51 403 q 83 384 68 384 q 135 408 135 384 l 135 411 q 121 433 135 426 l 108 433 q 81 414 93 433 l 81 411 q 108 397 81 405 l 108 395 l 105 392 l 102 392 q 64 406 64 394 l 64 422 q 108 452 81 452 q 124 457 108 457 q 165 430 165 457 l 165 422 q 97 368 141 368 q 7 419 7 383 l 7 438 q 51 530 7 464 l 54 530 l 56 528 l 59 528 q 83 568 67 556 q 173 614 83 573 l 181 614 l 227 617 l 230 628 l 246 628 l 249 625 l 252 625 l 252 666 l 249 680 l 246 680 l 246 674 l 249 652 q 241 633 246 633 q 230 669 230 654 l 224 669 l 216 663 l 214 666 l 214 669 q 224 690 224 671 l 227 693 l 230 693 l 233 690 l 238 699 l 238 709 l 233 709 l 224 704 l 219 704 l 219 707 l 224 715 l 219 715 l 192 712 l 138 715 l 102 715 q 97 723 97 715 l 13 720 l 13 718 l 29 715 l 29 709 l -12 715 l -22 712 l -36 715 l -131 712 l -153 712 l -166 715 l -166 720 l -125 718 l -112 718 l -104 723 l -90 723 l -77 720 l -60 723 l -36 723 l -17 720 q -9 726 -17 726 l -6 728 l -6 731 l 7 728 l 43 731 l 189 723 l 241 723 l 241 742 l 246 747 m 374 728 q 390 718 374 724 l 390 709 l 387 709 l 368 723 l 374 728 m 113 723 l 113 720 l 124 720 l 124 723 l 113 723 m 336 688 l 338 685 l 338 680 l 336 680 l 330 685 l 333 688 l 336 688 m 238 682 l 238 671 l 241 671 l 241 682 l 238 682 m 200 680 l 205 674 l 197 669 l 192 669 l 192 671 l 200 680 m -36 671 l -33 669 l -33 666 l -36 663 l -39 663 l -41 666 l -41 669 l -39 671 l -36 671 m 62 669 l 67 669 l 67 663 l 56 661 l 56 663 l 62 669 m 273 669 l 284 669 l 284 663 l 273 663 l 273 669 m 233 571 l 235 557 l 249 557 l 257 566 l 260 566 l 260 574 l 254 574 l 254 568 l 252 568 q 246 576 246 568 l 243 576 l 233 571 m 197 484 l 222 471 l 219 468 l 197 468 l 189 476 l 197 484 m 211 408 l 211 406 l 205 400 l 203 403 l 203 406 l 205 408 l 211 408 m 241 384 l 241 381 l 243 357 l 246 357 l 246 370 l 243 384 l 241 384 m -155 368 l -153 365 l -153 362 l -163 354 l -166 357 l -166 359 l -155 368 m 558 270 l 558 267 l 553 262 l 550 264 l 550 267 l 553 270 l 558 270 m 645 229 l 648 227 l 648 224 l 637 213 q 623 224 625 218 l 626 227 l 629 227 l 631 224 l 645 229 m -22 224 l -20 221 l -20 218 l -22 216 l -22 213 q -6 208 -6 213 l -25 208 l -31 213 l -31 216 l -22 224 m 243 213 l 243 202 l 249 202 l 249 213 l 243 213 m -6 208 l 7 205 l 7 199 l -1 199 l -6 205 l -6 208 m 233 197 l 233 189 l 238 189 l 238 197 l 233 197 m 238 170 l 238 145 l 243 145 l 243 170 l 238 170 m 233 118 l 233 96 l 238 96 l 238 118 l 233 118 m 417 58 l 422 53 l 425 56 l 428 56 l 431 53 l 431 50 q 425 37 425 50 l 422 34 l 420 34 q 398 50 406 34 l 404 56 l 409 50 l 417 58 m 170 -1 l 170 -26 l 184 -26 l 184 -20 q 176 -15 176 -20 l 176 -7 q 189 1 176 0 l 189 9 l 181 9 l 170 -1 m 102 -91 l 108 -96 l 108 -102 l 102 -107 l 97 -102 l 97 -96 l 102 -91 m 140 -123 l 143 -126 l 143 -129 l 140 -132 l 138 -132 l 135 -129 l 135 -126 l 138 -123 l 140 -123 m 572 -153 l 572 -167 l 574 -167 q 585 -151 585 -164 l 572 -153 m 330 -273 l 333 -275 l 333 -281 l 328 -286 l 322 -281 l 330 -273 m 349 -283 l 352 -286 l 355 -283 l 357 -286 l 357 -289 l 355 -292 l 349 -292 l 344 -286 l 347 -283 l 349 -283 z "},"8":{"ha":520,"x_min":-44,"x_max":1139,"o":"m 9 914 l 17 914 l 17 909 l 9 909 l 9 914 m 22 903 l 33 893 l 30 890 l 27 890 q 19 896 27 896 l 17 899 l 17 901 l 19 903 l 22 903 m 252 885 l 273 885 q 458 764 418 885 l 466 716 l 466 684 q 307 510 466 605 l 307 505 q 508 304 486 399 q 522 222 516 277 q 469 98 522 132 l 405 37 q 271 0 333 0 l 271 -2 q 278 -7 278 -2 l 275 -18 l 271 -18 l 271 -7 l 268 -7 l 262 -44 q 273 -34 271 -41 l 275 -37 l 283 -34 l 307 -37 l 392 -28 l 395 -31 l 395 -37 l 387 -37 l 387 -39 l 402 -39 q 413 -23 404 -29 l 416 -23 l 421 -28 l 413 -37 l 413 -39 l 418 -39 q 473 -28 422 -34 q 484 -15 473 -20 l 490 -23 l 487 -26 l 487 -31 l 529 -39 l 558 -39 l 598 -41 l 598 -47 q 576 -58 576 -50 q 585 -63 585 -58 l 579 -68 l 576 -68 l 561 -55 l 566 -50 l 569 -52 l 569 -47 l 558 -47 q 540 -55 549 -55 l 526 -55 l 526 -50 l 543 -50 l 543 -47 l 505 -44 l 481 -50 l 458 -44 l 410 -44 q 402 -55 410 -55 l 373 -55 l 352 -50 l 349 -50 q 336 -60 349 -60 l 318 -58 l 318 -60 l 313 -65 l 262 -65 l 262 -73 l 265 -92 l 262 -92 l 260 -90 l 257 -90 l 257 -94 l 252 -94 l 252 -79 l 239 -73 q 225 -90 239 -79 l 220 -90 l 215 -84 l 225 -81 l 225 -79 l 204 -60 l 204 -58 l 183 -60 l 168 -58 l 119 -60 l 101 -60 l 85 -58 l 72 -60 l 67 -60 l 38 -52 q 9 -63 18 -56 l -4 -63 l -4 -58 l 6 -58 l 6 -55 l -9 -55 l -9 -50 l 27 -50 l 38 -44 l 54 -50 l 80 -50 l 98 -52 l 96 -39 l 98 -39 l 115 -37 l 119 -37 l 119 -41 q 106 -47 106 -41 l 133 -52 l 130 -50 l 130 -47 l 138 -44 l 191 -52 l 199 -52 l 201 -50 l 204 -50 q 231 -65 205 -58 l 231 -71 l 239 -68 q 215 -55 225 -55 l 215 -50 l 225 -50 l 233 -55 l 236 -55 l 236 -52 l 228 -41 l 233 -31 l 236 -34 l 241 -34 l 241 -31 l 239 -23 l 231 -23 q 201 -15 201 -23 l 204 -13 l 207 -15 l 218 -15 l 218 -5 q 51 64 176 -5 q 12 167 27 92 q 3 191 5 167 l 3 224 q 136 431 3 340 l 175 463 l 175 465 q 138 515 142 494 q 91 610 91 551 q 69 663 82 610 l 69 695 l 67 719 l 69 745 l 69 774 q 141 851 69 821 q 252 885 141 875 m 608 867 l 608 864 l 600 856 l 598 859 l 598 861 l 608 867 m 62 861 l 62 859 l 56 853 l 54 856 l 54 859 l 56 861 l 62 861 m 447 861 l 455 861 l 455 856 l 447 856 l 447 861 m 115 856 l 117 853 l 117 851 l 115 848 l 104 848 l 104 853 l 115 856 m 117 769 l 117 729 q 149 645 129 645 q 199 581 166 612 l 254 534 q 278 528 273 534 l 283 528 q 376 640 376 576 l 376 684 q 289 832 376 768 l 260 848 l 228 848 q 165 827 181 842 q 122 774 122 804 l 117 769 m 426 801 l 426 793 l 431 793 l 431 801 l 426 801 m 635 801 l 637 798 l 637 782 l 640 782 l 643 785 l 646 785 l 648 782 l 648 779 l 646 777 l 637 777 q 629 798 632 777 l 632 801 l 635 801 m 51 751 l 54 748 l 54 745 l 51 743 l 41 743 l 41 748 l 51 751 m 33 737 l 35 734 l 35 732 l 27 726 l 22 732 l 33 737 m -15 542 l -12 539 l -12 536 l -15 534 l -18 534 l -20 536 l -20 539 l -18 542 l -15 542 m -20 528 l -12 510 l -15 507 l -18 507 l -25 526 l -22 528 l -20 528 m 45 505 l 59 500 l 59 494 l 51 494 l 43 502 l 45 505 m 75 492 l 80 486 l 80 484 l 75 484 l 69 489 l 72 492 l 75 492 m 246 465 l 246 457 l 252 457 l 252 465 l 246 465 m 909 450 l 920 450 l 930 444 l 930 439 l 920 439 l 909 444 l 909 450 m 328 441 l 328 433 q 342 425 342 433 l 347 425 l 347 433 q 328 441 347 439 m 196 433 l 186 436 q 94 301 94 359 l 94 264 l 91 201 q 168 87 133 111 q 222 56 193 67 l 220 58 l 220 61 l 225 66 l 228 64 q 236 77 231 77 l 239 77 q 246 61 239 61 l 246 77 l 252 77 l 252 48 l 265 45 l 289 45 q 368 96 349 45 l 381 151 l 381 164 l 368 259 l 347 325 q 328 359 337 325 q 241 412 296 392 l 204 439 l 196 433 m 854 401 l 859 401 l 859 397 q 867 391 867 397 l 859 391 l 854 397 l 854 401 m 883 399 l 886 397 l 886 391 l 883 389 l 883 386 q 899 370 890 386 l 897 368 l 918 338 l 912 333 q 888 359 895 347 l 888 362 l 891 365 l 891 368 q 886 378 886 368 l 854 373 q 838 383 854 377 l 838 389 l 862 383 l 873 383 l 867 391 l 883 399 m 410 386 l 410 375 l 416 375 l 418 386 l 410 386 m 244 307 l 246 304 l 246 294 l 231 296 l 231 301 l 244 307 m 241 273 l 246 273 l 246 264 l 241 259 l 236 264 q 241 273 241 264 m 321 273 l 326 267 l 323 264 l 321 264 l 315 270 l 318 273 l 321 273 m 389 262 l 389 256 l 395 256 l 399 262 l 397 264 l 389 262 m 402 251 l 402 243 l 410 243 l 410 251 l 402 251 m 241 246 l 254 230 l 249 170 l 252 159 l 244 151 l 244 138 l 246 138 q 252 149 246 149 l 262 135 l 262 132 l 252 100 l 241 100 l 241 114 l 246 122 l 246 132 q 233 151 239 132 l 233 191 q 246 227 233 220 l 246 222 l 249 222 l 249 224 q 239 241 243 241 l 239 233 l 233 233 l 233 238 l 241 246 m 239 203 l 239 159 l 241 159 l 244 177 l 241 180 l 241 185 l 246 193 q 241 203 241 193 l 239 203 m 189 199 l 194 193 l 183 185 l 180 188 l 189 199 m 159 170 l 162 167 l 162 164 l 159 161 l 157 161 l 154 164 l 154 167 l 157 170 l 159 170 m 231 138 l 236 138 l 239 124 q 231 111 231 124 l 225 111 l 222 124 l 225 127 l 228 127 l 231 124 l 231 138 m 281 119 l 283 117 l 283 114 q 273 96 283 100 l 271 96 l 271 98 l 278 106 l 275 109 l 275 114 l 281 119 m 231 103 l 236 98 l 236 87 l 231 87 l 231 103 m 579 61 l 585 53 l 574 40 q 564 48 564 44 l 566 50 l 569 48 l 574 48 q 579 61 574 61 m 1042 24 l 1044 22 l 1044 19 q 1026 8 1032 8 l 1026 5 l 1036 5 l 1036 11 l 1052 0 l 1055 3 l 1057 3 l 1068 0 l 1071 0 l 1074 8 l 1076 5 l 1131 5 l 1134 8 l 1137 8 l 1139 5 l 1139 3 q 951 -31 1139 -4 l 936 -23 l 915 -28 q 886 -20 886 -26 l 886 -18 l 901 -18 l 923 -7 l 915 -5 l 915 0 l 981 -2 q 997 8 981 7 l 1000 5 l 1000 3 l 1021 5 l 1018 8 l 1018 14 q 1042 24 1026 14 m 1113 24 l 1113 22 q 1089 14 1113 16 l 1086 16 l 1086 22 l 1100 22 l 1113 24 m 54 14 l 56 11 l 56 8 l 54 5 l 51 5 l 48 8 l 48 11 l 51 14 l 54 14 m 384 3 l 387 0 l 387 -5 l 384 -5 l 378 0 l 381 3 l 384 3 m 466 0 l 469 0 l 463 -5 l 460 -5 l 466 0 m 513 0 l 516 -2 l 516 -5 l 505 -15 l 503 -13 l 503 -10 l 513 0 m 650 0 l 653 -2 l 653 -5 l 646 -13 l 643 -10 l 643 -7 l 650 0 m 228 -5 l 228 -7 l 231 -18 l 239 -18 l 239 -10 l 228 -5 m 722 -2 l 724 -5 l 753 -5 q 809 -15 809 -10 l 809 -18 l 791 -20 l 791 -23 l 801 -26 l 804 -23 l 817 -26 l 875 -26 l 875 -31 l 851 -31 l 801 -39 l 780 -39 l 772 -34 l 749 -39 l 720 -37 l 696 -37 l 680 -41 l 677 -44 q 669 -52 669 -44 l 664 -52 l 664 -60 l 690 -60 l 690 -65 l 656 -65 l 650 -60 l 656 -55 l 656 -52 l 640 -47 l 622 -47 l 622 -41 l 635 -41 l 629 -37 l 635 -26 l 637 -28 l 646 -28 l 661 -26 l 664 -28 l 667 -28 q 714 -13 714 -22 l 730 -15 l 730 -20 q 701 -26 730 -26 l 701 -28 l 743 -31 l 746 -31 l 746 -28 l 738 -28 l 738 -23 l 774 -23 l 774 -13 l 772 -13 l 735 -18 l 735 -15 l 722 -13 l 720 -10 l 720 -7 l 722 -5 l 722 -2 m 104 -5 l 115 -5 l 115 -10 l 104 -10 l 104 -5 m 930 -7 l 930 -13 l 947 -13 l 947 -7 l 930 -7 m 954 -7 l 954 -15 q 973 -10 960 -10 l 973 -7 l 954 -7 m 986 -7 l 986 -13 l 1021 -10 l 1021 -7 l 986 -7 m 1028 -7 l 1028 -10 l 1047 -10 l 1047 -7 l 1028 -7 m 244 -10 l 244 -18 l 254 -15 l 254 -10 l 244 -10 m 526 -7 l 532 -13 l 529 -15 l 522 -15 l 522 -13 l 526 -7 m 254 -23 l 252 -47 l 257 -47 l 257 -23 l 254 -23 m 516 -20 l 526 -20 l 526 -26 l 516 -26 l 516 -20 m 572 -20 l 576 -20 l 576 -26 l 593 -26 l 593 -31 l 561 -34 l 526 -34 l 526 -28 l 553 -28 q 572 -20 572 -28 m 165 -26 l 170 -26 l 170 -28 l 165 -34 l 159 -34 l 159 -31 l 165 -26 m 611 -26 l 622 -26 l 622 -31 l 600 -37 l 611 -26 m 799 -31 l 799 -34 l 814 -34 l 814 -31 l 799 -31 m 56 -34 l 59 -37 l 59 -41 l 45 -41 l 45 -37 l 56 -34 m 196 -37 l 199 -39 l 199 -41 l 196 -44 l 194 -44 l 191 -41 l 191 -39 l 194 -37 l 196 -37 m 281 -39 l 281 -44 l 289 -41 l 289 -39 l 281 -39 m 1057 -37 l 1065 -37 l 1065 -41 l 1057 -41 l 1057 -37 m 366 -44 l 366 -47 l 378 -50 l 373 -44 l 366 -44 m 653 -44 l 653 -47 l 667 -47 l 667 -44 l 653 -44 m 138 -50 l 138 -55 l 146 -55 l 141 -50 l 138 -50 m 275 -58 l 265 -55 l 262 -55 l 262 -60 l 313 -60 l 313 -50 l 310 -50 l 275 -58 m 318 -50 l 318 -52 l 345 -52 l 345 -50 l 318 -50 m 897 -47 l 899 -50 l 899 -52 l 897 -55 l 886 -55 l 886 -50 l 897 -47 m 846 -52 l 849 -52 l 857 -55 l 859 -52 l 862 -55 l 862 -58 l 859 -60 l 851 -60 l 846 -55 l 846 -52 m 762 -55 l 764 -58 l 764 -63 l 762 -63 l 756 -58 l 759 -55 l 762 -55 m 796 -55 l 809 -58 l 809 -63 l 799 -63 l 793 -58 l 796 -55 m 738 -60 l 738 -63 l 732 -68 l 730 -68 l 724 -63 l 727 -60 l 738 -60 m -41 -76 l -39 -79 l -20 -79 l -20 -84 l -39 -84 l -44 -79 l -41 -76 m 281 -81 l 286 -94 l 283 -94 l 275 -87 l 281 -81 m 503 -90 l 505 -92 l 505 -94 l 503 -97 l 500 -97 l 497 -94 l 497 -92 l 500 -90 l 503 -90 m 115 -102 l 125 -102 l 125 -108 l 115 -108 l 115 -102 m 254 -102 l 254 -105 l 257 -102 l 260 -102 l 265 -108 l 265 -111 l 260 -115 l 265 -129 l 262 -137 l 260 -137 q 254 -118 254 -137 l 249 -113 l 249 -108 l 254 -102 m 281 -140 l 283 -140 l 289 -144 l 286 -147 l 283 -147 l 281 -144 l 281 -140 m 260 -142 l 265 -150 l 265 -153 l 257 -153 l 262 -161 l 257 -165 l 252 -150 l 260 -142 m 262 -174 l 265 -182 l 262 -190 l 257 -190 l 257 -179 l 262 -174 z "},"9":{"ha":510,"x_min":-190,"x_max":794,"o":"m 105 697 l 105 694 l 100 689 l 97 692 l 97 694 l 100 697 l 105 697 m 496 665 l 501 654 l 498 651 l 485 654 l 485 659 l 496 665 m 507 665 l 509 665 l 509 662 l 504 656 l 501 656 l 501 659 l 507 665 m 284 632 q 417 591 334 632 l 452 559 q 507 401 507 466 q 498 307 501 395 l 504 260 l 485 146 q 371 -49 458 62 q 330 -106 355 -79 l 328 -103 l 322 -103 q 295 -127 322 -117 l 268 -152 l 254 -152 l 254 -155 l 257 -163 l 254 -163 l 238 -174 l 224 -168 l 224 -176 l 227 -179 l 224 -182 l 203 -190 l 197 -184 q 159 -220 193 -184 l 108 -236 l 100 -236 l 97 -233 l 94 -233 l 97 -231 l 97 -222 l 92 -222 l 92 -233 q 62 -217 62 -233 l 51 -220 q 18 -176 35 -216 q 7 -171 7 -176 l 7 -157 q 92 30 7 -46 l 121 38 q 197 5 173 38 l 189 3 l 189 -3 l 203 -3 q 227 -65 218 -3 l 227 -71 q 124 -146 218 -133 l 113 -146 q 59 -92 59 -134 q 111 -3 59 -30 l 127 3 l 130 3 q 178 -52 166 3 l 178 -60 q 132 -95 178 -92 l 127 -95 q 94 -60 96 -95 q 111 -41 99 -47 l 127 -41 l 132 -46 q 113 -57 113 -51 l 113 -65 l 116 -68 l 124 -71 l 124 -73 q 143 -52 140 -73 l 143 -49 q 121 -27 142 -27 q 86 -71 100 -27 q 127 -114 100 -114 l 130 -114 q 192 -68 192 -114 q 151 8 192 -14 l 119 14 q 54 -57 81 1 l 32 -141 q 111 -190 32 -190 q 241 -114 216 -150 q 298 -41 286 -71 q 371 92 334 -1 l 385 138 l 382 138 q 116 182 165 138 q 100 195 105 182 l 92 193 l 86 201 q 97 209 86 208 l 97 212 q 86 217 97 217 l 86 222 l 100 222 l 100 228 q 81 244 93 228 l 75 244 l 81 225 l 75 225 q 45 293 66 225 q 32 307 45 307 l 32 309 l 35 312 l 37 309 l 43 309 l 32 339 l 35 391 l 24 434 q 43 494 24 455 q 64 526 43 500 q 78 540 64 534 q 168 610 81 549 l 222 624 l 222 618 l 227 618 q 284 632 239 632 m 241 621 l 241 616 l 265 613 l 265 618 l 241 621 m 238 581 q 230 570 238 570 l 205 572 q 146 553 205 566 q 124 545 146 548 q 83 486 94 515 l 81 396 q 113 309 81 359 l 149 317 l 154 312 l 168 312 l 176 317 l 214 317 l 216 320 l 219 320 l 222 312 l 233 312 l 246 315 q 254 309 246 309 l 257 307 l 257 301 l 200 301 l 200 304 l 203 312 l 186 312 l 189 309 l 189 307 l 186 298 l 178 298 l 124 293 q 173 244 157 246 q 222 212 193 212 q 341 168 222 197 l 387 165 q 412 212 387 182 l 412 225 l 406 233 l 406 271 l 401 342 l 404 391 l 390 429 l 390 456 q 360 505 369 474 l 344 518 q 360 543 360 528 l 349 543 q 341 529 349 529 q 317 543 326 543 q 279 567 315 549 l 243 567 l 246 581 l 238 581 m 254 578 l 254 572 l 265 572 l 265 578 l 254 578 m 284 578 l 284 572 l 292 572 l 292 578 l 284 578 m 707 513 l 715 505 l 718 505 l 721 507 l 724 507 l 726 505 l 726 502 l 724 499 l 707 499 l 702 505 l 702 507 l 707 513 m 192 475 l 197 469 l 195 467 l 192 467 l 186 472 l 189 475 l 192 475 m -117 472 q -98 453 -109 472 l -101 453 q -120 469 -113 458 l -117 472 m 51 448 l 51 445 q 59 426 59 435 l 64 426 l 64 429 q 59 450 64 450 l 51 448 m 151 445 l 154 442 l 154 434 l 149 434 l 146 442 l 149 445 l 151 445 m 298 429 l 303 423 l 303 420 l 298 415 l 290 415 l 281 423 l 284 426 l 287 423 l 290 423 l 298 429 m 553 429 l 561 429 l 561 426 l 555 418 l 547 420 l 547 423 l 553 429 m -125 372 l -123 369 l -123 361 l -131 353 l -142 363 l -125 372 m 558 339 l 564 339 q 555 323 561 323 l 553 326 l 553 334 l 558 339 m -39 336 l -17 323 l -17 331 l -12 331 l -12 326 l -20 317 q -41 334 -33 317 l -39 336 m 338 320 l 341 317 l 341 315 l 330 312 l 333 309 l 333 304 l 317 304 l 298 307 l 292 301 l 279 301 l 273 307 l 276 307 l 273 309 l 273 312 l 276 315 l 276 317 l 317 312 l 338 320 m 341 315 q 349 301 347 315 l 347 301 l 341 307 l 341 315 m -31 312 l -22 309 l -14 312 l -14 309 l -6 298 l -14 296 l -12 293 l -12 288 l -14 288 q -66 298 -36 288 l -66 304 l -33 304 l -31 312 m -6 312 l 2 307 l 13 307 l 26 309 l 29 293 l 13 290 l 13 293 q 24 298 13 298 l 24 301 l -3 301 l -12 309 l -9 312 l -6 312 m 121 307 l 121 304 l 138 304 l 138 307 l 121 307 m 186 298 l 197 298 l 197 293 l 192 293 l 186 298 m 224 298 l 227 296 l 227 293 l 224 290 l 222 290 l 219 293 l 219 296 l 222 298 l 224 298 m 159 296 l 168 290 l 170 293 l 173 293 l 176 290 l 178 290 l 181 293 l 184 290 l 184 288 l 181 285 l 162 285 l 157 290 l 159 293 l 159 296 m 477 277 l 477 274 l 482 269 l 488 269 l 488 277 l 477 277 m -93 250 l -90 247 l -90 244 l -96 239 l -101 244 l -93 250 m 778 190 l 783 182 l 775 179 l 775 171 l 791 176 l 794 174 l 794 171 l 778 165 l 775 165 l 764 184 l 764 187 l 767 187 l 770 184 l 772 184 l 778 190 m 224 184 l 222 174 l 230 168 l 233 171 l 233 176 l 224 184 m -77 171 l -68 168 l -68 163 l -74 163 l -79 168 l -77 171 m -36 157 l -31 149 l -31 146 l -33 146 l -41 155 l -39 157 l -36 157 m -50 100 l -44 95 l -47 92 l -55 92 l -60 98 l -58 100 l -50 100 m 292 92 l 295 90 l 295 87 l 287 84 l 290 81 l 290 79 l 287 76 l 284 76 l 281 79 l 281 84 l 292 92 m 374 35 l 374 30 l 376 30 q 401 38 401 31 l 401 43 l 398 43 q 374 35 386 35 m -14 30 l -14 27 l -22 19 l -31 27 l -28 30 l -14 30 m 149 -49 l 149 -52 l 151 -65 l 159 -65 l 159 -52 l 149 -49 m 566 -122 l 569 -122 l 574 -127 l 569 -133 l 566 -133 l 561 -127 l 566 -122 m 243 -152 l 243 -155 l 252 -155 l 252 -146 l 249 -146 l 243 -152 m 203 -168 l 200 -182 l 208 -182 l 211 -168 l 203 -168 m 81 -220 l 81 -225 l 89 -225 l 89 -220 l 81 -220 m 536 -244 l 539 -247 l 539 -250 l 536 -252 l 534 -252 l 531 -250 l 531 -247 l 534 -244 l 536 -244 m -22 -260 l -17 -274 l -20 -274 l -28 -266 l -22 -260 m 355 -296 l 360 -301 l 357 -304 l 355 -304 l 349 -298 l 352 -296 l 355 -296 m 70 -334 l 75 -334 l 75 -342 l 70 -347 l 64 -342 q 70 -334 70 -342 m 444 -334 l 450 -339 l 450 -342 l 444 -347 l 439 -342 l 439 -339 l 444 -334 m 515 -345 l 520 -355 l 517 -358 l 515 -358 l 509 -353 l 509 -350 l 515 -345 m -62 -258 l -60 -261 l -60 -264 l -62 -272 l -60 -272 l -49 -275 l -46 -272 l -46 -269 l -33 -272 l -30 -272 l -16 -269 l -14 -272 l -8 -267 l 14 -269 l 68 -267 l 149 -275 l 152 -272 l 165 -275 l 201 -275 l 201 -280 l 60 -280 l 46 -283 l 43 -280 l 43 -277 l 46 -275 l 43 -272 l 38 -272 q -38 -286 38 -286 l -43 -291 l -90 -291 l -146 -294 l -163 -286 l -190 -286 l -190 -280 q -62 -258 -76 -280 m 602 -412 l 604 -415 l 604 -418 l 602 -420 l 599 -420 l 596 -418 l 596 -415 l 599 -412 l 602 -412 m 667 -412 l 672 -418 l 669 -420 l 667 -420 l 661 -415 l 664 -412 l 667 -412 z "}," ":{"ha":386,"x_min":0,"x_max":0,"o":""},"!":{"ha":496,"x_min":-139,"x_max":607,"o":"m 382 851 l 387 851 q 485 808 441 851 l 496 808 l 496 802 l 488 802 l 493 759 l 493 756 q 439 694 476 694 l 428 694 q 363 729 376 694 l 360 753 q 374 783 366 783 l 371 786 l 371 789 l 379 797 l 385 791 q 409 800 385 800 l 409 802 l 401 802 l 387 800 l 366 805 l 363 805 q 341 794 353 805 l 344 791 l 344 786 q 271 623 310 786 q 262 607 271 609 l 265 593 q 238 469 238 558 q 195 322 207 347 q 184 287 184 322 q 119 173 144 202 q 102 138 119 155 q 73 284 86 160 q 64 322 64 304 l 70 398 l 67 412 l 73 417 l 67 436 l 73 458 l 73 504 q 97 577 73 526 q 181 715 114 630 q 227 748 227 743 l 219 756 l 222 759 l 224 759 l 222 762 l 222 770 l 224 770 l 235 764 q 271 797 251 770 l 276 791 q 352 846 302 825 l 382 851 m 368 813 l 368 810 l 404 808 l 420 810 l 428 810 l 439 800 l 436 797 l 433 797 l 428 802 l 414 802 l 414 800 q 444 772 444 792 l 444 759 q 422 745 437 745 l 417 745 l 412 751 q 439 764 439 755 q 417 783 433 778 q 393 756 393 774 l 393 751 q 433 729 393 743 l 436 729 q 460 772 460 747 q 406 824 441 824 l 368 813 m 205 821 l 208 813 l 211 813 l 222 816 l 224 813 l 227 813 l 238 816 l 241 813 l 241 810 l 238 808 l 211 808 l 203 813 l 184 813 q 149 805 178 807 l 149 810 l 205 821 m 561 821 l 566 813 q 596 819 577 819 q 604 813 596 813 l 607 810 l 607 805 l 591 805 l 583 810 l 558 805 l 555 808 l 550 802 l 539 802 l 539 808 q 561 821 552 808 m 111 816 l 121 816 l 121 810 l 111 810 l 111 816 m 254 816 l 257 813 l 257 810 l 254 808 l 249 808 l 249 810 l 254 816 m 517 813 l 523 808 l 520 805 l 512 805 l 512 808 l 517 813 m 200 800 l 208 791 l 203 786 l 195 797 l 197 800 l 200 800 m 243 786 l 246 783 l 246 781 l 243 778 l 238 778 l 238 781 l 243 786 m 214 775 l 216 772 l 216 764 l 214 764 l 208 770 l 214 775 m 2 631 l 2 629 l -3 623 l -9 623 l -9 629 l 2 631 m 168 623 l 168 615 l 181 618 l 176 623 l 168 623 m -25 623 l -20 623 l -28 612 l -28 610 l -22 610 l -22 604 l -39 602 l -41 604 l -41 607 l -25 623 m 146 604 l 146 602 l 154 602 l 157 610 l 151 610 l 146 604 m 159 602 l 159 596 l 168 596 l 162 602 l 159 602 m -109 528 l -104 523 l -109 517 l -115 523 l -109 528 m 260 431 l 265 425 l 265 422 l 260 417 l 254 425 l 260 431 m 357 420 l 360 417 l 360 414 l 357 412 l 352 412 l 352 414 l 357 420 m 347 412 l 363 409 l 363 404 l 344 404 l 344 406 l 347 409 l 347 412 m 325 105 l 330 100 l 325 94 l 319 100 l 325 105 m 168 92 l 170 89 l 170 86 l 168 83 l 165 83 l 162 86 l 162 89 l 165 92 l 168 92 m 151 51 l 157 45 l 157 43 l 151 37 l 146 43 l 146 45 l 151 51 m 119 5 q 192 -63 127 5 l 192 -66 l 186 -66 l 186 -71 l 197 -71 l 205 -66 l 211 -66 l 211 -71 l 205 -71 l 205 -74 l 219 -90 l 219 -93 q 189 -117 214 -108 q 178 -123 189 -123 q 170 -134 178 -134 l 165 -128 l 157 -128 l 157 -134 l 154 -136 l 157 -139 l 162 -139 l 162 -155 q 138 -182 138 -176 l 111 -193 l 105 -193 q 2 -109 62 -147 l 2 -106 l 56 -55 q 119 5 75 -22 m -79 -58 l -68 -60 l -68 -66 l -79 -66 l -85 -60 l -82 -58 l -79 -58 m -39 -60 l -36 -60 l -36 -63 l -39 -71 l -1 -71 l -1 -77 l -47 -77 q -55 -66 -51 -77 l -52 -63 l -50 -63 l -47 -66 l -44 -66 l -39 -60 m -6 -60 l -6 -63 l -12 -68 l -17 -63 l -14 -60 l -6 -60 m 127 -63 q 119 -68 127 -68 l 119 -74 l 127 -74 l 132 -68 l 135 -71 l 143 -71 l 149 -66 l 149 -63 l 138 -66 l 127 -63 m 157 -63 l 157 -66 l 162 -71 l 170 -71 l 170 -66 l 157 -63 m 279 -60 l 284 -66 l 281 -68 l 279 -68 l 273 -63 l 276 -60 l 279 -60 m 92 -66 l 92 -71 l 105 -71 l 105 -66 l 92 -66 m 176 -66 l 176 -71 l 184 -71 l 184 -66 l 176 -66 m 243 -63 l 249 -68 q 241 -85 249 -82 q 219 -77 221 -85 l 222 -74 l 224 -74 l 238 -79 l 238 -71 l 235 -68 l 235 -66 l 238 -63 l 243 -63 m 325 -63 l 336 -63 l 336 -68 l 325 -68 l 325 -63 m -134 -66 l -131 -68 l -131 -71 l -134 -74 l -136 -74 l -139 -71 l -139 -68 l -136 -66 l -134 -66 m -109 -66 l -106 -68 l -104 -68 l -96 -66 l -93 -68 l -93 -74 l -109 -74 l -115 -68 l -112 -66 l -109 -66 m 59 -68 l 59 -74 l 83 -74 l 83 -68 l 59 -68 m 262 -66 l 262 -68 l 257 -74 l 254 -71 l 254 -68 l 257 -66 l 262 -66 m -77 -68 l -55 -68 l -60 -74 l -77 -74 l -77 -68 m 157 -90 l 157 -96 l 165 -96 l 165 -90 l 157 -90 m 154 -101 l 154 -106 l 159 -117 l 165 -117 l 165 -109 l 157 -101 l 154 -101 m 119 -106 l 119 -115 l 124 -115 l 124 -106 l 119 -106 m 143 -128 l 143 -134 l 151 -134 l 151 -128 l 143 -128 z "},"\"":{"ha":283,"x_min":-159,"x_max":557,"o":"m 157 696 l 160 694 l 160 691 l 157 688 l 155 688 l 152 691 l 152 694 l 155 696 l 157 696 m 79 694 l 84 694 q 136 642 136 687 q 109 444 136 587 l 103 444 q 35 561 103 454 l 11 629 l 0 642 l 0 667 q 79 694 20 694 m 358 656 l 361 653 l 361 650 l 358 648 l 355 648 l 353 650 l 353 653 l 355 656 l 358 656 m 109 645 l 109 642 l 117 642 l 117 650 l 114 650 l 109 645 m -154 600 l -135 589 l -127 589 l -113 592 l -113 589 l -111 592 l -102 589 l -70 595 l -67 592 l -54 595 l -45 595 q -29 587 -29 593 l 3 589 l 25 589 l 25 584 l 22 584 l -48 578 l -51 587 l -59 587 q -78 581 -65 581 l -78 578 l -64 578 l -64 573 l -73 573 q -94 581 -92 573 l -92 584 l -102 584 q -108 576 -102 576 l -119 578 l -113 562 l -116 559 l -119 559 q -130 578 -123 578 l -132 576 l -135 576 l -135 578 l -132 581 l -132 584 l -138 584 l -151 581 l -146 589 q -159 595 -159 589 l -154 600 m 27 634 l 22 623 l 24 615 l 33 615 l 33 634 l 27 634 m 38 631 l 38 623 l 41 623 l 43 626 l 46 623 l 52 623 l 52 629 l 38 631 m 247 623 l 252 615 l 250 612 l 247 612 l 241 621 l 244 623 l 247 623 m 30 612 l 27 599 l 27 596 l 35 596 l 35 612 l 30 612 m 300 693 l 302 690 l 302 688 l 300 685 l 297 685 l 294 688 l 294 690 l 297 693 l 300 693 m 221 690 l 227 690 q 278 639 278 684 q 251 441 278 583 l 245 441 q 178 557 245 450 l 153 625 l 142 639 l 142 663 q 221 690 163 690 m 500 652 l 503 650 l 503 647 l 500 644 l 498 644 l 495 647 l 495 650 l 498 652 l 500 652 m 251 642 l 251 639 l 259 639 l 259 647 l 256 647 l 251 642 m 378 644 l 397 633 l 406 633 l 419 636 l 419 633 l 422 636 l 430 633 l 463 639 l 465 636 l 479 639 l 487 639 q 503 631 503 637 l 536 633 l 557 633 l 557 628 l 555 628 l 484 623 l 481 631 l 473 631 q 454 625 467 625 l 454 623 l 468 623 l 468 617 l 460 617 q 438 625 440 617 l 441 628 l 430 628 q 425 620 430 620 l 414 623 l 419 606 l 416 604 l 414 604 q 403 623 409 623 l 400 620 l 397 620 l 397 623 l 400 625 l 400 628 l 395 628 l 381 625 l 387 633 q 373 639 373 633 l 378 644 m 170 631 l 164 620 l 167 612 l 175 612 l 175 631 l 170 631 m 180 628 l 180 620 l 183 620 l 186 623 l 189 620 l 194 620 l 194 625 l 180 628 m 389 620 l 395 612 l 392 609 l 389 609 l 384 617 l 387 620 l 389 620 m 172 609 l 170 595 l 170 593 l 178 593 l 178 609 l 172 609 z "},"#":{"ha":772,"x_min":0,"x_max":0,"o":""},"$":{"ha":534,"x_min":-156,"x_max":667,"o":"m 519 978 q 533 970 533 975 l 530 967 l 528 967 q 517 975 517 971 l 519 978 m 552 970 l 582 962 l 628 964 l 628 959 l 612 959 l 606 954 l 655 954 l 655 948 l 633 948 q 571 940 587 948 l 514 943 l 514 948 l 574 951 l 574 954 q 552 967 552 962 l 552 970 m 369 921 l 375 921 l 375 912 l 369 912 l 369 921 m 416 854 l 418 851 l 418 848 l 416 845 l 413 845 l 410 848 l 410 851 l 413 854 l 416 854 m 299 845 q 319 673 319 778 l 334 673 q 395 647 395 661 l 427 641 l 433 647 l 451 635 l 448 626 l 456 626 l 456 632 l 460 632 q 506 591 485 632 q 524 565 524 572 q 465 431 524 441 q 445 425 465 425 l 433 425 q 360 492 385 425 l 360 507 q 398 556 360 547 l 407 556 q 439 518 427 556 l 436 515 l 433 515 l 416 533 l 410 533 q 395 504 395 526 q 436 466 395 473 l 439 466 q 489 507 489 466 q 416 594 489 545 q 360 621 382 605 l 314 621 l 314 606 q 328 583 314 592 l 349 597 l 351 594 l 351 580 q 328 565 344 565 l 322 565 q 293 583 311 565 q 264 571 293 574 l 247 571 q 229 580 231 571 q 270 609 270 588 q 189 524 189 581 q 261 404 189 469 q 340 355 270 404 l 416 320 q 425 311 416 311 l 427 314 l 431 314 q 498 250 481 285 q 532 153 518 213 l 535 151 l 535 121 q 465 -39 535 18 l 401 -74 q 322 -94 322 -85 q 296 -184 308 -159 l 293 -184 q 276 -103 285 -184 q 212 -88 276 -88 q 68 16 109 -57 q -1 139 -1 99 l -1 168 q 45 229 23 212 l 92 238 q 182 195 182 225 l 185 186 l 185 174 q 121 119 185 130 l 113 119 q 66 168 66 119 q 113 200 77 200 q 127 189 125 195 l 127 186 l 121 180 l 106 189 q 83 171 87 180 q 115 148 83 148 l 118 148 q 153 180 153 153 q 89 209 143 209 q 51 174 61 209 q 174 2 68 111 q 229 -27 182 2 l 264 -30 l 264 -18 q 241 14 264 2 l 235 5 l 235 2 l 238 -1 l 238 -4 l 235 -7 l 232 -7 l 226 -1 l 226 16 q 256 45 232 45 q 285 28 271 45 q 311 43 300 43 l 317 43 q 349 11 349 43 l 349 7 q 328 -7 340 -7 l 326 -4 l 326 -1 l 331 7 l 331 14 l 322 22 q 305 2 305 18 l 305 -7 q 317 -33 305 -18 q 404 45 404 -1 q 410 75 410 45 l 410 81 q 326 220 410 165 q 247 279 313 246 l 162 334 l 89 329 l 80 329 l 72 334 l -47 326 l -47 323 l 16 323 l 16 317 l -60 317 q -109 326 -69 326 l -123 326 l -130 332 l -150 329 l -156 329 l -156 334 l -103 337 l -103 340 l -109 340 l -109 346 l -85 346 l -77 340 l -9 340 l 1 337 q 77 358 45 344 l 80 358 l 115 355 q 68 471 68 408 q 83 536 83 492 q 92 562 90 536 l 92 580 q 109 591 97 591 l 109 594 l 104 603 q 212 664 175 664 l 241 664 q 264 673 248 673 l 264 720 l 285 822 q 293 845 290 822 l 299 845 m 101 798 l 104 795 l 104 793 l 101 789 l 98 789 l 95 793 l 95 795 l 98 798 l 101 798 m 136 760 l 136 758 l 130 751 l 127 755 l 127 758 l 130 760 l 136 760 m 19 746 l 19 743 l 13 737 l 7 743 l 10 746 l 19 746 m 151 746 l 153 743 l 153 737 l 151 737 l 144 743 l 147 746 l 151 746 m 95 667 l 98 664 l 98 661 l 95 659 l 92 659 l 89 661 l 89 664 l 92 667 l 95 667 m -9 632 l -7 629 l -7 626 l -9 623 l -13 623 l -16 626 l -16 629 l -13 632 l -9 632 m 500 500 l 500 498 l 509 498 l 509 507 l 506 507 l 500 500 m 133 484 l 133 475 l 138 475 l 138 484 l 133 484 m 118 454 l 118 448 l 127 448 l 127 454 l 118 454 m 427 442 l 427 433 l 431 433 q 436 442 436 433 l 442 442 l 451 437 l 465 439 l 465 446 l 454 442 l 442 446 l 427 442 m 136 399 l 136 395 l 153 395 l 153 399 l 136 399 m 492 387 l 494 384 l 494 381 l 492 378 l 489 378 l 486 381 l 486 384 l 489 387 l 492 387 m 480 372 l 489 370 l 489 363 l 486 363 l 477 366 l 422 361 l 422 366 l 425 366 l 480 372 m 238 361 l 238 355 l 256 355 l 256 358 l 241 361 l 238 361 m 273 358 l 273 355 l 288 355 l 288 361 l 273 358 m 182 355 l 182 349 l 191 349 l 191 355 l 182 355 m 104 343 l 138 343 l 138 346 l 118 349 l 109 349 l 104 343 m 532 349 l 535 346 l 535 343 l 532 340 l 530 340 l 527 343 l 527 346 l 530 349 l 532 349 m 28 329 l 39 329 l 39 323 l 34 323 l 28 329 m 60 320 l 66 320 l 72 314 l 66 308 l 60 317 l 60 320 m -71 151 l -68 148 l -68 144 l -71 142 l -74 142 l -77 144 l -77 148 l -74 151 l -71 151 m 664 127 l 667 127 l 667 121 l 661 115 l 658 119 l 658 121 l 664 127 m 477 22 l 477 16 l 474 16 l 471 19 l 469 19 l 465 16 l 465 11 l 469 11 l 480 19 l 480 22 l 477 22 m 407 -41 l 407 -47 l 416 -47 l 416 -41 l 407 -41 m 337 -62 l 337 -65 l 351 -68 l 366 -65 l 366 -59 l 337 -62 m 264 -68 l 264 -74 l 267 -74 l 285 -68 l 285 -65 l 281 -65 l 264 -68 m 293 -65 l 293 -71 l 314 -71 l 314 -68 l 293 -65 m 182 -109 l 189 -109 l 197 -117 l 194 -121 l 191 -121 l 182 -112 l 182 -109 m 220 -146 l 223 -150 l 223 -153 l 220 -155 l 218 -155 l 214 -153 l 214 -150 l 218 -146 l 220 -146 m 398 -146 l 401 -150 l 401 -153 l 398 -155 l 395 -155 l 393 -153 l 393 -150 l 395 -146 l 398 -146 m 380 -188 l 384 -191 l 384 -193 l 380 -197 l 378 -197 l 375 -193 l 375 -191 l 378 -188 l 380 -188 z "},"%":{"ha":595,"x_min":-203,"x_max":591,"o":"m -82 809 l -79 806 l -79 803 l -82 800 l -85 800 l -88 803 l -88 806 l -85 809 l -82 809 m 95 789 l 98 785 l 98 783 l 92 777 l 89 779 l 89 783 l 95 789 m 401 706 l 473 694 l 475 694 l 488 697 l 514 691 l 511 688 l 511 682 l 517 682 l 517 688 l 520 688 q 552 659 552 688 l 558 647 q 464 496 558 621 q 319 292 358 337 q 275 239 319 271 q 124 3 275 220 q 118 -17 119 3 q 174 -61 145 -61 q 237 -20 237 -55 l 237 -14 q 224 3 229 3 l 207 3 q 186 -8 191 3 l 186 -11 l 198 -23 l 219 -17 l 222 -20 l 222 -23 q 198 -35 209 -35 l 183 -35 q 154 -14 164 -35 l 154 -5 q 228 36 154 30 l 231 36 q 272 -5 272 28 l 272 -20 q 165 -88 272 -79 l 95 -88 q 68 -82 89 -82 q 30 -58 64 -69 l 15 -43 l 15 -41 q 65 45 29 5 q 228 290 94 102 q 310 393 300 362 q 316 405 316 393 l 325 414 l 322 429 l 322 440 l 328 440 l 328 425 l 334 425 q 416 564 334 443 q 437 588 416 571 l 425 588 l 425 593 l 443 593 l 452 635 q 384 682 452 662 q 334 661 345 682 l 334 652 q 366 632 349 632 l 372 632 l 393 638 l 393 647 q 370 661 385 661 l 363 661 l 357 656 l 372 644 l 370 641 l 366 641 q 346 652 346 648 l 346 661 q 372 676 353 676 q 422 644 413 676 l 422 632 q 390 614 413 614 l 357 614 q 304 641 331 614 l 290 641 l 290 647 l 304 647 l 304 656 q 396 706 317 706 l 401 706 m 124 700 q 192 685 176 700 q 237 647 201 685 l 239 644 l 242 644 l 245 647 l 248 644 l 248 641 l 245 638 l 242 638 l 251 614 l 251 600 l 272 600 q 278 608 272 608 l 290 608 l 290 602 l 283 602 l 283 600 l 298 600 l 298 606 l 301 606 l 310 600 l 316 606 l 319 606 l 328 600 l 331 600 l 372 606 q 384 597 372 597 l 390 591 l 393 593 l 410 593 l 416 588 l 414 585 l 405 585 l 372 588 l 355 582 l 342 582 l 337 588 l 357 588 l 357 591 l 342 591 l 325 588 l 325 591 l 322 588 l 313 588 l 304 593 l 263 593 l 257 588 l 257 582 q 224 414 257 436 q 148 381 175 381 l 115 381 q 18 460 47 381 l 3 579 q 109 700 3 661 l 124 700 m 115 667 q 65 623 90 652 l 68 611 l 62 505 q 113 416 62 452 l 139 416 q 207 532 197 416 l 207 558 l 201 582 l 178 582 l 168 588 l 157 588 q 151 579 157 579 l 100 579 q 80 588 92 588 l 80 593 l 100 593 l 115 597 l 133 593 l 136 593 q 163 608 154 593 l 159 611 l 159 614 q 168 620 159 620 l 168 623 l 165 626 l 165 629 l 168 632 l 172 632 l 174 623 l 172 620 l 172 617 l 174 608 l 172 608 l 163 600 l 168 593 l 174 593 l 201 600 l 201 611 l 192 606 l 189 606 l 183 611 l 201 617 l 201 626 q 148 665 163 665 l 115 667 m 245 659 l 254 659 l 254 652 l 245 652 l 245 659 m 266 650 l 278 647 l 281 650 l 283 647 l 283 644 l 266 635 l 254 641 l 254 647 l 266 650 m 186 591 l 186 588 l 201 588 l 201 591 l 186 591 m 104 588 l 104 585 l 133 585 l 133 588 l 104 588 m -35 585 l -32 582 l -32 579 l -56 570 l -82 570 l -82 576 l -71 582 l -50 582 l -35 585 m 275 579 l 283 564 l 283 558 l 281 558 q 269 576 269 564 l 272 579 l 275 579 m -141 576 l -141 573 l -147 567 l -168 567 l -189 564 l -191 567 l -191 570 l -189 573 l -162 573 l -141 576 m 136 573 l 145 573 l 145 567 l 136 567 l 136 573 m 30 555 l 30 547 l 36 547 l 36 555 l 30 555 m 316 552 l 322 552 l 322 532 q 331 493 331 521 l 328 493 l 325 496 l 322 496 l 322 493 l 325 464 q 319 449 319 464 l 316 446 l 313 446 l 310 449 l 310 488 l 322 511 l 322 520 l 316 529 l 316 552 m 151 547 l 159 543 l 159 538 l 154 538 l 148 543 l 151 547 m 33 541 l 33 532 l 39 532 l 39 541 l 33 541 m 296 534 l 298 532 l 298 529 l 296 526 l 292 526 l 290 529 l 290 532 l 292 534 l 296 534 m 455 517 l 455 508 l 460 508 l 460 517 l 455 517 m 408 473 l 408 464 l 414 464 l 414 473 l 408 473 m 490 239 l 493 237 l 493 233 l 490 231 l 488 231 l 484 233 l 484 237 l 488 239 l 490 239 m -203 237 l -185 237 l -185 231 l -203 231 l -203 237 m 475 231 q 502 222 475 224 q 576 148 549 195 l 591 77 l 591 74 q 547 -56 591 12 q 446 -88 510 -88 q 351 -20 351 -58 q 340 21 340 1 l 342 98 l 337 104 l 342 110 l 328 110 l 310 104 l 307 106 l 307 110 l 287 101 l 278 101 l 269 110 l 272 113 l 281 113 l 283 110 l 287 110 l 287 121 l 292 121 l 292 115 l 342 115 q 366 183 351 183 q 446 228 418 228 l 475 231 m -85 224 l -85 222 l -91 216 l -109 216 l -109 222 l -85 224 m 106 219 l 121 219 l 121 213 l 106 213 l 106 219 m 384 113 l 399 110 l 401 113 l 414 113 l 414 106 l 399 104 l 384 104 l 384 86 l 390 77 l 390 71 q 434 -52 390 -20 l 460 -52 q 529 41 529 -40 l 529 71 q 473 195 522 195 l 455 195 q 390 133 390 170 q 384 113 386 133 m 375 178 q 357 157 375 171 l 355 145 l 360 139 l 366 139 l 370 151 l 366 154 q 384 178 384 165 l 375 178 m 301 136 l 313 136 l 313 130 l 301 130 l 301 136 m 231 113 l 245 110 l 245 104 l 222 104 l 222 110 l 231 113 m 68 3 l 68 1 l 74 1 l 86 6 l 86 15 l 83 15 q 68 3 69 9 z "},"&":{"ha":724,"x_min":-24,"x_max":924,"o":"m 268 722 q 321 673 302 705 l 330 651 l 321 644 l 321 640 l 334 640 l 336 629 l 336 602 q 216 427 336 538 q 279 342 264 368 q 401 215 377 233 q 442 176 431 176 l 488 178 l 488 180 l 469 180 l 469 185 l 486 187 l 492 180 l 494 187 l 522 183 q 542 248 536 183 l 542 262 q 529 321 542 281 q 513 377 529 342 q 427 459 510 406 q 380 470 427 468 l 332 470 q 317 435 320 470 q 404 345 343 345 l 412 345 q 453 366 439 345 l 455 366 l 455 383 q 401 439 455 405 l 382 444 l 378 444 q 363 429 364 437 q 425 381 363 412 l 431 381 l 431 383 l 423 394 l 425 397 l 429 397 l 445 381 l 445 366 l 440 362 l 427 362 q 352 427 352 388 l 352 441 q 367 461 352 453 l 387 461 q 455 425 437 451 l 479 386 l 479 362 q 458 323 471 323 q 416 304 433 304 q 317 349 384 304 q 281 405 281 393 q 321 487 281 464 q 347 500 330 487 l 389 505 q 503 457 434 500 q 578 308 561 394 l 581 256 q 572 185 581 231 l 574 185 l 593 183 l 613 183 l 626 189 l 628 187 l 628 185 l 626 183 q 656 172 656 176 l 656 170 l 665 170 l 667 180 l 665 180 l 635 185 l 635 189 q 738 174 692 185 l 755 176 l 760 172 q 779 180 771 180 l 790 178 l 792 180 q 803 172 796 172 l 803 168 l 768 168 l 745 170 l 743 170 l 743 168 q 755 163 755 168 l 758 165 l 760 165 l 764 161 l 762 159 l 760 159 q 736 165 745 159 l 730 165 l 723 161 l 719 161 l 701 165 l 656 165 q 652 172 652 165 l 648 172 l 641 168 l 619 168 l 617 170 l 615 170 l 611 165 l 597 165 l 574 170 l 566 170 q 537 101 566 162 q 578 60 566 82 q 654 -3 596 35 q 725 -54 725 -31 q 701 -93 725 -85 l 682 -98 l 680 -98 q 635 -80 644 -98 q 648 -50 635 -55 l 650 -50 l 654 -54 l 650 -58 l 650 -69 l 667 -74 q 690 -60 690 -67 l 690 -58 q 656 -35 690 -39 l 654 -35 l 652 -37 q 566 -7 566 -25 l 481 34 l 477 34 q 376 -47 406 -34 q 309 -67 360 -58 q 149 -47 203 -67 q 75 -9 97 -35 q 43 25 62 -9 q 0 138 0 47 l 0 142 q 20 204 0 184 l 56 278 q 86 334 77 323 q 130 390 94 356 l 136 399 l 136 401 q 86 526 102 436 q 78 563 78 543 q 130 684 78 614 q 205 720 161 720 l 268 722 m 416 696 l 418 696 q 412 684 418 685 l 410 684 l 410 690 l 416 696 m 146 589 q 199 454 146 511 q 270 576 270 524 l 268 629 l 246 655 q 239 666 243 666 q 235 660 235 666 l 233 660 q 214 666 225 666 l 210 666 q 146 608 146 658 l 146 589 m 26 649 l 28 647 l 28 644 l 26 642 l 24 642 l 22 644 l 22 647 l 24 649 l 26 649 m 127 584 q 108 573 120 573 l 108 569 l 123 569 l 123 571 l 121 573 l 121 576 l 136 578 l 136 582 l 127 584 m -24 580 l -21 580 l -15 573 l -15 569 l -19 569 l -24 578 l -24 580 m 578 563 l 583 563 l 583 556 l 578 552 l 576 554 l 576 556 l 578 563 m 628 494 l 630 492 l 630 483 l 626 483 l 624 492 l 626 494 l 628 494 m 84 429 l 88 425 l 86 422 l 82 422 l 78 427 l 80 429 l 84 429 m 706 381 l 710 375 l 708 373 l 706 373 l 701 377 l 706 381 m 93 239 l 93 235 q 309 23 93 23 l 321 23 q 449 73 403 23 q 389 118 393 118 q 332 170 376 134 l 319 168 q 279 176 296 176 q 274 170 279 170 l 255 170 l 252 172 q 201 165 248 168 l 183 172 l 177 172 l 140 170 l 138 172 l 138 174 l 140 176 l 142 174 l 149 174 l 153 178 l 162 176 q 220 183 190 176 l 218 185 l 218 187 l 220 189 l 222 189 l 227 183 l 235 185 l 255 176 l 257 176 l 257 180 q 248 185 248 180 l 248 187 l 250 187 q 263 178 263 187 l 283 183 l 274 194 l 276 196 l 279 196 q 321 187 279 189 q 263 248 296 223 l 263 243 l 231 278 l 233 280 q 179 345 179 339 q 157 370 157 363 q 93 239 93 290 m 602 286 l 606 282 l 604 280 l 602 280 l 597 284 l 600 286 l 602 286 m 265 269 l 265 265 l 268 265 q 276 273 268 273 l 272 278 q 265 269 269 278 m 216 233 l 220 228 l 220 226 l 216 226 l 212 231 l 214 233 l 216 233 m 460 228 l 473 228 l 473 224 l 460 224 l 460 228 m 431 226 l 434 224 l 434 222 l 429 218 l 427 220 l 427 222 l 431 226 m 332 213 q 339 200 334 200 l 343 200 l 343 202 l 334 213 l 332 213 m 473 215 l 481 215 l 486 211 l 479 209 l 473 211 l 473 215 m 302 185 l 302 178 l 313 180 l 309 185 l 302 185 m 669 176 l 669 174 l 677 174 l 682 178 l 693 176 l 699 176 l 699 178 l 684 180 l 677 180 l 669 176 m 583 178 l 583 176 l 597 174 l 597 178 l 583 178 m 112 178 l 132 176 l 134 178 l 136 176 l 136 174 l 134 172 l 112 172 l 108 176 l 110 178 l 112 178 m 311 176 l 311 174 l 330 174 l 330 176 l 311 176 m 481 174 l 481 172 l 492 172 l 492 168 l 490 168 l 447 172 q 473 155 447 166 l 475 157 l 475 155 l 473 153 l 473 151 l 498 131 l 500 131 l 522 172 l 520 172 l 507 176 l 481 174 m 902 178 l 922 176 l 924 176 l 924 172 l 880 170 l 878 170 l 880 168 l 880 163 l 878 163 l 874 168 l 854 161 l 846 161 l 842 165 l 850 165 l 850 168 l 842 170 l 842 165 l 838 165 l 827 174 l 827 176 l 842 174 l 867 176 l 898 174 l 902 178 m 212 174 l 212 172 l 239 172 l 239 174 l 212 174 m 621 174 l 621 172 l 637 172 l 637 174 l 621 174 m 706 172 l 706 170 l 723 170 l 723 172 l 714 174 l 706 172 m 365 172 l 365 168 l 369 159 l 378 159 l 378 161 l 367 172 l 365 172 m 682 172 l 682 170 l 699 170 l 699 172 l 682 172 m 814 172 l 825 163 l 822 161 l 820 161 l 814 165 l 807 159 l 805 159 l 805 163 l 814 172 m 475 165 l 477 165 l 486 161 l 486 157 l 484 157 q 475 163 475 160 l 475 165 m 168 161 l 170 159 l 170 157 l 168 155 l 166 155 l 164 157 l 164 159 l 166 161 l 168 161 m 481 155 l 486 155 l 490 151 l 488 149 l 486 149 l 481 153 l 481 155 m 300 153 l 307 153 l 307 149 l 300 149 l 300 153 m 389 151 l 389 146 l 395 146 l 395 151 l 389 151 m 205 146 l 216 144 l 216 140 l 207 140 l 203 144 l 205 146 m 447 129 l 447 127 l 451 123 l 453 123 l 453 129 l 447 129 m 294 120 l 296 120 l 300 116 l 298 114 l 296 114 l 294 116 l 294 120 m 630 112 l 632 109 l 632 103 l 628 103 l 626 109 l 628 112 l 630 112 m 479 103 l 479 99 l 484 90 l 492 90 l 492 92 l 481 103 l 479 103 m 699 103 l 706 94 l 703 92 l 701 92 l 695 99 l 699 103 m 648 92 l 650 90 l 650 88 l 648 85 l 645 85 l 643 88 l 643 90 l 645 92 l 648 92 m 488 77 l 488 71 l 492 71 l 492 77 l 488 77 m 814 66 l 814 62 l 798 58 l 796 60 l 796 62 l 814 66 m 132 4 l 132 -3 l 142 -5 l 144 -5 l 144 0 l 132 4 m 175 -7 l 175 -13 l 179 -13 l 179 -7 l 175 -7 z "},"'":{"ha":140,"x_min":-3,"x_max":412,"o":"m 154 724 l 157 721 l 157 718 l 154 715 l 151 715 l 149 718 l 149 721 l 151 724 l 154 724 m 75 721 l 81 721 q 132 669 132 714 q 105 471 132 614 l 100 471 q 32 588 100 481 l 7 656 l -3 669 l -3 694 q 75 721 17 721 m 355 683 l 357 680 l 357 677 l 355 675 l 352 675 l 349 677 l 349 680 l 352 683 l 355 683 m 105 672 l 105 669 l 113 669 l 113 677 l 111 677 l 105 672 m 233 675 l 252 664 l 260 664 l 273 667 l 273 664 l 276 667 l 284 664 l 317 669 l 319 667 l 333 669 l 341 669 q 357 661 357 668 l 390 664 l 412 664 l 412 659 l 409 659 l 338 653 l 336 661 l 328 661 q 309 656 321 656 l 309 653 l 322 653 l 322 648 l 314 648 q 292 656 294 648 l 295 659 l 284 659 q 279 650 284 650 l 268 653 l 273 637 l 271 634 l 268 634 q 257 653 263 653 l 254 650 l 252 650 l 252 653 l 254 656 l 254 659 l 249 659 l 235 656 l 241 664 q 227 669 227 664 l 233 675 m 24 661 l 18 650 l 21 642 l 29 642 l 29 661 l 24 661 m 35 659 l 35 650 l 37 650 l 40 653 l 43 650 l 48 650 l 48 656 l 35 659 m 243 650 l 249 642 l 246 640 l 243 640 l 238 648 l 241 650 l 243 650 m 26 640 l 24 626 l 24 623 l 32 623 l 32 640 l 26 640 z "},"(":{"ha":290,"x_min":-71,"x_max":290,"o":"m 189 773 l 192 773 l 192 770 l 154 713 q 124 597 154 690 q 113 450 113 553 l 116 412 l 111 363 l 135 87 l 135 73 q 162 -3 140 40 q 290 -79 220 -56 l 290 -81 l 287 -84 q 143 -24 229 -77 q 108 19 143 -18 q 81 57 100 43 q 2 358 2 198 l 2 404 q 13 450 2 423 q 7 458 7 450 q 48 594 26 550 q 111 686 57 621 q 168 754 115 686 l 189 773 m 59 651 l 64 651 l 64 640 l 59 640 l 59 651 m -14 621 l -12 618 l -12 616 l -14 613 l -17 613 l -20 616 l -20 618 l -17 621 l -14 621 m -41 589 l -39 586 l -39 583 l -50 578 l -52 581 l -52 583 l -41 589 m 10 589 l 18 583 l 24 583 l 26 586 l 29 586 l 32 583 l 32 578 l 26 572 q 13 578 13 572 l 10 575 l 2 575 l -6 583 l -3 586 l -1 586 l 5 581 l 7 581 l 5 583 l 5 586 l 7 589 l 10 589 m -14 583 l -12 581 l -12 578 l -17 572 l -22 578 l -14 583 m -63 578 l -58 572 l -50 575 l -47 572 l -47 570 l -50 567 l -66 567 l -71 572 l -63 578 m 56 410 l 56 401 l 62 401 l 62 410 l 56 410 m 59 361 l 59 350 l 64 350 l 64 361 l 59 361 m 67 331 l 67 328 l 73 323 l 75 323 l 75 331 l 67 331 m 211 328 l 211 326 l 205 320 l 203 323 l 203 326 l 205 328 l 211 328 m 73 320 l 73 309 l 78 309 l 78 320 l 73 320 m 56 304 l 56 298 l 64 298 l 64 304 l 56 304 m 97 65 l 97 62 l 100 54 l 105 54 l 102 65 l 97 65 m 29 41 l 32 38 l 32 35 l 29 33 l 26 33 l 24 35 l 24 38 l 26 41 l 29 41 m 54 35 l 56 33 l 56 27 l 54 27 l 48 33 l 51 35 l 54 35 m 203 -60 l 222 -90 l 222 -95 l 219 -95 l 197 -65 l 203 -60 z "},")":{"ha":252,"x_min":-319,"x_max":283,"o":"m 61 741 q 161 621 124 696 q 213 469 189 574 l 243 385 l 243 377 l 240 285 q 248 260 247 285 q 189 33 248 165 q 134 -24 173 3 l 126 -22 q 91 -60 117 -46 q 26 -79 86 -67 l 26 -76 q 56 -54 32 -54 q 94 -19 94 -46 q 132 138 110 -1 l 118 141 l 102 141 l -12 146 l -12 152 q 18 157 18 153 q 50 165 18 165 l 50 168 l 7 174 l 7 179 l 47 176 l 50 176 l 56 171 l 72 176 l 94 176 l 107 165 l 134 165 l 134 220 q 142 266 134 257 l 142 288 l 148 309 l 148 412 q 140 472 148 446 l 140 505 q 132 524 140 513 l 137 534 l 132 551 l 137 556 l 137 564 l 123 602 q 113 621 117 602 q 72 719 104 621 q 61 741 68 720 m 243 711 l 259 703 l 259 711 l 264 711 l 270 694 l 267 684 q 283 662 277 684 l 281 662 l 251 692 l 243 684 l 237 684 l 232 689 l 237 694 l 240 692 l 243 692 l 245 703 l 240 708 l 243 711 m 115 591 l 121 591 l 123 578 l 118 578 l 115 591 m -34 553 l -28 548 l -31 545 l -34 545 l -39 551 l -37 553 l -34 553 m 156 426 l 156 418 l 161 418 l 161 426 l 156 426 m -83 369 l -75 366 l -75 361 l -83 361 l -88 366 l -85 369 l -83 369 m -151 198 l -140 198 l -140 195 l -145 190 l -151 195 l -151 198 m 107 187 l 115 187 l 121 182 l 118 179 l 113 179 l 107 184 l 107 187 m -115 171 l -110 171 l -110 165 l -102 171 l -85 171 l -85 165 l -94 165 l -94 157 l -66 160 l -56 160 l -56 155 l -58 155 l -99 152 l -99 155 l -102 152 l -123 152 l -123 146 l -121 146 l -96 149 l -96 144 l -115 141 l -123 141 q -170 160 -132 155 l -178 160 l -178 165 l -151 165 l -142 160 l -134 165 l -129 160 q -115 165 -129 165 l -115 171 m 56 165 l 56 163 l 66 160 l 66 165 l 56 165 m -286 165 l -286 163 l -278 165 l -229 160 l -191 165 l -186 155 l -164 155 l -164 149 l -186 149 l -186 146 l -178 146 l -178 141 l -191 141 q -197 152 -197 141 l -205 152 q -243 144 -222 152 l -245 146 l -245 149 l -237 152 l -237 155 l -270 155 l -278 160 l -281 160 l -286 155 l -302 157 l -302 163 l -286 165 m -319 163 l -311 163 l -311 157 l -319 157 l -319 163 m 39 160 l 50 149 l 80 149 l 94 152 l 99 146 l 102 146 l 102 152 q 72 160 78 155 q 66 152 72 152 l 64 152 l 53 160 l 39 160 m 121 160 l 121 157 l 132 157 l 132 160 l 121 160 m 23 152 l 37 149 l 42 149 l 42 152 q 31 157 31 152 l 28 157 l 23 152 m 107 152 l 107 149 l 132 149 l 132 152 l 107 152 m -58 146 l -45 146 l -45 141 l -58 141 l -58 146 m -37 146 l -34 146 l -28 141 l -37 141 l -37 146 m 47 141 l 50 138 l 50 136 l 47 133 l 31 133 l 31 138 l 47 141 m 94 103 l 94 98 l 80 95 l 77 98 l 77 100 l 80 103 l 94 103 m 18 92 l 20 90 l 20 87 l 18 84 l 15 84 l 12 87 l 12 90 l 15 92 l 18 92 m 164 60 l 164 52 l 170 52 l 170 60 l 164 60 m -140 16 l -132 16 l -132 11 l -140 11 l -140 16 m -175 -16 l -170 -22 l -172 -24 l -175 -24 l -180 -19 l -178 -16 l -175 -16 m 53 -33 l 56 -35 l 56 -38 l 53 -41 l 50 -41 l 47 -38 l 47 -35 l 50 -33 l 53 -33 m 20 -81 l 20 -84 l 18 -109 l 39 -127 q 61 -106 61 -127 l 47 -100 l 42 -106 l 39 -103 l 39 -100 l 50 -92 l 61 -92 l 69 -100 l 69 -114 q 39 -138 69 -138 q 7 -119 7 -128 l 7 -114 q 20 -81 12 -81 m 186 -106 l 189 -109 l 189 -111 l 186 -114 l 183 -114 l 180 -111 l 180 -109 l 183 -106 l 186 -106 m 159 -138 l 161 -141 l 161 -144 l 156 -149 l 153 -146 l 153 -144 l 159 -138 z "},"*":{"ha":541,"x_min":0,"x_max":0,"o":""},"+":{"ha":510,"x_min":-10,"x_max":505,"o":"m 251 626 l 258 626 l 258 618 l 251 610 l 248 610 l 248 614 l 251 626 m 59 587 l 63 584 l 63 580 l 59 576 l 55 576 l 52 580 l 52 584 l 55 587 l 59 587 m 258 584 l 262 580 l 262 576 l 258 572 l 255 572 l 251 576 l 251 580 l 255 584 l 258 584 m 336 576 l 343 564 l 336 557 l 328 568 l 336 576 m 443 561 l 451 561 l 470 541 l 463 534 q 443 553 456 553 l 443 561 m 316 549 l 336 549 q 397 480 397 526 l 389 480 q 332 522 380 522 q 251 403 251 498 l 251 342 q 286 288 251 288 l 397 284 q 458 307 458 293 l 458 326 q 424 361 454 361 l 412 361 l 401 349 l 405 338 l 420 338 l 420 342 l 416 345 l 416 349 l 420 353 l 424 353 l 431 345 l 431 342 l 420 330 l 405 330 q 382 361 382 345 q 401 376 382 376 l 397 380 l 397 384 l 401 388 l 408 388 q 463 376 416 380 q 505 319 505 351 l 505 311 q 489 269 505 284 q 505 215 505 248 l 505 203 q 435 138 505 149 l 431 138 l 431 146 q 470 180 470 153 q 439 211 466 211 q 397 238 416 238 l 382 238 l 370 230 l 301 230 q 251 195 251 230 l 251 165 q 278 153 267 165 l 286 153 l 278 165 l 281 169 l 286 169 q 328 157 286 161 l 332 153 l 362 153 l 362 146 l 313 146 l 290 142 l 248 157 l 248 153 q 278 45 254 45 l 297 45 q 355 73 326 45 l 355 65 q 258 11 329 11 l 255 11 q 228 19 228 11 l 170 7 q 47 61 100 7 l 47 65 l 52 65 q 109 38 81 38 l 117 38 q 193 103 193 38 l 193 192 q 147 230 193 230 l 117 234 l 52 230 l 43 238 l 24 218 l 24 215 q 59 172 24 172 l 63 172 l 78 184 q 63 203 71 201 l 55 203 l 55 188 l 52 188 l 43 195 l 43 203 l 59 218 q 94 195 80 218 q 59 157 88 157 l 47 157 q -10 203 -10 165 l -10 227 q 13 273 -10 241 l -2 311 l -2 330 q 59 380 -2 363 l 63 380 l 63 372 q 28 334 33 372 q 78 288 28 288 l 151 288 q 193 334 193 288 l 193 411 q 109 499 193 478 l 75 499 q 40 484 40 494 l 32 484 l 32 488 q 101 538 45 517 l 136 538 q 209 495 157 538 q 316 549 248 549 m 213 449 l 213 446 l 220 437 l 224 437 l 224 441 l 216 449 l 213 449 m 397 403 l 401 399 l 401 395 l 397 391 l 389 391 l 389 395 l 397 403 m 151 334 l 159 334 l 159 322 l 151 322 l 151 334 m 374 157 l 412 153 l 412 146 l 393 146 l 374 149 l 374 157 m 228 134 l 228 123 l 224 103 l 236 103 l 236 134 l 228 134 m 320 119 l 328 111 l 320 103 l 313 115 l 316 119 l 320 119 m 301 111 l 313 111 l 313 107 l 304 100 l 301 103 l 301 111 m 213 73 l 213 68 l 232 73 l 232 84 l 228 84 l 213 73 m 397 15 l 401 11 l 401 7 l 397 3 l 393 3 l 389 7 l 389 11 l 393 15 l 397 15 z "},",":{"ha":147,"x_min":-10,"x_max":142,"o":"m 109 225 l 112 222 l 112 217 l 106 212 l 104 214 l 104 220 l 109 225 m 104 184 q 115 176 115 180 l 112 174 l 120 168 q 128 182 121 182 l 131 179 l 131 174 l 125 165 l 125 163 l 131 155 l 125 146 l 125 144 l 131 136 q 120 127 131 127 l 120 117 l 123 114 l 123 111 l 120 109 l 117 109 l 109 136 l 112 136 l 120 133 l 120 144 l 117 141 l 115 141 l 109 146 l 109 155 l 112 168 q 101 182 101 168 l 104 184 m 63 138 l 66 138 l 71 133 l 74 136 l 77 136 q 120 100 103 127 l 123 103 l 125 95 l 123 87 q 142 41 130 87 q 128 -22 139 9 l 131 -19 l 136 -19 l 136 -22 l 125 -33 l 131 -54 l 131 -62 l 125 -68 l 128 -81 l 123 -138 l 125 -146 l 123 -149 l 120 -149 l 115 -141 l 115 -119 l 120 -111 l 120 -100 l 115 -92 l 115 -87 l 120 -79 l 120 -73 l 115 -65 l 117 -38 q 33 -106 75 -85 l 31 -103 l 31 -100 q 68 -33 54 -76 q 41 24 68 7 q 1 76 1 64 l 1 79 q 63 138 7 96 m 68 109 q 47 84 68 103 l 47 81 l 63 81 q 74 90 63 90 l 77 90 l 74 109 l 68 109 m 112 73 l 112 65 l 115 65 l 120 71 l 120 73 l 112 73 m 115 52 l 115 38 l 123 38 l 120 52 l 115 52 m -5 43 l 6 33 q -2 19 3 19 l -10 35 l -7 38 l -10 41 l -7 43 l -5 43 m 117 14 l 120 -11 l 125 -11 l 125 19 l 123 19 l 117 14 m 33 -33 l 39 -38 l 33 -43 l 28 -38 l 33 -33 z "},"-":{"ha":527,"x_min":-14,"x_max":743,"o":"m 445 515 l 448 507 l 464 507 l 464 513 l 467 513 q 526 469 526 492 l 526 450 q 475 369 514 404 l 453 345 l 450 347 l 448 347 l 399 317 l 366 317 q 220 290 245 290 l 160 288 l 119 290 l 119 293 l 117 290 l 103 293 q 27 239 27 285 q 46 222 33 222 l 60 225 l 60 241 q 43 252 54 252 l 41 233 q 33 250 33 236 q 41 263 35 263 l 60 263 q 79 236 79 254 q 49 203 76 203 q 0 241 0 212 l 0 255 q 62 353 0 291 q 236 396 165 396 l 252 396 q 285 388 260 389 q 404 407 285 393 q 475 434 457 414 q 483 461 483 448 q 461 483 483 470 q 442 472 442 477 l 442 458 l 456 445 q 464 453 464 445 l 469 453 l 469 450 q 453 434 467 441 l 448 434 q 410 477 410 434 q 445 515 421 515 m 323 477 l 323 475 l 326 477 l 328 477 l 334 472 l 331 469 l 323 469 l 317 475 l 320 477 l 323 477 m 290 380 l 290 374 l 293 372 l 290 369 l 290 363 l 296 363 l 298 377 l 296 380 l 290 380 m 49 377 l 52 374 l 52 372 l 49 369 l 46 369 l 43 372 l 43 374 l 46 377 l 49 377 m 146 372 l 149 369 l 149 363 l 144 358 l 141 358 l 138 361 l 136 361 l 136 355 l 149 355 l 155 366 l 155 372 l 146 372 m -14 363 l 5 361 l 24 361 l 24 355 l -8 355 l -14 361 l -14 363 m 155 361 l 160 355 l 165 355 l 165 361 l 155 361 m 43 361 l 57 361 l 57 355 l 43 355 l 43 361 m 632 358 l 656 350 l 675 353 l 692 347 l 713 347 l 722 342 l 724 342 l 743 345 l 743 342 l 738 336 l 700 336 l 675 334 l 643 339 l 640 336 l 640 334 l 627 339 l 627 345 l 635 345 l 635 353 l 632 355 l 632 358 m 486 355 l 491 350 l 499 353 l 502 350 l 515 353 l 524 353 l 551 350 l 553 353 l 553 355 l 556 353 l 559 353 l 586 355 l 605 353 l 605 347 l 594 342 q 589 350 589 342 l 575 350 q 591 336 583 336 l 591 331 l 513 336 l 513 342 l 534 342 l 534 345 l 499 345 l 499 339 l 488 339 l 477 347 l 467 347 l 467 342 l 461 342 l 461 350 l 486 355 m 125 334 l 125 328 l 133 328 l 133 334 l 125 334 m 401 260 l 404 258 l 404 255 l 401 252 l 399 252 l 396 255 l 396 258 l 399 260 l 401 260 m 239 241 l 244 236 l 244 231 l 241 231 l 233 239 l 236 241 l 239 241 z "},".":{"ha":171,"x_min":0,"x_max":236,"o":"m 43 241 l 46 239 l 46 209 l 60 190 l 60 187 q 46 165 48 176 l 49 157 q 41 146 45 146 l 35 146 l 35 152 l 43 155 l 38 190 l 41 190 l 35 212 l 38 214 l 41 214 l 38 217 l 38 220 l 41 236 l 38 239 l 41 241 l 43 241 m 122 228 l 130 220 l 125 214 l 117 222 l 122 228 m 125 174 l 127 171 l 127 168 l 125 165 l 114 165 l 114 171 l 125 174 m 81 165 l 84 165 q 168 95 116 165 q 141 57 151 79 l 92 3 q 11 73 79 23 l 0 84 q 33 127 14 111 l 30 130 l 30 133 l 35 138 l 38 136 l 41 136 q 81 165 63 165 m 190 163 l 198 155 l 198 152 l 193 152 l 190 163 m 46 92 l 46 87 l 54 87 l 54 92 l 46 92 m 130 87 l 130 81 l 138 81 l 138 87 l 130 87 m 119 84 q 106 73 119 73 l 106 65 q 117 57 117 64 l 114 46 l 117 46 q 138 62 125 62 l 138 76 q 125 84 125 76 l 119 84 m 201 62 l 203 62 l 203 57 l 193 54 l 201 62 m 193 54 l 195 52 l 195 49 l 193 46 l 190 46 l 187 49 l 187 52 l 190 54 l 193 54 m 122 11 l 127 11 l 127 8 l 125 -5 l 127 -8 l 125 -11 l 122 -11 l 119 -8 l 119 -3 l 122 11 m 103 3 l 109 3 l 109 0 l 103 -5 l 98 -5 l 98 -3 l 103 3 m 152 -14 l 155 -16 l 155 -19 l 152 -22 l 149 -22 l 146 -19 l 146 -16 l 149 -14 l 152 -14 m 231 -27 l 236 -35 l 231 -41 l 225 -30 l 228 -27 l 231 -27 z "},"/":{"ha":476,"x_min":14,"x_max":915,"o":"m 326 1131 l 334 1128 l 334 1122 l 326 1122 l 321 1128 l 323 1131 l 326 1131 m 413 1133 l 424 1125 l 405 1125 l 405 1128 q 413 1133 405 1133 m 435 1131 l 437 1131 l 437 1128 l 432 1122 l 429 1122 l 429 1125 l 435 1131 m 286 1128 l 299 1128 l 299 1122 l 286 1122 l 286 1128 m 763 1125 l 763 1120 l 771 1120 l 771 1125 l 782 1125 l 782 1120 l 793 1120 l 793 1125 l 814 1125 l 831 1122 l 842 1125 q 861 1114 842 1121 l 861 1112 l 858 1109 l 847 1109 q 823 1117 837 1117 l 809 1117 l 801 1112 l 793 1114 l 790 1112 l 777 1114 l 760 1114 q 755 1103 760 1103 l 706 1103 l 698 1109 l 673 1109 l 673 1114 l 706 1114 l 706 1122 l 722 1122 l 763 1125 m 671 1122 l 671 1117 l 644 1112 l 616 1112 l 616 1117 l 630 1120 l 635 1120 l 646 1117 l 671 1122 m 714 1117 l 714 1109 l 733 1109 l 747 1112 l 747 1114 l 714 1117 m 907 1120 l 915 1120 l 915 1114 l 904 1109 l 893 1109 l 893 1114 l 907 1120 m 226 1117 l 226 1112 l 215 1109 l 212 1112 l 212 1114 l 215 1117 l 226 1117 m 318 1117 l 329 1117 l 329 1112 l 318 1112 l 318 1109 l 389 1106 l 389 1101 l 364 1098 q 304 1112 304 1099 l 304 1114 l 318 1117 m 543 1117 l 608 1117 l 608 1112 l 595 1109 l 573 1109 q 541 1101 541 1109 l 532 1103 l 516 1101 l 516 1103 q 543 1117 516 1112 m 234 1114 l 253 1114 l 253 1109 l 242 1106 l 234 1109 l 234 1114 m 280 1114 l 299 1112 l 299 1106 l 269 1106 l 269 1112 l 280 1114 m 508 1114 l 508 1109 l 494 1109 l 473 1093 l 470 1095 l 467 1095 l 470 1098 l 470 1103 l 451 1103 l 451 1106 q 459 1112 451 1112 l 508 1114 m 812 1114 l 814 1114 l 833 1109 l 833 1103 q 812 1112 814 1103 l 812 1114 m 429 1112 l 440 1112 l 440 1106 l 427 1106 l 427 1101 l 462 1101 l 462 1095 l 437 1095 l 429 1090 l 405 1090 l 405 1095 l 424 1095 l 424 1101 q 413 1106 413 1101 l 429 1112 m 668 1112 l 668 1109 l 663 1103 l 641 1103 l 641 1109 l 668 1112 m 627 1109 l 635 1109 l 635 1103 l 627 1103 l 627 1109 m 568 1087 l 570 1084 l 570 1082 l 568 1079 l 565 1079 l 562 1082 l 562 1084 l 565 1087 l 568 1087 m 605 979 l 614 979 l 614 973 l 605 973 l 605 979 m 361 943 q 469 895 469 922 l 469 884 l 455 857 l 458 842 l 297 487 q 272 429 281 473 q 255 385 262 429 q 191 248 191 277 q 147 157 185 246 q 119 79 136 153 l 61 -46 q 89 -77 68 -77 l 102 -77 q 127 -60 118 -77 l 127 -57 q 113 -37 127 -41 l 100 -43 l 100 -57 l 113 -57 q 119 -46 113 -46 l 122 -49 l 122 -57 q 102 -68 117 -68 q 80 -57 80 -63 l 80 -49 q 117 -21 84 -21 l 127 -21 q 155 -43 144 -21 q 102 -102 155 -85 l 47 -102 q 14 -65 14 -102 l 14 -46 q 94 168 45 70 l 102 168 l 102 170 l 97 179 q 150 296 124 214 q 241 476 210 436 q 311 654 245 518 q 338 718 338 674 l 411 887 q 349 926 401 926 q 322 903 322 926 q 353 879 335 879 l 366 879 q 374 892 372 879 l 363 901 l 355 901 l 349 895 l 363 884 l 361 882 l 358 882 q 333 901 337 892 l 333 912 q 347 920 333 918 q 399 892 387 920 q 369 854 395 854 l 349 854 q 300 901 300 866 q 338 943 300 931 l 361 943 m 614 920 l 627 915 l 627 909 q 610 918 610 912 l 614 920 m 319 629 l 319 623 l 328 623 l 328 629 l 319 629 m 308 609 l 308 601 l 313 601 l 311 609 l 308 609 m 97 162 l 97 157 l 100 142 l 105 142 l 102 162 l 97 162 m 83 96 l 83 93 l 89 87 l 94 96 l 83 96 m 222 87 l 227 87 l 227 84 l 222 79 l 219 79 l 222 87 m 89 79 l 89 71 l 94 71 l 94 79 l 89 79 m 72 56 l 72 54 l 77 48 l 80 48 l 80 56 l 72 56 m 69 43 l 69 37 l 77 37 l 77 43 l 69 43 m 239 18 l 241 15 l 241 12 l 239 9 l 236 9 l 233 12 l 233 15 l 236 18 l 239 18 m 247 -32 l 250 -35 l 250 -37 l 247 -40 l 241 -40 l 241 -37 l 247 -32 z "},":":{"ha":188,"x_min":7,"x_max":243,"o":"m 50 696 l 53 693 l 53 663 l 66 644 l 66 642 q 53 620 55 631 l 56 612 q 47 601 52 601 l 42 601 l 42 606 l 50 609 l 45 644 l 47 644 l 42 666 l 45 669 l 47 669 l 45 671 l 45 674 l 47 690 l 45 693 l 47 696 l 50 696 m 129 682 l 137 674 l 132 669 l 123 677 l 129 682 m 132 628 l 134 625 l 134 623 l 132 620 l 121 620 l 121 625 l 132 628 m 88 620 l 91 620 q 175 549 123 620 q 148 511 157 534 l 99 457 q 18 528 86 477 l 7 538 q 39 582 21 565 l 37 585 l 37 587 l 42 593 l 45 590 l 47 590 q 88 620 70 620 m 197 617 l 205 609 l 205 606 l 199 606 l 197 617 m 53 547 l 53 541 l 61 541 l 61 547 l 53 547 m 137 541 l 137 536 l 145 536 l 145 541 l 137 541 m 126 538 q 113 528 126 528 l 113 519 q 123 511 123 518 l 121 500 l 123 500 q 145 517 132 517 l 145 530 q 132 538 132 530 l 126 538 m 208 517 l 210 517 l 210 511 l 199 509 l 208 517 m 199 509 l 202 506 l 202 503 l 199 500 l 197 500 l 194 503 l 194 506 l 197 509 l 199 509 m 129 465 l 134 465 l 134 463 l 132 449 l 134 446 l 132 444 l 129 444 l 126 446 l 126 452 l 129 465 m 110 457 l 115 457 l 115 454 l 110 449 l 104 449 l 104 452 l 110 457 m 159 441 l 161 438 l 161 435 l 159 433 l 156 433 l 153 435 l 153 438 l 156 441 l 159 441 m 237 427 l 243 419 l 237 414 l 232 425 l 235 427 l 237 427 m 50 380 l 53 378 l 53 348 l 66 329 l 66 326 q 53 304 55 315 l 56 296 q 47 286 52 286 l 42 286 l 42 291 l 50 294 l 45 329 l 47 329 l 42 351 l 45 353 l 47 353 l 45 356 l 45 359 l 47 375 l 45 378 l 47 380 l 50 380 m 129 367 l 137 359 l 132 353 l 123 361 l 129 367 m 132 313 l 134 310 l 134 307 l 132 304 l 121 304 l 121 310 l 132 313 m 88 304 l 91 304 q 175 234 123 304 q 148 196 157 218 l 99 142 q 18 212 86 162 l 7 223 q 39 267 21 250 l 37 269 l 37 272 l 42 277 l 45 275 l 47 275 q 88 304 70 304 m 197 302 l 205 294 l 205 291 l 199 291 l 197 302 m 53 231 l 53 226 l 61 226 l 61 231 l 53 231 m 137 226 l 137 220 l 145 220 l 145 226 l 137 226 m 126 223 q 113 212 126 212 l 113 204 q 123 196 123 203 l 121 185 l 123 185 q 145 201 132 201 l 145 215 q 132 223 132 215 l 126 223 m 208 201 l 210 201 l 210 196 l 199 193 l 208 201 m 199 193 l 202 191 l 202 188 l 199 185 l 197 185 l 194 188 l 194 191 l 197 193 l 199 193 m 129 150 l 134 150 l 134 147 l 132 134 l 134 131 l 132 128 l 129 128 l 126 131 l 126 136 l 129 150 m 110 142 l 115 142 l 115 139 l 110 134 l 104 134 l 104 136 l 110 142 m 159 125 l 161 123 l 161 120 l 159 117 l 156 117 l 153 120 l 153 123 l 156 125 l 159 125 m 237 112 l 243 104 l 237 98 l 232 109 l 235 112 l 237 112 z "},";":{"ha":191,"x_min":14,"x_max":250,"o":"m 57 648 l 60 646 l 60 616 l 73 597 l 73 594 q 60 572 62 583 l 62 564 q 54 553 58 553 l 49 553 l 49 559 l 57 562 l 52 597 l 54 597 l 49 618 l 52 621 l 54 621 l 52 624 l 52 627 l 54 643 l 52 646 l 54 648 l 57 648 m 136 635 l 144 627 l 138 621 l 130 629 l 136 635 m 138 581 l 141 578 l 141 575 l 138 572 l 127 572 l 127 578 l 138 581 m 95 572 l 98 572 q 182 502 130 572 q 155 464 164 486 l 106 410 q 24 480 93 430 l 14 491 q 46 534 28 517 l 43 537 l 43 540 l 49 545 l 52 543 l 54 543 q 95 572 77 572 m 203 570 l 212 562 l 212 559 l 206 559 l 203 570 m 60 499 l 60 494 l 68 494 l 68 499 l 60 499 m 144 494 l 144 488 l 152 488 l 152 494 l 144 494 m 133 491 q 119 480 133 480 l 119 472 q 130 464 130 471 l 127 453 l 130 453 q 152 469 139 469 l 152 483 q 138 491 138 483 l 133 491 m 214 469 l 217 469 l 217 464 l 206 461 l 214 469 m 206 461 l 209 458 l 209 456 l 206 453 l 203 453 l 201 456 l 201 458 l 203 461 l 206 461 m 136 418 l 141 418 l 141 415 l 138 401 l 141 399 l 138 396 l 136 396 l 133 399 l 133 404 l 136 418 m 117 410 l 122 410 l 122 407 l 117 401 l 111 401 l 111 404 l 117 410 m 165 393 l 168 391 l 168 388 l 165 385 l 163 385 l 160 388 l 160 391 l 163 393 l 165 393 m 244 380 l 250 372 l 244 366 l 239 377 l 241 380 l 244 380 m 143 388 l 146 385 l 146 380 l 140 374 l 138 377 l 138 382 l 143 388 m 138 347 q 149 339 149 343 l 146 336 l 154 331 q 162 345 155 345 l 165 342 l 165 336 l 159 328 l 159 326 l 165 317 l 159 309 l 159 307 l 165 298 q 154 290 165 290 l 154 279 l 157 277 l 157 274 l 154 271 l 151 271 l 143 298 l 146 298 l 154 296 l 154 307 l 151 304 l 149 304 l 143 309 l 143 317 l 146 331 q 135 345 135 331 l 138 347 m 97 301 l 100 301 l 105 296 l 108 298 l 111 298 q 154 263 137 290 l 157 266 l 159 258 l 157 250 q 176 203 164 250 q 162 141 173 172 l 165 144 l 170 144 l 170 141 l 159 130 l 165 109 l 165 100 l 159 95 l 162 81 l 157 24 l 159 16 l 157 14 l 154 14 l 149 22 l 149 43 l 154 52 l 154 62 l 149 71 l 149 76 l 154 84 l 154 90 l 149 98 l 151 125 q 67 57 109 77 l 64 60 l 64 62 q 102 130 87 87 q 75 187 102 170 q 35 239 35 227 l 35 241 q 97 301 41 259 m 102 271 q 81 247 102 266 l 81 244 l 97 244 q 108 252 97 252 l 111 252 l 108 271 l 102 271 m 146 236 l 146 228 l 149 228 l 154 233 l 154 236 l 146 236 m 149 214 l 149 201 l 157 201 l 154 214 l 149 214 m 29 206 l 40 195 q 32 182 37 182 l 24 198 l 26 201 l 24 203 l 26 206 l 29 206 m 151 176 l 154 152 l 159 152 l 159 182 l 157 182 l 151 176 m 67 130 l 73 125 l 67 119 l 62 125 l 67 130 z "},"<":{"ha":310,"x_min":0,"x_max":298,"o":"m 209 635 l 222 635 q 298 564 274 635 l 298 532 q 206 429 298 507 q 136 353 175 389 l 92 304 l 92 301 q 155 233 109 291 q 233 133 205 200 q 288 49 288 98 q 231 5 288 28 l 206 0 l 187 0 q 125 35 153 0 q 117 62 117 50 l 117 73 q 165 106 117 101 q 195 73 188 106 l 195 71 q 187 54 195 56 l 171 54 l 163 62 l 168 68 l 176 60 l 176 68 q 157 79 172 79 l 149 71 l 149 68 q 195 30 169 30 l 201 30 q 233 60 233 33 l 233 62 q 165 141 233 77 q 98 214 165 155 q 81 233 98 220 l 73 231 l 3 301 l 3 307 q 73 372 40 349 l 130 431 q 220 515 156 463 q 231 532 220 526 q 241 556 241 546 l 241 564 q 214 589 241 585 l 203 589 l 198 578 l 198 570 l 212 553 l 203 551 q 174 597 174 562 q 209 635 178 635 m 65 545 l 68 543 l 68 540 l 65 537 l 62 537 l 60 540 l 60 543 l 62 545 l 65 545 m 5 534 l 8 532 l 8 526 l 5 526 l 0 532 l 3 534 l 5 534 m 114 521 l 119 521 l 119 513 l 114 513 l 114 521 m 114 355 l 114 350 l 125 361 l 125 366 l 114 355 z "},"=":{"ha":811,"x_min":0,"x_max":757,"o":"m 458 573 l 461 565 l 477 565 l 477 570 l 480 570 q 540 527 540 550 l 540 508 q 488 427 528 462 l 467 402 l 464 405 l 461 405 l 412 375 l 380 375 q 233 348 258 348 l 174 345 l 133 348 l 133 351 l 130 348 l 117 351 q 41 296 41 342 q 60 280 47 280 l 73 283 l 73 299 q 57 310 68 310 l 54 291 q 46 307 46 294 q 54 321 48 321 l 73 321 q 92 294 92 311 q 62 261 90 261 q 14 299 14 269 l 14 313 q 76 410 14 349 q 250 454 179 454 l 266 454 q 298 446 273 447 q 418 465 298 451 q 488 492 471 472 q 496 519 496 506 q 475 541 496 528 q 456 530 456 534 l 456 516 l 469 503 q 477 511 477 503 l 483 511 l 483 508 q 467 492 481 498 l 461 492 q 423 535 423 492 q 458 573 435 573 m 336 535 l 336 532 l 339 535 l 342 535 l 347 530 l 345 527 l 336 527 l 331 532 l 334 535 l 336 535 m 304 437 l 304 432 l 307 429 l 304 427 l 304 421 l 309 421 l 312 435 l 309 437 l 304 437 m 62 435 l 65 432 l 65 429 l 62 427 l 60 427 l 57 429 l 57 432 l 60 435 l 62 435 m 160 429 l 163 427 l 163 421 l 157 416 l 155 416 l 152 418 l 149 418 l 149 413 l 163 413 l 168 424 l 168 429 l 160 429 m 0 421 l 19 418 l 38 418 l 38 413 l 5 413 l 0 418 l 0 421 m 168 418 l 174 413 l 179 413 l 179 418 l 168 418 m 57 418 l 71 418 l 71 413 l 57 413 l 57 418 m 646 416 l 670 408 l 689 410 l 705 405 l 727 405 l 735 399 l 738 399 l 757 402 l 757 399 l 751 394 l 713 394 l 689 391 l 656 397 l 654 394 l 654 391 l 640 397 l 640 402 l 648 402 l 648 410 l 646 413 l 646 416 m 499 413 l 505 408 l 513 410 l 515 408 l 529 410 l 537 410 l 564 408 l 567 410 l 567 413 l 570 410 l 572 410 l 600 413 l 618 410 l 618 405 l 608 399 q 602 408 602 399 l 589 408 q 605 394 596 394 l 605 389 l 526 394 l 526 399 l 548 399 l 548 402 l 513 402 l 513 397 l 502 397 l 491 405 l 480 405 l 480 399 l 475 399 l 475 408 l 499 413 m 138 391 l 138 386 l 146 386 l 146 391 l 138 391 m 415 318 l 418 315 l 418 313 l 415 310 l 412 310 l 410 313 l 410 315 l 412 318 l 415 318 m 252 299 l 258 294 l 258 288 l 255 288 l 247 296 l 250 299 l 252 299 m 489 342 l 492 334 l 508 334 l 508 340 l 511 340 q 570 296 570 319 l 570 277 q 519 196 558 231 l 497 172 l 494 174 l 492 174 l 443 144 l 410 144 q 264 117 289 117 l 204 115 l 163 117 l 163 120 l 161 117 l 147 120 q 71 66 71 112 q 90 50 77 50 l 104 52 l 104 68 q 87 79 98 79 l 85 60 q 77 77 77 63 q 85 90 79 90 l 104 90 q 123 63 123 81 q 93 31 120 31 q 44 68 44 39 l 44 82 q 106 180 44 118 q 280 223 210 223 l 296 223 q 329 215 304 216 q 448 234 329 220 q 519 261 501 241 q 527 288 527 275 q 505 310 527 297 q 486 299 486 304 l 486 286 l 500 272 q 508 280 508 272 l 513 280 l 513 277 q 497 261 511 268 l 492 261 q 454 304 454 261 q 489 342 465 342 m 367 304 l 367 302 l 370 304 l 372 304 l 378 299 l 375 296 l 367 296 l 361 302 l 364 304 l 367 304 m 334 207 l 334 201 l 337 199 l 334 196 l 334 191 l 340 191 l 342 204 l 340 207 l 334 207 m 93 204 l 96 201 l 96 199 l 93 196 l 90 196 l 87 199 l 87 201 l 90 204 l 93 204 m 191 199 l 193 196 l 193 191 l 188 185 l 185 185 l 182 188 l 180 188 l 180 182 l 193 182 l 199 193 l 199 199 l 191 199 m 31 191 l 50 188 l 68 188 l 68 182 l 36 182 l 31 188 l 31 191 m 199 188 l 204 182 l 210 182 l 210 188 l 199 188 m 87 188 l 101 188 l 101 182 l 87 182 l 87 188 m 169 161 l 169 155 l 177 155 l 177 161 l 169 161 m 446 87 l 448 85 l 448 82 l 446 79 l 443 79 l 440 82 l 440 85 l 443 87 l 446 87 m 283 68 l 288 63 l 288 58 l 286 58 l 277 66 l 280 68 l 283 68 z "},">":{"ha":307,"x_min":-125,"x_max":298,"o":"m 86 649 l 89 649 q 121 616 114 629 l 124 597 q 89 554 117 554 l 86 557 l 86 559 l 100 573 l 100 581 l 94 592 l 83 592 q 56 573 83 581 l 56 559 q 78 522 56 549 q 119 486 78 513 l 186 413 q 233 367 192 413 q 295 310 243 367 l 295 304 q 222 234 228 234 l 214 237 q 132 153 213 230 q 92 104 132 138 q 64 66 64 81 l 64 63 q 97 33 64 36 l 102 33 q 149 71 129 33 l 149 74 l 140 82 q 121 71 126 82 l 121 63 l 132 71 l 135 68 l 135 66 l 127 58 l 111 58 q 102 74 102 60 l 102 77 q 135 109 109 109 q 181 77 181 104 l 181 66 q 113 3 181 19 l 92 3 q 10 55 10 23 q 40 117 10 88 q 83 174 64 127 q 151 245 111 216 q 205 304 183 289 l 205 307 q 124 391 131 391 l 124 394 l 89 391 l 94 383 l 92 380 l 64 389 l 56 386 q 2 397 56 393 l -36 394 q -125 405 -125 398 l -79 413 l -47 408 l 24 413 l 75 410 l 111 410 q -1 527 0 518 l -1 565 q 40 625 -1 597 l 40 627 q 26 635 26 627 l 35 638 l 37 635 l 40 635 l 51 638 l 62 635 q 86 649 86 644 m 62 619 l 62 614 l 70 614 l 70 619 l 62 619 m 45 603 l 43 600 l 43 595 l 48 595 l 54 600 l 45 603 m 37 581 l 37 573 l 40 573 l 48 581 l 37 581 m 16 576 l 16 570 l 21 565 l 24 573 l 21 576 l 16 576 m 235 549 l 238 546 l 238 543 l 235 541 l 233 541 l 230 543 l 230 546 l 233 549 l 235 549 m 295 538 l 298 535 l 298 532 l 295 530 l 290 530 l 290 532 l 295 538 m 178 524 l 184 524 l 184 516 l 178 516 l 178 524 m 170 500 l 176 494 l 173 492 l 170 492 l 165 497 l 168 500 l 170 500 m 192 427 l 197 427 l 203 421 l 203 418 l 197 418 l 192 424 l 192 427 m 211 418 l 243 418 l 290 416 l 290 410 l 268 410 l 265 413 l 262 413 q 257 402 262 402 l 238 402 l 238 408 l 243 408 l 243 410 l 211 413 l 211 418 m 121 408 l 121 405 l 135 408 l 135 413 l 127 413 l 121 408 m 138 410 l 138 402 l 140 402 l 154 405 l 170 402 l 173 402 l 173 408 l 154 410 l 138 410 m 43 402 l 43 399 l 67 399 l 86 402 l 89 399 l 89 405 l 75 405 l 43 402 m -44 383 l -33 383 l -28 378 l -28 372 l -33 372 q -44 378 -33 378 l -44 383 m 173 370 l 173 364 l 184 353 l 184 359 l 173 370 z "},"?":{"ha":639,"x_min":-64,"x_max":779,"o":"m 136 926 l 144 918 l 144 916 l 136 924 l 136 926 m 296 926 q 332 918 310 918 l 394 918 q 549 875 535 875 q 619 753 619 818 l 638 688 q 622 593 638 642 l 622 574 l 592 517 q 497 416 591 492 q 448 381 497 404 q 351 278 409 315 q 296 216 296 222 q 253 115 273 174 l 253 102 q 280 58 253 58 q 307 53 280 53 l 323 53 q 408 96 408 66 q 429 153 429 121 l 429 156 q 386 205 429 191 l 375 205 q 337 172 337 201 q 370 134 343 134 q 397 156 385 134 q 380 183 391 183 l 367 183 l 364 170 l 364 164 l 370 159 l 372 159 l 380 164 l 383 164 l 383 161 q 361 145 378 145 q 348 156 349 151 l 348 170 q 375 199 350 199 l 386 199 q 418 153 412 199 q 372 115 402 115 l 337 126 l 334 123 l 332 126 l 332 129 l 334 132 q 321 145 327 132 l 321 161 l 318 178 q 359 221 318 205 l 378 227 q 446 170 446 217 l 448 132 q 364 -12 448 37 l 321 -15 q 199 56 229 -15 q 188 77 192 56 q 242 227 188 172 l 275 267 q 210 294 210 279 l 177 300 q 196 292 177 294 l 196 286 l 185 286 q 147 297 147 286 l 150 300 l 150 302 l 142 308 l 128 308 l 128 302 q 136 297 136 302 l 136 294 l 131 289 l 115 302 l 112 302 l 115 300 l 115 297 l 112 294 l 109 294 l 93 308 l 77 308 q 87 221 84 284 q 93 208 93 221 l 93 205 q 82 172 93 172 l 79 180 l 82 210 q 74 232 76 210 l 77 232 q 50 278 68 266 l 52 281 l 52 283 l 47 297 l 55 302 q 60 292 60 302 l 63 292 l 63 297 q 50 311 60 309 l 50 313 l 55 319 l 55 321 q 3 335 3 327 l 12 340 l 14 340 l 14 332 l 20 332 l 25 338 l 6 343 l -5 340 l -13 343 l -26 335 q -37 343 -26 343 l -37 346 l -40 343 l -43 343 q -64 351 -62 343 l -62 354 l -59 351 l -26 357 l -26 365 l -43 368 l -43 373 q 44 346 44 357 l 58 346 l 58 351 l 55 349 l 50 349 l 50 351 l 52 354 l 52 357 l 47 362 l 47 365 l 50 368 l 50 370 q 41 384 43 370 l 44 387 l 47 387 q 79 349 52 375 l 79 354 l 85 354 l 85 346 l 82 343 l 82 340 q 104 316 89 340 l 115 316 l 109 324 l 109 327 l 115 327 l 115 330 q 101 335 101 330 l 104 338 q 131 324 129 332 l 128 321 l 128 319 l 174 305 l 231 297 l 239 302 l 242 302 l 248 297 l 231 292 l 231 289 l 272 281 l 286 281 l 291 286 q 277 292 277 286 l 280 294 l 296 289 q 326 335 307 317 q 380 403 364 376 q 497 628 497 524 l 497 631 q 454 804 497 722 l 456 818 q 291 880 349 880 l 258 883 l 253 883 q 79 747 125 883 q 71 688 71 713 l 71 652 q 109 528 83 528 q 201 481 134 503 l 223 481 q 280 514 280 497 q 321 612 302 514 l 323 633 q 288 696 315 678 q 239 712 263 712 l 226 712 q 182 671 197 712 l 182 644 q 215 595 182 614 l 229 595 q 256 631 241 595 l 250 658 l 253 661 l 256 661 l 275 636 l 275 620 q 239 574 266 574 l 199 574 q 153 631 166 574 l 153 647 q 182 731 153 718 l 207 745 l 267 742 l 275 745 q 351 671 324 728 q 361 620 361 644 l 361 571 q 321 484 361 520 q 269 449 315 465 q 234 438 245 438 l 158 441 q 136 449 158 448 q 66 481 126 460 l 31 530 l 31 528 l 36 511 l 33 511 q 17 544 28 511 q -5 652 -5 572 l -7 655 l -7 658 q 12 750 1 658 l 52 818 q 201 910 96 882 q 296 926 222 918 m 568 916 l 576 905 l 576 902 l 570 902 l 562 910 l 568 916 m -56 802 l -51 796 l -54 793 l -56 793 l -62 799 l -59 802 l -56 802 m 513 747 l 513 739 l 530 739 l 530 747 l 513 747 m 725 742 l 728 739 l 728 736 l 725 734 l 722 734 l 720 736 l 720 739 l 722 742 l 725 742 m 440 728 l 443 726 l 443 723 l 440 720 l 437 720 l 435 723 l 435 726 l 437 728 l 440 728 m 394 718 l 405 718 l 410 712 l 408 709 l 405 709 l 394 712 l 394 718 m 405 690 l 410 685 l 408 682 l 405 682 l 399 688 l 402 690 l 405 690 m 760 682 l 763 680 l 763 677 l 760 674 l 758 674 l 755 677 l 755 680 l 758 682 l 760 682 m 511 631 l 511 625 l 519 625 l 519 631 l 511 631 m 698 585 l 701 585 l 706 579 l 703 576 l 701 576 l 698 579 l 698 585 m -37 522 l -35 522 l -24 517 l -24 511 l -32 511 l -37 517 l -37 522 m 668 498 l 671 495 l 671 492 l 668 490 l 665 490 l 663 492 l 663 495 l 665 498 l 668 498 m 611 446 l 614 446 l 619 441 l 616 438 l 614 438 l 611 441 l 611 446 m 82 406 l 87 400 l 90 403 l 90 400 l 82 392 l 79 392 l 74 397 l 82 406 m 603 365 l 606 365 l 611 359 l 611 357 l 603 365 m 172 343 q 185 332 184 338 l 182 330 q 169 340 170 335 l 172 343 m 294 321 l 296 319 l 296 313 l 291 308 l 288 308 l 288 316 l 294 321 m 74 289 l 68 278 l 68 273 q 77 267 77 273 l 74 264 l 74 262 l 77 259 l 79 259 l 79 262 l 77 289 l 74 289 m 462 281 l 470 273 l 467 270 l 467 267 q 456 275 456 271 l 462 281 m 264 275 l 264 273 l 280 273 l 280 275 l 264 275 m 212 275 l 215 273 l 215 270 l 212 267 l 210 267 l 207 270 l 207 273 l 210 275 l 212 275 m 307 264 l 313 259 l 321 259 l 321 267 l 307 264 m 380 267 l 386 267 l 389 248 l 375 245 l 375 248 l 372 245 l 367 245 q 348 256 367 253 l 348 259 l 351 262 q 378 254 371 259 l 380 254 l 378 256 l 378 259 l 380 267 m 489 259 l 492 259 l 497 254 l 497 251 l 489 254 l 489 259 m 589 259 q 597 254 589 254 l 600 251 l 600 248 l 597 245 l 595 245 l 584 254 l 589 259 m 397 256 l 402 256 l 402 251 l 405 251 l 410 256 l 418 254 l 421 256 q 462 240 462 256 l 465 240 q 475 254 465 254 l 505 240 l 508 243 l 508 245 l 511 243 l 524 245 l 527 245 q 532 235 532 245 l 559 235 l 559 229 l 532 229 l 532 227 l 568 229 l 570 237 l 589 229 l 597 232 q 627 224 597 224 l 630 221 l 630 218 l 627 216 l 633 216 l 641 221 l 649 210 l 676 213 l 684 213 q 703 202 699 213 l 698 197 l 722 197 l 730 202 l 733 199 l 733 197 l 730 194 q 752 189 752 193 l 755 191 l 774 191 l 779 186 l 779 183 l 766 180 l 649 202 q 616 213 616 208 l 616 216 l 589 216 l 581 210 l 578 213 l 578 216 l 581 218 l 562 218 l 549 216 q 524 221 549 221 l 513 232 l 505 232 l 505 229 l 516 229 l 511 224 l 503 224 l 494 232 l 497 235 l 497 237 l 481 237 l 484 235 l 484 229 l 465 229 l 448 240 l 451 243 l 432 245 l 424 240 l 421 240 l 397 248 l 397 256 m 524 256 l 524 251 l 513 248 l 513 254 l 524 256 m 619 256 l 622 254 l 622 251 l 619 248 l 616 248 l 614 251 l 614 254 l 616 256 l 619 256 m 356 245 l 359 243 l 359 240 l 353 235 l 348 235 l 342 240 l 345 243 l 348 243 l 351 240 l 356 245 m 437 240 l 440 237 l 440 232 l 437 232 l 432 237 l 435 240 l 437 240 m 315 229 l 318 227 l 318 224 l 313 218 l 310 221 l 310 224 l 315 229 m 41 227 l 44 224 l 44 218 l 41 218 l 36 224 l 39 227 l 41 227 m 207 224 l 210 221 l 210 218 l 207 216 l 201 216 l 201 218 l 207 224 m 155 210 l 161 202 l 155 197 l 150 208 l 153 210 l 155 210 m 581 202 q 589 194 581 194 l 592 191 l 592 189 l 589 186 l 587 186 q 578 191 587 191 l 576 194 l 576 197 l 581 202 m 147 194 l 153 189 l 155 191 l 158 191 l 161 189 l 161 186 l 158 183 l 147 183 l 142 189 l 147 194 m 296 191 l 302 191 l 302 183 l 296 183 l 296 191 m 90 153 l 96 153 l 96 148 l 90 142 l 87 142 l 87 145 l 90 153 m 291 153 l 294 151 l 294 148 l 291 145 l 288 145 l 286 148 l 286 151 l 288 153 l 291 153 m 302 151 l 304 148 l 304 145 l 302 142 l 299 142 l 296 145 l 296 148 l 299 151 l 302 151 m 112 145 l 117 145 l 120 132 l 117 129 l 115 129 l 112 132 l 112 145 m 315 134 l 318 132 l 318 129 l 315 126 l 313 126 l 310 129 l 310 132 l 313 134 l 315 134 m 291 94 l 291 91 q 283 80 287 80 l 280 83 l 280 85 l 291 94 m 342 91 l 348 85 l 345 83 l 342 83 l 337 88 l 340 91 l 342 91 m 120 80 l 125 80 l 125 72 l 120 66 l 117 69 l 120 80 m 109 77 l 112 75 l 112 72 l 109 69 l 106 69 l 104 72 l 104 75 l 106 77 l 109 77 m 131 31 l 136 31 l 136 23 l 131 23 l 131 31 m 318 9 l 318 4 l 332 4 l 332 12 l 318 9 m 288 9 l 288 4 l 296 4 l 296 9 l 288 9 m 134 -31 l 136 -34 l 136 -37 l 131 -42 l 128 -39 l 128 -37 l 134 -31 m 136 -53 l 142 -58 l 139 -61 l 136 -61 l 131 -56 l 134 -53 l 136 -53 m 277 21 l 280 18 l 280 -12 l 294 -31 l 294 -33 q 280 -55 282 -44 l 283 -63 q 275 -74 279 -74 l 269 -74 l 269 -68 l 277 -66 l 272 -31 l 275 -31 l 269 -9 l 272 -6 l 275 -6 l 272 -3 l 272 -1 l 275 16 l 272 18 l 275 21 l 277 21 m 356 7 l 364 -1 l 359 -6 l 351 2 l 356 7 m 359 -47 l 361 -50 l 361 -52 l 359 -55 l 348 -55 l 348 -50 l 359 -47 m 315 -55 l 318 -55 q 402 -125 350 -55 q 375 -163 385 -141 l 326 -218 q 245 -147 313 -197 l 234 -136 q 267 -93 248 -110 l 264 -90 l 264 -87 l 269 -82 l 272 -85 l 275 -85 q 315 -55 297 -55 m 424 -58 l 432 -66 l 432 -68 l 427 -68 l 424 -58 m 280 -128 l 280 -134 l 288 -134 l 288 -128 l 280 -128 m 364 -134 l 364 -139 l 372 -139 l 372 -134 l 364 -134 m 353 -136 q 340 -147 353 -147 l 340 -155 q 351 -163 351 -157 l 348 -174 l 351 -174 q 372 -158 359 -158 l 372 -144 q 359 -136 359 -144 l 353 -136 m 435 -158 l 437 -158 l 437 -163 l 427 -166 l 435 -158 m 427 -166 l 429 -169 l 429 -172 l 427 -174 l 424 -174 l 421 -172 l 421 -169 l 424 -166 l 427 -166 m 356 -210 l 361 -210 l 361 -212 l 359 -226 l 361 -229 l 359 -231 l 356 -231 l 353 -229 l 353 -223 l 356 -210 m 337 -218 l 342 -218 l 342 -220 l 337 -226 l 332 -226 l 332 -223 l 337 -218 m 386 -234 l 389 -237 l 389 -239 l 386 -242 l 383 -242 l 380 -239 l 380 -237 l 383 -234 l 386 -234 m 465 -248 l 470 -256 l 465 -261 l 459 -250 l 462 -248 l 465 -248 z "},"@":{"ha":907,"x_min":0,"x_max":903,"o":"m 570 797 l 572 794 l 572 791 l 570 789 l 567 789 l 564 791 l 564 794 l 567 797 l 570 797 m 621 767 l 624 764 l 624 762 l 621 759 l 618 759 l 616 762 l 616 764 l 618 767 l 621 767 m 339 759 l 342 756 l 342 753 l 339 751 l 336 751 l 334 753 l 334 756 l 336 759 l 339 759 m 296 756 l 298 753 l 298 751 l 293 745 l 285 745 l 285 751 l 296 756 m 477 751 l 480 748 l 480 745 l 477 743 l 475 743 l 472 745 l 472 748 l 475 751 l 477 751 m 624 743 l 627 740 l 627 737 l 624 734 l 621 734 l 618 737 l 618 740 l 621 743 l 624 743 m 146 721 l 149 718 l 149 715 l 146 713 l 144 713 l 141 715 l 141 718 l 144 721 l 146 721 m 361 696 l 385 696 q 719 550 595 696 l 760 387 q 665 168 760 267 q 559 116 597 116 q 510 105 532 105 l 502 113 l 469 113 l 469 116 l 472 124 l 469 124 q 458 111 458 124 l 445 111 q 385 135 405 111 l 388 138 l 388 186 l 382 195 l 393 235 l 391 235 l 388 233 l 385 233 l 374 235 l 355 203 l 355 189 l 358 189 l 358 203 l 363 203 l 363 168 l 361 165 l 363 162 l 363 105 l 358 105 l 358 157 l 355 157 l 353 132 l 355 130 l 355 113 l 350 108 l 355 86 l 355 81 l 353 78 l 353 75 l 363 73 l 363 56 l 355 56 l 355 40 l 358 40 l 366 43 l 366 40 l 369 13 q 374 21 374 13 l 380 21 l 380 13 q 363 5 377 5 l 366 -17 l 374 -12 l 377 -12 l 377 -17 q 369 -60 369 -26 l 418 -60 l 429 -58 l 437 -60 q 600 -3 511 -54 q 703 94 638 22 q 760 132 727 97 l 776 140 l 814 140 q 903 64 903 123 l 901 64 l 890 67 l 890 59 l 903 59 q 838 -3 903 21 l 817 -6 l 779 -6 q 749 18 760 0 l 749 35 q 814 97 749 83 q 846 78 846 87 l 846 70 q 808 29 842 29 q 787 54 787 36 l 787 59 l 798 70 l 800 70 l 806 64 l 798 62 l 798 56 q 808 48 798 52 q 822 64 822 53 q 800 75 810 75 q 776 45 776 70 q 814 16 776 19 q 868 64 868 32 l 871 67 q 811 111 852 111 q 724 59 724 88 q 692 32 721 50 q 600 -41 658 -12 q 505 -82 589 -41 l 429 -96 l 374 -96 l 374 -109 l 372 -109 l 369 -106 l 366 -106 l 363 -120 l 374 -120 l 374 -125 l 366 -125 l 361 -218 l 358 -220 l 353 -220 l 347 -215 l 347 -207 l 353 -185 l 350 -174 l 355 -174 l 350 -155 l 355 -150 q 342 -144 342 -150 l 350 -139 l 353 -96 l 350 -96 q 193 -50 217 -73 q 16 176 64 32 l 0 257 l 0 300 q 79 526 43 479 l 117 580 q 190 631 131 580 l 247 669 q 342 694 279 683 l 355 694 l 355 688 l 361 688 l 361 696 m 33 675 l 35 672 l 35 669 l 33 667 l 30 667 l 27 669 l 27 672 l 30 675 l 33 675 m 442 667 q 437 659 442 659 l 429 659 q 279 631 301 648 q 73 439 146 585 q 46 306 46 372 l 46 300 l 43 298 l 46 295 l 46 211 q 130 64 46 178 q 350 -55 236 -55 l 355 -50 l 355 -33 l 350 -25 l 355 -20 l 350 56 l 342 51 l 339 54 l 342 56 l 342 83 q 328 157 342 149 l 331 159 l 334 159 l 339 154 l 339 173 l 336 173 q 331 165 336 165 l 328 165 l 323 170 l 328 176 l 328 173 q 336 181 336 173 l 339 181 q 345 168 345 181 l 347 168 l 347 186 l 339 195 l 279 151 q 171 200 216 151 l 160 235 l 163 252 l 160 281 l 212 406 q 358 509 319 504 q 521 542 465 542 l 534 539 l 553 539 q 648 490 648 539 l 648 485 q 624 455 648 467 l 594 455 q 581 479 586 455 l 581 488 l 591 501 l 605 501 l 605 496 q 594 488 594 496 q 610 477 597 477 l 621 488 l 621 490 q 594 517 615 517 q 556 469 556 498 q 540 420 547 469 q 513 309 524 395 q 477 176 477 200 l 477 170 q 513 157 481 157 l 515 157 q 624 192 576 157 q 713 309 667 192 l 719 422 q 675 536 719 468 q 553 631 675 566 q 467 656 524 634 l 450 656 l 450 667 l 442 667 m 282 664 l 282 656 l 288 656 l 288 664 l 282 664 m 315 664 l 315 656 l 323 656 l 323 664 l 315 664 m 307 615 l 312 610 l 309 607 l 307 607 l 301 612 l 304 615 l 307 615 m 244 284 l 244 271 q 271 235 244 250 l 293 235 q 326 246 326 235 l 328 246 l 331 243 q 350 273 348 243 l 355 273 l 355 276 l 347 292 l 350 303 l 345 319 l 347 322 l 353 322 l 353 306 l 358 306 l 358 328 l 355 328 l 353 325 l 342 333 l 345 336 l 347 336 l 350 333 l 355 376 l 358 376 l 361 374 l 363 374 l 361 360 l 361 355 l 363 355 l 382 360 l 377 347 l 380 347 l 396 352 l 399 349 l 399 347 l 374 338 l 366 341 l 366 319 l 363 309 l 366 298 l 366 287 l 361 279 l 361 257 q 415 311 415 281 l 472 512 l 469 512 q 317 441 387 512 q 244 284 244 366 m 491 504 l 491 496 l 496 496 l 496 504 l 491 504 m 529 322 l 532 319 l 532 317 l 529 314 l 543 317 l 602 309 l 602 303 q 524 314 524 307 l 524 317 l 529 322 m 35 309 l 35 300 l 41 300 l 41 309 l 35 309 m 624 309 l 643 306 l 643 300 l 624 300 l 618 306 l 621 309 l 624 309 m 206 298 l 206 295 l 212 290 l 214 290 l 214 298 l 206 298 m 27 235 l 27 233 l 35 233 l 35 241 l 33 241 l 27 235 m 353 181 l 353 170 l 358 165 l 358 181 l 353 181 m 450 140 l 450 138 l 456 132 l 461 132 l 461 135 l 456 140 l 450 140 m 312 138 l 315 135 l 315 132 l 309 127 l 307 130 l 307 132 l 312 138 m 328 127 l 331 124 l 331 121 l 328 119 l 326 119 l 323 121 l 323 124 l 326 127 l 328 127 m 317 100 l 320 97 l 320 94 l 317 92 l 315 92 l 312 94 l 312 97 l 315 100 l 317 100 m 320 83 l 323 83 l 328 78 l 328 75 l 326 75 l 320 81 l 320 83 m 369 64 q 380 56 380 60 l 377 54 q 366 62 366 58 l 369 64 m 681 40 l 681 37 l 689 37 l 689 45 l 686 45 l 681 40 m 339 40 l 345 40 l 345 35 q 336 13 345 15 l 334 16 l 334 24 l 339 40 m 871 35 l 871 26 l 876 26 l 876 35 l 871 35 m 496 26 l 499 24 l 499 21 l 496 18 l 494 18 l 491 21 l 491 24 l 494 26 l 496 26 m 312 18 q 328 10 328 15 l 323 2 l 328 -3 l 328 -6 l 323 -6 l 323 -9 l 328 -9 l 328 -14 l 323 -14 l 317 -9 l 320 -6 l 317 -3 l 317 2 l 320 5 l 320 7 l 317 10 l 315 7 l 309 7 l 309 13 l 312 16 l 312 18 m 646 10 l 646 5 l 654 5 l 654 10 l 646 10 m 304 2 l 307 -1 l 307 -3 l 304 -6 l 301 -6 l 298 -3 l 298 -1 l 301 2 l 304 2 m 401 -20 l 407 -25 l 407 -28 l 401 -28 l 396 -22 l 399 -20 l 401 -20 m 328 -22 q 345 -36 340 -26 l 342 -39 l 342 -41 l 345 -50 l 342 -52 l 339 -52 l 336 -50 l 336 -41 l 339 -39 l 339 -36 q 326 -25 331 -36 l 328 -22 m 312 -131 l 315 -134 l 315 -136 l 312 -139 l 309 -139 l 307 -136 l 307 -134 l 309 -131 l 312 -131 m 304 -144 l 307 -147 l 307 -150 l 304 -153 l 301 -153 l 298 -150 l 298 -147 l 301 -144 l 304 -144 m 328 -155 l 331 -158 l 331 -161 l 328 -163 l 326 -163 l 323 -161 l 323 -158 l 326 -155 l 328 -155 m 412 -172 l 415 -174 l 415 -177 l 412 -180 l 410 -180 l 407 -177 l 407 -174 l 410 -172 l 412 -172 m 369 -199 l 372 -201 l 372 -204 l 366 -210 l 363 -207 l 363 -204 l 369 -199 m 342 -218 l 347 -218 l 347 -226 l 342 -226 l 342 -218 m 361 -218 l 366 -223 l 366 -231 l 361 -231 l 361 -218 m 338 -242 l 346 -245 l 354 -242 l 354 -250 l 362 -315 q 354 -342 357 -315 l 351 -342 l 349 -334 l 351 -332 q 340 -277 349 -301 q 349 -250 349 -263 l 335 -253 l 332 -253 l 332 -250 l 338 -242 m 332 -294 l 338 -294 l 338 -304 l 332 -304 l 332 -294 z "},"A":{"ha":1015,"x_min":-61,"x_max":1405,"o":"m 762 856 l 768 850 l 765 847 l 762 847 l 757 853 l 760 856 l 762 856 m 705 836 l 711 830 l 714 830 l 717 833 l 720 833 l 722 830 l 722 827 l 720 816 l 754 825 l 757 822 l 760 822 l 785 827 l 791 827 l 791 822 l 731 807 l 731 804 l 740 804 l 740 799 l 731 799 l 731 793 q 743 787 743 793 l 736 782 l 731 787 l 731 782 l 734 773 l 731 770 l 728 770 l 722 779 l 705 773 l 703 773 l 703 776 q 720 787 703 787 q 677 804 701 804 l 674 807 l 671 807 l 671 813 l 674 813 l 682 810 l 682 813 l 686 816 l 686 819 l 680 825 l 680 827 l 686 827 l 696 819 l 705 819 l 705 822 l 700 830 l 705 836 m 724 937 l 728 937 l 741 878 l 734 871 l 751 825 l 751 795 l 774 766 l 774 746 q 807 598 787 666 l 804 595 l 800 595 l 807 572 l 800 565 l 800 555 l 807 545 l 804 542 l 810 515 l 813 519 l 820 519 q 843 453 820 500 q 879 378 843 420 l 886 358 l 886 348 q 879 361 879 348 l 876 361 l 872 348 l 876 345 q 895 335 876 335 q 945 193 901 273 q 1014 45 1014 60 l 1010 26 q 1119 -79 1048 1 q 1204 -135 1204 -120 l 1198 -135 l 1198 -142 l 1204 -142 l 1204 -135 l 1211 -135 q 1240 -149 1223 -135 l 1244 -145 l 1261 -149 l 1270 -149 q 1293 -135 1270 -135 q 1359 -40 1359 -92 q 1306 12 1350 12 l 1303 12 q 1270 -10 1270 12 q 1290 -33 1276 -33 q 1306 -20 1305 -27 l 1306 -14 l 1297 -3 l 1283 -10 l 1280 -7 l 1280 -3 l 1290 3 l 1293 3 q 1323 -23 1323 3 q 1283 -56 1323 -52 l 1274 -56 q 1227 -14 1227 -45 l 1227 -3 q 1286 42 1240 42 l 1290 42 q 1402 -33 1385 42 l 1405 -56 l 1405 -69 q 1297 -201 1405 -146 l 1280 -204 l 1208 -204 q 1027 -152 1088 -204 q 882 -14 943 -121 q 859 26 873 -11 q 731 144 822 76 q 675 184 731 159 q 606 233 640 227 l 606 236 l 610 239 l 610 243 q 550 269 550 260 l 547 266 l 537 266 q 409 309 452 299 q 224 108 342 216 q 96 12 205 60 q 34 -23 96 3 q 1 -1 17 -23 l 1 35 q 11 52 9 35 q 73 81 32 75 l 83 92 l 87 88 l 90 88 q 149 121 106 88 q 284 229 196 133 q 353 312 353 279 l 366 325 l 317 335 q 126 282 126 322 l 130 273 l 136 273 l 153 275 l 149 292 l 156 292 l 165 282 q 113 246 165 252 q 83 259 83 250 l 83 275 q 205 351 83 314 q 323 361 241 361 l 393 355 l 393 358 q 471 456 465 433 q 570 604 504 487 q 613 700 602 650 l 708 878 l 708 910 q 724 937 708 928 m 790 910 l 793 910 l 804 901 l 800 897 l 797 897 l 790 907 l 790 910 m 777 890 l 787 888 l 787 881 l 781 881 l 774 888 l 777 890 m 41 812 l 44 808 l 44 805 l 41 802 l 34 802 l 34 805 l 41 812 m 688 776 l 688 769 l 695 769 l 695 766 l 711 769 l 705 776 l 688 776 m 718 746 l 718 739 l 728 739 l 728 746 l 718 746 m 64 739 l 71 739 l 71 730 l 64 730 l 64 739 m 646 687 q 475 394 582 545 l 432 338 q 656 262 469 338 q 738 220 715 220 l 767 200 l 767 207 q 741 345 741 253 q 649 687 703 425 l 646 687 m 182 572 l 195 572 l 195 565 l 182 565 l 182 572 m 787 552 l 787 549 l 790 529 l 793 529 l 793 538 l 790 552 l 787 552 m 288 486 q 304 476 304 482 l 300 473 q 284 483 284 477 l 288 486 m 307 467 l 313 467 l 313 456 l 307 450 l 304 453 l 304 456 l 307 467 m 846 387 l 846 378 l 852 371 l 856 384 l 846 387 m 863 378 l 863 364 l 869 364 l 869 371 l 863 378 m 623 371 l 626 371 l 633 364 l 629 361 l 626 361 l 623 364 l 623 371 m 741 364 l 741 355 l 754 355 l 754 358 l 747 364 l 741 364 m 419 351 l 419 348 l 422 348 l 432 351 l 432 358 l 419 351 m 869 65 l 869 55 l 882 58 l 892 55 l 882 65 l 882 68 l 869 65 m 100 29 l 100 19 l 106 26 l 106 29 l 100 29 m 41 12 l 41 3 l 44 3 l 51 9 l 51 12 l 41 12 m 846 3 l 856 3 l 863 -3 l 863 -7 l 852 -10 l 846 -1 l 846 3 m 119 -20 l 139 -20 l 139 -26 q 123 -37 132 -26 l 117 -37 l 117 -30 l 123 -30 l 119 -26 l 119 -20 m 869 -37 l 876 -37 q 895 -46 895 -39 l 879 -53 l 876 -50 l 876 -46 l 879 -43 q 869 -37 869 -43 m 153 -40 l 179 -46 l 202 -43 l 208 -50 l 215 -50 q 222 -40 215 -40 l 224 -43 l 224 -50 q 215 -56 224 -56 q 149 -43 149 -56 l 153 -40 m 1027 -76 l 1027 -86 l 1034 -86 l 1034 -76 l 1027 -76 m 918 -79 q 938 -106 926 -81 l 935 -109 l 932 -109 l 918 -86 l 918 -79 m 1040 -92 l 1040 -102 l 1046 -102 l 1046 -92 l 1040 -92 m 1053 -119 l 1053 -125 l 1063 -125 l 1063 -119 l 1053 -119 m 179 -241 l 182 -243 l 182 -247 l 176 -254 l 172 -250 l 172 -247 l 179 -241 m 149 -243 l 153 -243 l 159 -250 l 159 -254 l 156 -254 l 149 -247 l 149 -243 m 229 -277 l 237 -277 l 245 -286 l 243 -289 l 240 -289 l 229 -283 l 229 -277 m 75 -282 l 80 -282 l 94 -309 l 94 -317 l 91 -317 l 94 -320 l 91 -334 l 91 -345 l 96 -345 q 102 -331 96 -331 l 102 -334 l 104 -331 l 110 -331 l 110 -350 q 96 -358 96 -351 l 96 -366 l 99 -366 l 102 -355 l 107 -355 l 107 -374 l 110 -372 l 113 -372 l 123 -374 l 123 -372 l 121 -369 l 121 -366 l 126 -366 q 132 -374 126 -374 l 153 -372 l 151 -369 l 151 -366 l 186 -363 l 186 -372 l 194 -372 q 218 -361 218 -366 l 232 -363 l 240 -363 l 245 -358 l 248 -361 l 321 -361 l 324 -363 l 346 -355 l 381 -361 l 384 -358 l 389 -363 l 473 -363 l 473 -361 l 411 -358 l 411 -353 l 419 -350 l 433 -353 l 452 -353 l 490 -350 q 538 -358 500 -355 l 536 -361 l 536 -363 l 557 -361 l 582 -366 l 593 -366 l 593 -372 l 625 -366 l 625 -372 l 636 -372 l 633 -369 l 633 -363 l 639 -363 l 639 -369 l 642 -369 l 655 -366 l 680 -369 l 707 -369 l 709 -372 l 712 -369 l 726 -369 l 745 -372 l 745 -377 l 728 -377 l 728 -380 l 791 -380 l 791 -374 l 894 -374 l 894 -369 q 997 -361 997 -366 l 997 -363 l 994 -366 l 994 -369 l 997 -372 l 994 -372 l 997 -374 l 997 -380 l 948 -380 l 948 -374 l 924 -374 l 924 -380 l 910 -380 l 823 -382 l 823 -388 l 750 -391 l 736 -391 q 731 -382 731 -391 l 720 -382 l 712 -380 l 696 -382 l 601 -385 q 590 -377 601 -378 l 511 -374 l 509 -366 l 490 -366 l 490 -361 l 506 -361 l 506 -358 l 498 -358 l 476 -361 l 476 -363 q 484 -369 484 -363 l 500 -369 l 500 -374 l 479 -374 l 471 -369 l 449 -369 l 449 -374 l 430 -374 l 378 -369 l 387 -380 l 387 -388 l 376 -399 q 365 -393 376 -393 l 362 -391 l 362 -388 l 370 -377 l 357 -374 l 316 -385 l 264 -380 q 256 -393 264 -393 l 259 -407 l 240 -407 l 240 -410 l 245 -410 l 251 -415 l 251 -420 l 240 -415 q 229 -429 240 -429 l 227 -426 l 227 -420 l 235 -420 l 235 -418 q 218 -404 224 -404 l 218 -399 l 224 -399 l 221 -396 l 221 -393 q 229 -385 229 -393 l 227 -382 l 208 -382 l 208 -388 l 210 -391 l 210 -393 l 208 -396 l 205 -396 l 199 -380 l 170 -385 l 167 -382 l 164 -382 q 148 -388 148 -384 l 145 -385 l 142 -385 l 140 -388 l 137 -388 q 129 -382 137 -382 l 113 -393 l 107 -393 l 107 -385 l 102 -385 l 107 -407 l 96 -410 l 99 -412 l 99 -415 l 96 -448 l 99 -458 l 102 -458 l 102 -415 l 107 -415 l 107 -418 l 113 -453 l 107 -453 l 107 -475 l 102 -483 l 110 -491 l 110 -505 l 107 -515 l 110 -526 l 99 -534 l 107 -567 l 104 -570 l 102 -570 l 94 -534 l 102 -521 l 102 -507 l 99 -494 l 94 -494 l 94 -510 l 85 -518 l 83 -515 l 85 -513 l 85 -505 l 80 -499 l 83 -496 l 83 -494 l 77 -486 l 80 -472 l 80 -464 l 88 -464 l 88 -469 l 85 -472 l 85 -475 l 88 -475 l 91 -472 l 91 -458 l 77 -461 l 75 -458 l 75 -453 l 80 -448 l 80 -453 l 91 -453 q 77 -442 88 -442 l 75 -445 l 72 -431 l 75 -423 l 66 -423 l 66 -418 l 69 -420 l 72 -420 l 77 -415 l 80 -415 l 80 -431 l 83 -431 l 85 -396 l 83 -393 l 80 -393 l 80 -396 l 77 -393 l 75 -393 q 61 -404 61 -397 q 56 -396 56 -404 l 53 -399 l 47 -399 l 39 -393 l 15 -393 l 15 -399 l 12 -399 q 4 -391 12 -391 l -4 -393 l -56 -388 l -56 -382 l -31 -382 l -31 -380 l -61 -380 l -61 -374 l -56 -374 q 26 -380 -6 -374 l 28 -377 l 28 -382 l 37 -382 l 31 -377 q 47 -366 31 -366 l 47 -361 l 61 -372 l 64 -369 l 66 -372 l 69 -372 l 83 -369 l 83 -366 l 80 -363 l 80 -361 q 88 -355 88 -361 l 88 -353 l 80 -323 l 83 -320 l 80 -317 l 77 -317 l 80 -309 l 75 -285 l 75 -282 m 254 -300 l 254 -303 l 245 -312 l 240 -306 l 254 -300 m 175 -328 l 175 -339 l 183 -339 l 186 -336 l 189 -336 l 189 -347 l 186 -347 l 164 -342 l 164 -339 l 175 -328 m -4 -331 l -1 -334 l -1 -336 l -7 -342 l -9 -339 l -9 -336 l -4 -331 m 15 -339 l 18 -339 l 28 -347 l 15 -347 l 15 -339 m 213 -345 l 213 -353 l 208 -353 l 208 -350 l 213 -345 m 403 -345 l 406 -347 l 406 -355 l 403 -355 l 397 -350 l 403 -345 m 593 -345 l 598 -345 l 598 -350 l 587 -353 l 587 -350 l 593 -345 m 178 -347 l 183 -353 l 183 -355 l 178 -355 l 172 -350 l 175 -347 l 178 -347 m 12 -355 l 26 -355 l 26 -361 l 15 -363 l 12 -361 l 12 -355 m 547 -366 l 547 -369 l 557 -369 l 557 -366 l 547 -366 m 262 -372 l 262 -374 l 275 -377 l 281 -377 l 281 -372 l 262 -372 m 283 -372 l 283 -377 l 286 -374 l 289 -374 l 300 -377 l 300 -372 l 283 -372 m 316 -374 l 316 -377 l 332 -377 l 332 -374 l 316 -374 m 240 -382 l 240 -399 l 256 -388 l 256 -382 l 240 -382 m 148 -393 l 156 -393 l 156 -399 l 148 -396 l 148 -393 m 180 -401 l 186 -401 l 186 -412 l 167 -420 q 159 -426 159 -420 l 153 -426 l 137 -420 l 137 -415 l 148 -418 l 156 -412 l 159 -415 l 161 -415 q 180 -407 170 -407 l 180 -401 m 213 -412 l 224 -418 l 221 -431 l 218 -431 q 210 -415 218 -424 l 213 -412 m 197 -415 l 202 -420 l 199 -423 l 197 -423 l 197 -415 m 56 -420 l 58 -420 l 58 -426 l 53 -431 l 50 -429 l 50 -426 l 56 -420 m 199 -423 l 208 -423 l 205 -426 l 205 -429 l 216 -437 l 216 -439 l 210 -439 q 199 -423 205 -439 m 256 -423 l 259 -423 l 254 -429 l 251 -429 l 256 -423 m 151 -426 l 153 -429 l 153 -434 l 145 -437 l 142 -434 l 140 -437 l 140 -431 l 151 -426 m 167 -429 l 180 -429 l 186 -450 l 183 -453 l 178 -453 q 170 -445 178 -445 l 170 -442 l 175 -434 l 175 -431 l 172 -431 l 170 -434 l 167 -434 l 167 -429 m 321 -431 l 324 -434 l 324 -437 l 321 -439 l 319 -439 l 316 -437 l 316 -434 l 319 -431 l 321 -431 m 229 -437 l 229 -448 l 227 -448 l 224 -439 l 227 -437 l 229 -437 m 213 -442 l 218 -442 l 218 -445 l 216 -453 l 213 -453 l 213 -442 m 305 -448 l 308 -448 l 313 -453 l 305 -453 l 305 -448 m 297 -453 l 297 -458 l 300 -461 l 297 -464 l 294 -464 l 297 -467 l 297 -469 l 294 -469 l 289 -464 l 294 -458 l 292 -456 l 294 -453 l 297 -453 m 132 -456 l 145 -458 l 148 -456 l 148 -464 l 134 -464 l 132 -461 l 118 -467 l 115 -464 l 115 -461 l 132 -456 m 311 -458 l 316 -458 l 319 -469 l 316 -477 l 311 -477 l 313 -475 l 311 -461 l 311 -458 m 218 -461 l 227 -461 l 232 -467 l 218 -467 l 218 -461 m 321 -461 l 324 -461 l 330 -467 l 327 -469 l 332 -475 l 332 -477 l 330 -477 q 321 -461 321 -475 m 153 -464 l 156 -464 q 167 -472 167 -468 l 199 -464 l 202 -467 l 202 -472 l 197 -472 l 178 -475 l 178 -477 q 197 -494 178 -494 l 189 -502 l 164 -483 l 164 -480 l 172 -480 l 172 -477 l 159 -475 l 156 -477 l 153 -464 m 129 -480 l 134 -488 l 134 -494 l 132 -494 l 123 -486 l 129 -480 m 289 -483 l 281 -491 l 275 -486 l 289 -483 m 205 -486 l 210 -486 l 210 -491 l 205 -496 l 202 -494 l 205 -486 m 151 -488 l 159 -499 l 148 -499 l 145 -491 l 148 -488 l 151 -488 m 292 -494 l 294 -496 l 297 -496 l 294 -505 l 292 -505 l 292 -494 z "},"B":{"ha":968,"x_min":-77,"x_max":1236,"o":"m 653 1099 l 659 1090 l 656 1088 l 653 1088 l 648 1096 l 650 1099 l 653 1099 m 539 1088 l 542 1085 l 542 1082 l 539 1080 l 534 1080 l 534 1082 l 539 1088 m 588 1088 l 593 1080 l 588 1080 l 583 1085 l 585 1088 l 588 1088 m 572 1063 l 580 1050 l 577 1034 l 577 1028 q 599 1009 590 1027 l 599 987 l 593 987 l 593 1001 l 591 1001 l 585 985 l 585 977 l 588 958 l 580 955 l 583 936 l 588 936 l 599 939 l 713 917 q 791 879 775 879 q 840 825 800 879 q 889 746 857 821 l 892 708 l 892 678 q 794 548 892 581 l 778 543 q 854 477 838 509 q 876 445 863 477 q 903 410 890 437 q 913 399 913 410 q 957 274 957 321 l 962 269 l 962 258 q 810 65 962 144 q 751 43 777 57 q 607 27 751 37 l 528 3 l 479 3 q 222 95 279 3 l 216 119 l 216 136 q 273 182 216 176 l 279 182 q 314 149 314 175 q 300 133 311 138 l 295 133 q 279 141 281 133 l 279 144 l 284 144 l 287 141 l 290 141 l 295 149 q 273 165 295 160 q 254 144 254 160 l 254 127 q 338 54 254 79 q 366 43 338 50 q 395 71 382 43 l 395 236 l 406 285 l 395 464 l 395 583 l 401 627 l 401 703 l 395 724 l 395 871 q 390 903 395 903 q 303 895 303 901 l 298 887 l 303 879 l 303 868 l 298 863 q 287 879 292 863 l 292 884 l 292 890 l 290 892 l 290 895 q 116 825 153 870 q 54 692 54 770 l 54 667 q 100 556 58 573 l 132 537 l 159 526 l 184 526 q 246 562 246 541 q 276 621 276 599 l 276 678 q 230 751 255 751 l 227 754 l 197 754 q 149 678 154 741 l 146 667 q 184 627 146 642 q 211 651 197 627 l 208 654 l 208 673 q 195 681 195 675 l 200 686 l 211 686 q 227 656 227 669 l 227 648 q 184 589 212 589 l 162 589 q 102 684 102 615 l 102 705 q 116 741 116 705 q 205 806 171 806 l 219 806 q 295 768 265 806 q 325 716 311 768 l 325 686 l 322 675 l 330 618 q 243 467 330 504 l 216 461 q 13 556 81 461 q -1 651 -1 595 l -1 665 q 238 917 -1 848 l 268 914 q 306 928 279 928 l 314 928 l 314 930 l 309 939 l 314 944 l 319 933 l 322 933 l 319 947 l 322 960 l 328 960 l 328 933 q 488 944 395 944 l 547 936 l 561 936 l 569 944 l 566 947 l 572 952 l 572 963 l 566 971 l 569 993 l 566 996 l 564 996 l 566 998 l 566 1001 l 558 1015 l 558 1017 l 566 1017 l 561 1034 q 566 1061 566 1034 l 569 1063 l 572 1063 m 504 1053 l 507 1050 l 507 1047 l 504 1044 l 501 1044 l 498 1047 l 498 1050 l 501 1053 l 504 1053 m 591 1039 q 599 1025 597 1039 l 596 1023 l 593 1023 l 585 1036 l 588 1039 l 591 1039 m 667 1034 l 669 1031 l 669 1028 l 667 1025 l 664 1025 l 661 1028 l 661 1031 l 664 1034 l 667 1034 m 469 1023 l 479 1015 l 477 1012 q 466 1020 466 1016 l 469 1023 m 1196 1020 l 1198 1020 q 1212 990 1203 1020 l 1236 990 l 1236 985 l 1215 979 l 1217 977 l 1217 971 q 1190 958 1205 971 l 1187 958 l 1187 963 l 1193 971 l 1193 979 l 1149 985 l 1144 985 l 1141 982 l 1139 982 l 1136 985 l 1136 987 l 1117 985 l 1112 985 l 1103 990 l 1079 990 l 1065 993 q 1036 985 1065 987 q 979 1004 1036 990 l 976 1001 l 973 1001 q 960 1009 960 1004 l 965 1015 l 998 1006 l 1000 1004 l 1003 1004 l 1006 1015 l 1025 1009 l 1027 1012 l 1030 1012 l 1074 1009 l 1076 1009 q 1106 998 1090 998 l 1112 998 q 1120 1006 1112 1006 q 1166 998 1166 1004 l 1168 1001 l 1190 1001 l 1198 996 l 1198 1001 l 1196 1020 m 1133 1017 l 1136 1015 l 1136 1012 l 1133 1009 l 1122 1009 l 1122 1015 l 1133 1017 m 580 1009 l 577 993 l 577 979 l 580 979 q 585 1001 580 1001 l 583 1009 l 580 1009 m 615 996 l 621 996 l 623 977 l 623 968 l 621 941 l 615 941 l 618 968 l 615 996 m -9 987 l -6 985 l -6 982 l -12 977 l -17 977 l -17 979 l -9 987 m 1093 987 l 1095 985 l 1095 982 q 1087 977 1095 977 l 1093 963 l 1090 949 l 1090 920 l 1098 909 l 1098 898 l 1093 898 l 1093 906 l 1090 903 l 1087 903 l 1079 947 l 1082 949 l 1084 949 q 1071 977 1071 969 l 1093 987 m 515 985 l 520 979 l 515 974 l 509 982 l 512 985 l 515 985 m -50 960 l -44 960 q -33 939 -36 960 l -25 944 l -22 941 l -22 939 q -33 930 -22 930 l -28 922 l -41 920 l -33 906 l -36 903 l -39 903 q -47 917 -45 903 l -74 901 l -77 903 l -77 906 l -60 917 q -74 930 -62 928 l -74 933 l -66 939 l -63 936 l -60 936 l -60 939 l -66 947 l -63 949 l -60 949 l -58 947 q -50 960 -54 960 m 604 958 l 610 958 l 610 949 l 604 944 l 599 949 q 604 958 604 949 m 298 955 l 300 952 l 300 949 l 298 947 l 295 947 l 292 949 l 292 952 l 295 955 l 298 955 m 702 941 l 705 939 l 705 936 l 702 933 l 699 933 l 696 936 l 696 939 l 699 941 l 702 941 m 732 933 l 734 930 l 726 920 l 721 920 l 721 922 l 732 933 m 534 906 l 534 876 q 526 857 526 866 l 526 825 l 531 800 l 528 738 l 534 719 l 534 632 l 539 632 l 539 627 l 534 627 l 534 524 l 536 524 q 577 548 536 538 l 602 548 q 680 578 646 578 q 781 659 781 600 l 789 662 l 789 665 l 783 673 l 783 697 q 694 879 783 840 q 602 903 629 903 q 596 895 602 895 l 593 895 q 588 906 593 906 l 585 887 l 588 884 l 588 882 q 569 860 576 882 l 574 854 l 566 846 l 572 846 l 572 852 q 596 863 583 852 l 596 868 l 602 868 l 602 865 l 599 849 l 602 822 l 602 817 l 593 808 l 591 808 l 591 819 l 593 830 l 591 844 l 588 844 l 585 811 l 585 808 l 591 808 l 588 789 l 588 749 l 585 746 l 588 743 l 588 741 l 583 732 l 588 727 l 588 724 l 580 700 l 588 675 l 588 654 l 583 646 l 583 632 l 588 605 l 585 597 l 580 597 l 583 610 l 574 605 l 569 605 l 569 610 q 577 632 577 610 l 574 648 l 577 659 l 572 692 l 574 692 l 569 708 l 569 716 l 574 716 l 574 711 l 577 711 l 577 716 l 574 730 l 580 749 l 572 765 l 577 773 q 558 784 563 773 l 561 787 l 564 787 l 566 784 l 569 784 l 569 795 l 572 795 q 577 787 577 795 l 583 787 l 583 795 l 577 811 q 558 827 563 811 l 564 833 l 564 841 l 539 846 l 539 852 l 558 849 l 558 863 l 561 879 l 553 892 l 553 895 l 558 895 l 566 890 l 566 901 l 553 906 l 534 906 m 466 903 l 466 901 q 477 887 477 901 l 482 887 l 488 901 l 488 903 l 485 903 l 474 901 l 471 903 l 466 903 m 623 892 l 629 884 l 629 879 l 623 873 l 621 876 l 621 879 l 623 882 l 618 887 l 623 892 m 656 863 l 667 863 l 667 857 l 656 857 l 656 863 m 352 846 l 355 844 l 355 838 l 352 838 l 347 844 l 349 846 l 352 846 m 574 838 l 569 825 l 572 817 l 577 817 l 577 838 l 574 838 m 539 825 l 542 825 l 547 819 l 539 814 l 534 819 l 539 825 m 610 803 l 615 798 l 615 795 l 610 800 l 610 803 m 138 800 l 143 795 l 143 792 l 138 787 l 130 795 l 138 800 m 545 798 l 547 795 l 547 792 l 542 787 l 536 792 l 545 798 m 637 789 l 648 789 l 653 784 l 650 781 l 648 781 l 637 784 l 637 789 m 618 738 l 621 738 l 626 732 l 623 730 l 612 730 l 612 732 l 618 738 m 626 697 l 626 692 l 615 681 l 612 684 l 612 686 q 618 694 618 686 l 621 697 l 626 697 m 32 673 l 32 665 l 37 665 l 37 673 l 32 673 m 553 654 l 561 654 l 566 648 l 558 643 l 553 651 l 553 654 m 29 643 l 26 632 l 35 632 l 35 643 l 29 643 m 32 629 l 32 624 l 37 608 l 45 608 q 32 629 45 628 m 192 583 l 203 575 l 203 572 l 197 572 l 189 581 l 192 583 m 626 559 l 626 553 l 634 553 l 634 559 l 626 559 m 564 477 q 580 453 564 463 q 604 464 601 453 l 604 472 l 593 483 l 588 472 l 593 464 l 588 458 q 580 477 580 469 l 583 494 q 618 472 608 494 l 618 461 q 588 431 618 439 l 569 431 q 536 461 549 431 l 534 461 l 534 296 l 526 260 l 528 217 l 528 182 l 523 174 l 523 125 l 534 46 l 534 41 q 751 98 637 41 q 821 255 821 153 l 821 285 q 726 496 821 416 q 621 529 658 529 q 564 486 564 515 l 564 477 m 146 502 l 146 499 q 157 480 146 485 l 162 480 l 168 486 l 168 491 q 154 502 154 491 l 146 502 m 593 415 l 602 407 l 602 396 q 588 391 602 391 l 588 385 q 599 377 599 384 l 599 374 l 593 363 l 596 355 q 591 347 591 355 l 593 277 l 591 277 q 585 285 585 277 l 588 298 l 585 323 l 585 334 l 580 339 l 580 334 l 583 326 l 580 323 l 577 323 l 574 326 l 574 336 l 572 369 q 583 393 583 369 l 591 401 l 585 412 l 588 415 l 593 415 m 878 396 l 878 393 l 886 393 l 886 401 l 884 401 l 878 396 m 385 391 l 390 385 l 387 382 l 385 382 l 379 388 l 382 391 l 385 391 m 886 388 l 886 374 l 900 377 l 900 382 l 889 388 l 886 388 m 368 388 l 371 388 l 371 385 l 366 380 l 363 380 l 363 382 l 368 388 m 583 366 l 583 355 l 588 361 l 588 366 l 583 366 m 745 358 l 748 355 l 748 353 l 745 350 l 743 350 l 740 353 l 740 355 l 743 358 l 745 358 m 580 353 l 580 350 l 583 342 l 585 342 l 585 345 l 583 353 l 580 353 m 726 304 l 729 301 l 729 285 l 724 285 l 721 301 l 724 304 l 726 304 m 762 260 l 764 258 l 764 252 l 762 252 l 756 258 l 759 260 l 762 260 m 713 247 l 718 241 l 715 239 l 713 239 l 707 244 l 710 247 l 713 247 m 778 247 l 781 244 l 781 241 l 778 239 l 775 239 l 772 241 l 772 244 l 775 247 l 778 247 m 138 233 l 149 228 l 159 231 l 162 228 l 162 225 l 135 214 l 130 225 l 138 233 m 561 228 l 564 228 l 569 222 l 569 217 l 566 217 l 561 222 l 561 228 m 621 214 l 623 212 l 623 209 l 621 206 l 618 206 l 615 209 l 615 212 l 618 214 l 621 214 m 724 203 l 726 201 l 726 198 l 724 195 l 721 195 l 718 198 l 718 201 l 721 203 l 724 203 m 564 155 l 566 155 l 572 149 l 572 144 l 569 144 l 564 149 l 564 155 m 623 125 l 626 125 l 631 119 l 629 117 l 626 117 l 623 119 l 623 125 m 241 106 l 238 98 l 241 87 l 246 87 l 246 95 l 243 98 l 246 100 l 246 106 l 241 106 m 564 95 l 566 95 l 572 90 l 569 87 l 566 87 l 564 90 l 564 95 z "},"C":{"ha":831,"x_min":-254,"x_max":1338,"o":"m 690 1038 q 733 1032 701 1032 l 736 1032 l 744 1038 l 812 1038 l 820 1032 l 825 1038 l 831 1038 l 836 1032 l 850 1035 l 858 1032 l 869 1035 l 920 1029 l 945 1029 l 945 1024 l 942 1024 l 833 1021 l 828 1027 l 825 1027 l 817 1019 l 831 1019 l 831 1013 l 817 1013 q 812 1021 812 1013 l 804 1021 l 790 1016 l 790 1010 l 831 1005 l 831 1000 l 828 1000 l 790 1005 l 787 970 l 793 970 q 801 978 793 978 l 801 986 q 793 991 793 986 l 795 994 l 798 994 l 806 986 l 806 978 q 790 954 790 962 q 798 943 798 954 l 795 935 l 798 935 l 804 929 l 804 926 q 793 921 804 921 l 793 899 q 831 826 831 865 q 793 739 831 779 l 790 739 l 790 718 l 795 680 l 793 677 l 790 677 l 785 682 l 785 677 l 787 652 l 782 639 q 787 609 787 633 l 790 609 l 790 620 l 795 620 l 795 614 q 806 590 806 614 q 831 579 831 585 l 825 574 l 809 574 l 806 576 l 804 576 l 798 566 l 801 563 q 793 549 796 563 q 806 503 806 518 l 806 473 q 820 468 820 473 l 823 457 l 820 454 l 817 454 q 804 468 815 465 l 804 463 l 809 441 l 806 438 l 798 438 l 798 449 l 795 449 l 787 389 l 787 373 l 795 370 l 795 378 l 801 378 l 801 370 q 790 365 801 365 l 790 362 l 795 354 l 795 321 l 793 308 l 798 302 l 798 300 q 790 294 798 294 l 790 232 l 787 235 l 785 235 l 782 227 q 798 202 787 227 l 798 199 l 793 199 l 793 172 q 806 161 801 172 l 801 148 l 795 148 l 795 164 l 793 164 l 793 102 l 798 94 l 798 75 q 809 69 809 75 l 798 64 q 806 39 800 39 l 814 42 l 817 39 l 817 37 l 814 34 l 798 34 l 798 9 l 795 -1 l 801 -53 l 793 -85 q 809 -99 809 -85 l 809 -102 l 814 -102 l 823 -96 l 825 -104 l 798 -107 l 809 -129 l 806 -132 l 804 -132 l 785 -118 l 779 -123 l 774 -110 l 777 -110 l 785 -113 l 785 -107 l 768 -104 q 730 -126 755 -116 q 711 -113 711 -119 l 703 -118 l 698 -113 l 698 -110 l 701 -107 l 701 -104 l 728 -115 l 733 -115 l 744 -104 l 722 -102 l 722 -96 l 749 -94 l 752 -96 l 763 -75 l 766 -77 l 766 -75 l 763 -66 q 768 -45 768 -58 l 774 -45 l 774 -72 l 777 -72 l 782 -4 l 787 -4 l 787 -15 l 790 -15 l 790 -4 l 782 31 l 785 50 l 782 53 l 777 53 l 779 -1 l 779 -7 l 774 -7 l 768 53 q 779 96 774 53 l 782 99 l 782 104 q 774 110 774 104 l 777 113 l 779 113 l 782 110 l 782 113 l 779 137 q 785 145 785 137 l 785 148 l 782 148 q 774 137 782 137 l 766 145 l 768 148 l 768 151 l 766 153 l 774 156 l 774 159 l 768 167 l 771 178 q 755 189 760 178 l 758 191 q 768 183 768 187 l 771 186 l 774 186 l 777 183 l 779 183 l 779 199 q 771 210 772 199 l 777 232 l 777 240 l 771 259 l 774 262 l 777 262 l 779 254 l 782 254 l 785 273 q 779 286 779 273 l 774 286 l 774 292 q 782 302 782 292 l 771 308 l 774 311 l 774 313 l 771 327 l 777 332 l 774 343 l 779 359 l 777 357 l 774 357 q 766 365 774 365 l 763 368 l 763 370 l 766 408 l 768 408 l 771 406 q 782 425 782 408 l 785 425 l 779 444 q 790 479 779 479 l 795 479 l 795 481 q 785 487 795 487 l 782 495 l 785 495 l 793 492 l 793 495 l 790 509 l 777 506 l 774 509 l 774 511 l 777 514 l 777 517 l 774 528 l 774 530 l 782 530 l 785 528 l 787 528 l 787 530 l 785 541 l 787 544 l 790 544 l 787 547 l 787 549 l 790 552 l 790 555 l 787 555 l 779 552 l 777 555 l 779 557 l 779 560 q 768 579 775 579 l 768 617 l 774 677 l 771 677 l 763 671 l 760 671 q 749 707 755 671 l 760 726 l 752 726 l 728 723 q 619 788 700 728 q 402 856 503 856 l 378 856 l 378 864 l 361 864 l 361 856 q 204 799 296 856 q 139 671 163 755 q 120 609 126 657 q 101 544 111 592 l 96 538 l 93 487 l 96 425 q 117 362 106 425 l 163 256 q 245 110 201 151 q 394 37 332 37 q 413 31 394 31 l 443 31 l 530 34 l 535 28 q 622 53 583 28 q 638 61 622 61 q 663 80 638 71 q 720 170 685 125 l 741 202 l 744 202 q 692 77 744 149 q 568 15 629 15 q 465 4 562 7 l 402 4 q 223 56 349 4 q 134 110 192 66 q 104 132 117 132 q 82 148 96 132 l 85 156 l 82 156 l 71 175 l 68 175 l 60 172 q 3 313 3 282 l 3 498 l 1 509 q 33 582 20 576 l 31 590 l 33 590 q 41 604 41 590 l 39 604 l 31 598 l 28 598 q 106 761 50 709 q 172 815 162 815 q 215 840 178 815 q 296 878 264 869 l 332 888 l 334 888 q 570 853 519 888 l 717 785 l 741 777 l 752 777 l 779 796 l 777 810 l 774 807 l 768 807 l 768 821 l 771 823 l 768 826 l 768 834 l 771 837 l 768 840 l 768 848 l 774 853 l 779 845 l 779 818 l 782 818 l 785 829 l 795 823 l 795 845 q 782 872 795 859 l 779 869 q 744 894 776 894 l 736 894 l 717 875 q 736 856 717 856 l 736 850 l 733 850 q 706 867 712 850 l 706 878 q 739 916 706 904 l 744 916 q 777 907 761 916 l 779 907 l 779 910 l 774 910 l 774 921 l 779 943 l 774 948 l 777 975 q 760 983 762 975 l 763 986 l 777 981 l 777 1002 l 782 1002 l 782 1008 q 768 1016 774 1008 l 744 1021 l 717 1021 l 703 1029 q 673 1024 692 1024 l 646 1024 l 646 1029 l 682 1029 l 690 1038 m -197 1029 l -189 1027 l -189 1021 l -195 1021 l -200 1027 l -197 1029 m 766 1027 l 766 1024 l 785 1024 l 785 1027 l 766 1027 m 890 1021 l 893 1019 l 893 1016 l 890 1013 l 880 1013 l 880 1019 l 890 1021 m 763 1010 l 763 1008 l 755 1000 l 752 1002 l 752 1005 l 763 1010 m -157 997 l -146 997 l -146 991 q -159 981 -151 991 l -168 981 l -168 978 q -159 972 -159 978 l -181 962 l -192 962 q -235 972 -198 967 l -238 970 l -254 970 l -254 972 l -246 981 l -235 981 l -181 983 l -176 978 q -157 997 -176 989 m -154 948 l -146 940 l -149 937 l -151 937 l -154 940 l -154 948 m 782 940 l 782 937 l 787 932 l 787 940 l 782 940 m 844 929 l 850 929 l 850 899 l 844 894 l 842 897 l 844 899 l 844 929 m -230 924 l -227 921 l -227 918 l -230 916 l -230 913 l -227 910 l -230 907 l -233 907 l -235 910 l -235 918 l -230 924 m -83 905 l -75 902 l -75 897 l -81 897 l -86 902 l -83 905 m 174 899 l 180 899 l 180 897 l 174 891 l 169 891 l 169 894 l 174 899 m 345 878 l 345 872 l 353 872 l 353 878 l 345 878 m 766 872 l 771 872 l 774 861 l 771 859 l 768 859 l 766 861 l 766 872 m 112 861 l 142 861 l 142 856 l 112 856 l 112 861 m -184 848 q -165 840 -165 844 l -165 837 l -170 831 q -186 842 -170 839 l -186 845 l -184 848 m -143 834 l -138 834 l -138 818 l -146 810 l -149 812 l -149 815 q -143 834 -143 821 m 275 785 l 294 769 l 291 766 l 283 766 l 269 780 l 275 785 m 760 764 q 749 758 760 758 l 749 753 l 763 750 l 763 758 l 766 758 l 768 755 l 771 755 l 771 758 l 766 764 l 760 764 m 823 753 l 828 747 l 817 742 l 814 745 l 814 747 l 823 753 m 17 745 l 20 742 l 20 739 l 17 736 l 14 736 l 12 739 l 12 742 l 14 745 l 17 745 m 782 734 l 779 701 l 785 701 l 785 734 l 782 734 m 766 726 l 766 704 l 760 693 l 766 680 l 768 680 l 774 718 l 771 726 l 766 726 m -224 718 l -214 704 l -219 699 l -230 709 l -230 712 l -224 718 m 814 658 l 817 655 l 817 652 l 809 647 l 806 650 l 806 652 l 814 658 m 795 647 l 801 647 l 801 633 l 795 628 l 793 631 l 793 633 l 795 647 m 809 642 l 812 639 l 812 636 l 809 633 l 806 633 l 804 636 l 804 639 l 806 642 l 809 642 m 340 633 l 356 623 l 356 614 l 353 614 l 334 628 l 340 633 m 755 612 l 758 612 l 766 604 q 755 579 760 579 l 752 582 l 752 585 l 758 595 l 755 598 l 755 612 m 795 606 l 795 595 l 798 595 l 798 606 l 795 606 m 304 598 l 307 598 l 315 590 l 286 585 l 283 587 l 283 590 l 304 598 m 833 566 l 836 563 l 836 560 l 831 555 l 825 555 l 825 557 l 833 566 m 714 549 l 720 541 l 720 538 l 714 533 l 709 547 l 711 549 l 714 549 m 741 473 l 744 471 l 744 463 l 736 454 l 733 457 l 733 460 q 741 473 736 473 m -97 471 l -94 468 l -94 465 l -100 457 l -97 457 l -94 460 l -92 460 l -89 457 l -89 454 l -94 449 q -86 444 -86 449 l -89 441 l -108 457 q -116 463 -116 457 l -113 465 l -111 463 l -108 463 l -97 471 m 752 463 l 760 463 l 760 457 l 752 457 l 752 463 m 630 430 l 635 425 l 633 422 l 630 422 l 625 427 l 627 430 l 630 430 m -75 406 l -67 406 l -67 400 l -75 400 l -75 406 m 777 389 l 777 378 l 779 378 l 779 389 l 777 389 m 90 373 l 90 368 l 98 368 l 98 373 l 90 373 m -116 373 l -113 370 l -113 368 q -130 349 -124 349 l -132 349 l -138 354 l -138 359 q -116 373 -138 364 m 787 351 l 787 340 l 790 340 l 790 351 l 787 351 m 66 346 l 66 338 l 71 338 l 71 346 l 66 346 m 779 327 l 779 313 l 782 313 l 782 327 l 779 327 m 538 311 q 562 300 538 304 l 562 297 l 559 294 q 532 305 532 298 l 538 311 m 551 270 l 554 267 l 554 264 l 551 262 l 549 262 l 546 264 l 546 267 l 549 270 l 551 270 m -86 262 l -81 256 l -89 248 l -97 259 l -94 262 l -86 262 m 676 251 l 684 251 l 684 245 l 676 245 l 676 251 m 71 240 l 74 232 l 82 232 l 82 240 l 77 240 l 74 243 l 71 240 m 755 243 l 758 240 l 758 237 l 752 232 l 749 235 l 749 237 l 755 243 m 777 172 l 777 159 l 779 159 l 779 172 l 777 172 m 871 140 l 877 140 q 885 134 877 134 l 885 129 l 877 129 l 871 134 l 871 140 m 701 121 l 701 115 l 709 115 l 709 121 l 701 121 m 755 104 l 758 102 l 758 99 l 755 96 l 752 96 l 749 99 l 749 102 l 752 104 l 755 104 m 814 99 l 820 99 l 820 91 l 814 85 l 812 88 l 812 91 l 814 99 m 733 77 l 741 72 l 758 75 l 760 75 l 760 69 l 730 64 l 728 66 l 728 72 l 733 77 m 842 28 l 855 4 l 852 1 q 836 23 845 1 l 842 28 m 1026 -28 l 1031 -28 l 1031 -39 l 1026 -39 l 1026 -28 m 440 -31 l 446 -37 l 446 -42 l 440 -47 l 435 -42 l 435 -37 l 440 -31 m 690 -45 l 692 -47 l 692 -53 l 690 -53 l 684 -47 l 687 -45 l 690 -45 m 885 -45 l 888 -47 l 888 -50 l 885 -53 l 882 -53 l 880 -50 l 880 -47 l 882 -45 l 885 -45 m 283 -50 l 286 -53 l 286 -56 l 256 -61 l 256 -56 l 283 -50 m 329 -53 l 356 -58 l 359 -56 l 359 -53 q 372 -64 371 -58 l 356 -69 l 359 -66 l 359 -64 q 329 -56 329 -64 l 329 -53 m 711 -53 l 717 -58 l 714 -61 l 709 -61 l 703 -56 l 706 -53 l 711 -53 m 1148 -53 l 1151 -53 l 1167 -58 l 1167 -64 l 1156 -64 l 1148 -53 m 880 -56 l 890 -56 l 890 -61 l 882 -61 q 896 -75 884 -68 l 904 -75 q 923 -66 914 -66 l 926 -75 l 939 -75 l 950 -80 l 953 -77 l 966 -80 l 996 -80 l 999 -72 l 1021 -77 l 1097 -77 l 1097 -80 l 1094 -83 l 1094 -85 l 1097 -85 l 1132 -83 l 1202 -88 l 1216 -88 l 1227 -85 q 1257 -91 1238 -91 l 1276 -91 l 1286 -88 q 1330 -94 1298 -94 l 1338 -94 l 1338 -99 l 1273 -99 l 1151 -96 l 1145 -102 l 1140 -102 q 1026 -94 1026 -102 l 1023 -96 l 1021 -96 l 996 -94 l 988 -99 l 975 -99 l 969 -94 l 983 -94 l 983 -91 l 972 -91 l 969 -94 l 956 -91 l 923 -91 l 920 -99 q 869 -107 893 -99 l 850 -99 l 850 -104 l 836 -104 q 831 -94 831 -104 l 825 -94 l 825 -91 l 831 -85 q 836 -94 836 -85 l 844 -88 l 863 -91 l 863 -83 l 866 -83 l 869 -85 l 890 -83 q 880 -77 890 -77 l 877 -75 l 877 -72 l 880 -69 l 874 -64 l 874 -61 l 880 -56 m 215 -58 l 223 -58 l 223 -64 l 215 -64 l 215 -58 m 280 -69 l 286 -69 l 286 -80 l 280 -80 l 280 -69 m 728 -72 l 733 -77 l 733 -80 l 728 -80 l 722 -75 l 725 -72 l 728 -72 m 337 -75 l 340 -77 l 340 -80 l 337 -83 l 326 -83 l 326 -77 l 337 -75 m 600 -77 l 603 -80 l 603 -83 l 600 -85 l 597 -85 l 595 -83 l 595 -80 l 597 -77 l 600 -77 m 1075 -85 l 1075 -88 l 1091 -88 l 1091 -85 l 1075 -85 m 1121 -94 l 1121 -96 l 1145 -96 l 1145 -94 l 1121 -94 m 953 -99 l 966 -99 l 966 -104 l 953 -104 l 953 -99 m 1145 -107 l 1148 -110 l 1148 -113 l 1145 -115 l 1143 -115 l 1140 -113 l 1140 -110 l 1143 -107 l 1145 -107 m 947 -118 l 958 -118 l 958 -123 l 947 -123 l 947 -118 m 798 -140 l 801 -142 l 801 -145 l 798 -148 l 795 -148 l 793 -145 l 793 -142 l 795 -140 l 798 -140 m 364 -151 l 378 -153 l 410 -153 l 410 -159 l 367 -159 l 361 -153 l 364 -151 z "},"D":{"ha":1049,"x_min":-166,"x_max":1440,"o":"m 436 943 l 444 935 l 458 935 l 488 941 l 507 941 q 745 913 691 932 q 903 824 857 876 q 960 748 926 824 q 973 740 960 740 q 1008 661 1008 692 q 992 634 1003 661 l 992 626 l 1006 623 l 1008 623 l 1008 629 l 1014 629 l 1025 621 l 1033 626 l 1044 618 l 1022 615 l 1022 612 q 1049 607 1049 612 l 1046 604 l 1046 602 l 1065 602 l 1060 610 l 1087 618 l 1074 648 l 1079 653 q 1098 621 1094 621 l 1101 621 q 1106 629 1101 629 l 1112 623 l 1114 626 l 1117 626 l 1136 612 l 1149 618 l 1152 615 l 1155 615 l 1179 618 l 1182 610 l 1215 610 l 1215 623 l 1220 623 q 1231 607 1220 607 l 1277 596 l 1282 596 l 1285 610 l 1282 610 l 1277 615 q 1293 631 1293 618 l 1299 631 l 1299 629 l 1293 599 l 1293 596 l 1331 596 l 1329 599 l 1329 602 l 1331 604 l 1331 607 l 1329 610 q 1337 621 1337 610 l 1342 621 l 1342 607 l 1350 612 q 1377 599 1350 599 l 1380 607 l 1385 607 l 1383 588 l 1391 583 l 1440 583 l 1440 577 l 1388 577 l 1388 553 l 1383 553 q 1367 580 1378 580 l 1364 572 l 1350 574 l 1345 574 l 1345 572 l 1348 564 l 1345 561 l 1342 561 l 1339 574 l 1329 574 l 1310 572 l 1307 580 l 1301 580 q 1291 558 1295 580 l 1288 558 q 1280 574 1280 558 l 1274 574 q 1269 561 1274 561 l 1253 561 l 1253 566 q 1269 580 1269 566 l 1258 583 l 1228 580 l 1225 580 l 1220 585 l 1206 583 l 1149 583 l 1158 564 l 1152 558 q 1141 585 1147 558 l 1122 583 l 1122 577 l 1131 566 l 1131 553 l 1125 553 l 1125 564 l 1122 564 q 1117 545 1122 551 l 1117 515 l 1114 512 l 1117 509 l 1117 490 l 1112 485 q 1101 507 1105 485 l 1103 509 l 1106 509 l 1109 507 l 1109 528 l 1106 528 l 1103 526 l 1101 526 l 1098 534 l 1106 547 l 1098 583 l 1095 580 l 1093 580 l 1079 583 l 1074 577 q 1049 585 1074 583 l 1044 580 l 1038 580 l 1033 596 l 1027 596 l 1027 591 l 1041 550 l 1038 534 q 1049 515 1038 526 l 1049 512 q 1011 300 1049 330 q 935 159 1011 233 l 913 170 l 913 159 q 927 151 927 159 l 884 97 q 903 81 892 97 l 895 73 l 900 73 l 900 67 l 897 67 q 878 86 878 67 l 881 89 l 873 89 l 876 86 l 876 59 l 870 54 l 867 56 l 870 70 l 870 73 l 867 86 l 857 86 l 797 54 l 786 62 l 783 62 q 713 32 783 41 l 634 16 q 629 5 634 5 l 631 2 l 631 -3 l 626 -9 l 621 16 q 485 7 555 7 q 477 -3 485 -3 l 471 -3 l 471 -1 l 474 7 l 387 7 q 165 130 220 7 q 151 186 151 157 l 151 192 q 203 246 164 246 l 214 246 q 254 200 248 246 q 224 173 243 173 q 200 195 200 177 l 205 195 q 216 181 205 186 l 222 181 q 235 200 235 186 q 222 227 235 221 q 181 178 181 227 q 303 56 181 110 l 347 45 l 368 67 l 368 100 l 363 143 q 382 241 368 211 q 371 271 382 271 l 371 284 l 376 317 q 366 414 376 408 l 366 450 l 371 474 l 366 561 l 366 564 l 371 607 l 371 675 l 366 680 l 368 707 l 368 900 q 132 848 163 882 q 59 707 59 805 l 59 696 l 56 694 l 59 691 l 59 669 q 94 542 59 597 q 173 515 125 515 q 260 550 213 515 q 295 629 295 593 l 295 631 q 254 710 278 710 l 227 726 l 219 726 q 184 718 214 721 q 149 667 149 690 l 149 661 q 184 618 149 627 q 200 629 200 623 l 200 634 q 173 664 200 650 l 178 669 l 192 669 q 219 637 219 653 l 219 618 q 170 580 219 580 q 105 645 105 602 l 102 661 q 165 764 102 738 q 216 775 192 775 l 243 772 l 241 786 l 243 789 l 246 789 q 292 753 246 772 l 322 718 l 344 640 l 344 631 q 328 555 338 583 q 257 471 275 471 q 192 447 257 459 l 162 447 q 43 509 113 447 l 24 555 q 7 612 7 600 l 13 669 l 5 677 q 89 851 5 764 q 235 922 139 899 l 238 919 l 241 919 l 303 930 l 333 930 l 436 943 m 138 938 l 140 935 l 140 932 l 138 930 l 135 930 l 132 932 l 132 935 l 135 938 l 138 938 m 181 935 l 189 935 l 195 930 l 195 927 l 181 930 l 181 935 m 1017 932 l 1019 930 l 1019 927 l 1017 924 l 1014 924 l 1011 927 l 1011 930 l 1014 932 l 1017 932 m 1027 930 l 1030 927 l 1030 924 l 1027 922 l 1025 922 l 1022 924 l 1022 927 l 1025 930 l 1027 930 m -112 922 l -109 919 l -109 916 l -112 913 l -117 913 l -117 916 l -112 922 m 566 905 l 531 905 q 504 865 504 905 l 507 851 l 496 843 l 498 791 l 493 775 l 493 764 l 507 694 q 490 520 507 566 l 488 469 l 501 436 l 501 412 l 482 330 l 482 298 l 490 243 l 488 216 q 501 186 494 216 l 496 178 l 496 159 l 498 78 l 507 70 l 507 45 l 566 48 l 561 54 l 564 81 l 564 86 l 558 94 l 561 97 l 564 97 q 574 62 568 97 q 583 54 583 62 l 585 51 l 588 51 l 588 56 l 585 64 l 588 67 l 591 67 q 599 51 594 51 l 602 51 l 599 64 l 602 64 q 610 51 608 64 l 640 51 q 702 73 654 65 l 726 73 l 759 92 l 753 105 l 756 105 l 770 97 l 772 100 l 772 102 l 767 116 l 770 119 q 783 108 782 113 q 832 149 801 108 q 867 197 853 167 q 911 328 897 236 q 922 379 911 379 l 924 376 l 922 417 l 922 441 q 930 447 922 447 l 930 471 l 924 479 l 924 482 l 922 564 l 876 580 q 854 555 876 562 l 851 558 l 857 569 l 859 566 l 865 566 l 867 583 l 865 583 l 854 585 l 829 585 l 821 591 l 783 591 l 778 596 l 781 599 l 764 602 l 764 607 l 772 607 l 848 602 l 859 602 l 859 604 l 848 604 l 848 610 l 857 610 l 857 612 q 808 631 857 621 l 802 640 l 805 642 l 859 623 l 867 621 l 870 623 l 878 615 l 881 618 q 905 602 905 618 l 908 602 l 908 615 q 848 745 886 642 q 789 816 832 785 q 653 889 728 872 l 667 851 l 664 848 l 661 848 l 659 862 l 656 862 l 656 843 l 653 843 q 637 895 643 843 l 634 895 l 626 889 l 615 889 l 615 895 l 621 895 l 621 897 l 580 908 l 566 905 m -25 903 l -22 900 l -22 897 l -25 895 l -28 895 l -31 897 l -31 900 l -28 903 l -25 903 m 954 895 l 960 895 l 965 889 l 965 886 l 960 886 l 954 892 l 954 895 m 786 886 l 786 876 l 794 876 l 802 884 l 802 886 l 786 886 m 631 854 l 634 851 l 634 846 l 629 840 l 626 843 l 626 848 l 631 854 m 425 821 l 425 800 l 431 800 l 431 813 l 436 821 l 436 824 l 433 824 l 425 821 m 168 819 l 170 816 l 170 813 l 168 810 l 165 810 l 162 813 l 162 816 l 165 819 l 168 819 m 1225 813 l 1231 813 q 1239 794 1231 794 l 1244 800 l 1247 797 l 1247 794 q 1231 786 1247 786 l 1244 770 l 1242 767 l 1236 767 q 1217 778 1227 778 l 1215 778 l 1217 775 l 1217 772 l 1215 772 q 1209 786 1209 772 l 1201 794 l 1206 800 l 1212 794 l 1215 794 l 1212 797 l 1212 800 l 1215 802 l 1215 805 l 1225 800 l 1225 813 m 268 808 l 276 808 l 276 802 l 268 802 l 268 808 m 1155 789 l 1163 786 l 1163 781 l 1155 781 l 1149 786 l 1152 789 l 1155 789 m 922 770 l 922 762 l 927 762 l 927 770 l 922 770 m 1033 764 l 1038 756 l 1036 753 l 1033 753 l 1027 759 l 1033 764 m 238 759 l 238 751 l 249 751 l 254 756 l 254 759 l 238 759 m 205 753 l 205 748 l 216 743 l 227 743 l 227 748 l 214 753 l 205 753 m 1046 745 l 1049 743 l 1049 740 l 1046 737 l 1044 737 l 1041 740 l 1041 743 l 1044 745 l 1046 745 m 927 737 l 927 732 l 935 732 l 935 737 l 927 737 m 1125 734 l 1128 732 l 1128 729 l 1125 726 l 1122 726 l 1120 729 l 1120 732 l 1122 734 l 1125 734 m 935 715 l 935 713 l 943 713 l 943 721 l 941 721 l 935 715 m 1139 710 l 1139 707 l 1133 702 l 1131 705 l 1131 707 l 1133 710 l 1139 710 m 1106 699 l 1114 696 l 1114 691 l 1109 691 l 1103 696 l 1106 699 m -166 696 l -163 696 l -155 688 l -158 686 l -161 686 l -166 694 l -166 696 m 1117 686 q 1128 677 1128 682 l 1128 675 l 1122 675 l 1114 683 l 1117 686 m 379 659 l 379 656 l 385 656 l 398 667 l 398 669 q 379 659 384 669 m 1063 667 l 1068 667 l 1068 650 l 1063 650 l 1063 667 m 1190 664 l 1196 653 l 1193 650 l 1190 650 l 1185 659 l 1190 664 m 1220 664 l 1228 664 l 1228 659 l 1220 659 l 1220 664 m 1296 656 l 1299 653 l 1299 650 l 1296 648 l 1293 648 l 1291 650 l 1291 653 l 1293 656 l 1296 656 m 1027 653 l 1044 637 q 1025 629 1044 631 q 1014 637 1025 635 l 1014 640 l 1027 653 m 1060 650 l 1060 648 l 1055 642 l 1049 642 l 1049 648 l 1060 650 m 1003 637 l 1008 637 l 1008 629 l 1003 629 l 1003 637 m 1272 623 l 1274 623 l 1280 618 l 1272 618 l 1272 623 m 1095 604 l 1087 604 l 1087 599 l 1103 599 l 1112 604 l 1114 596 l 1139 604 l 1139 610 l 1122 612 l 1095 604 m 691 612 l 694 612 l 694 607 l 686 599 l 680 604 l 691 612 m 1155 610 l 1155 607 l 1168 607 l 1168 610 l 1155 610 m 1038 607 l 1038 599 l 1044 599 l 1044 607 l 1038 607 m 1179 602 l 1179 599 l 1193 596 l 1204 596 l 1204 599 l 1182 602 l 1179 602 m 1223 602 l 1223 596 l 1236 596 l 1236 602 l 1223 602 m 1136 596 l 1136 593 l 1179 593 l 1179 596 l 1136 596 m 905 591 l 905 588 l 916 588 l 916 591 l 905 591 m 1348 591 l 1348 588 l 1367 588 l 1367 591 l 1348 591 m 900 583 l 911 572 l 919 574 l 919 580 l 905 583 l 900 583 m 878 564 l 884 564 l 884 536 l 878 536 l 878 564 m 1087 561 l 1090 561 l 1095 555 l 1095 553 l 1093 553 l 1087 558 l 1087 561 m 1122 542 q 1136 534 1136 538 l 1133 531 l 1131 531 l 1120 539 l 1122 542 m 1163 534 l 1168 528 l 1166 526 l 1158 526 l 1158 528 l 1163 534 m 271 520 q 262 509 271 509 l 262 504 l 271 504 l 279 512 l 279 515 l 273 520 l 271 520 m -158 509 l -153 509 l -153 501 l -158 501 l -158 509 m 808 501 l 813 501 l 813 493 l 808 493 l 808 501 m 1149 469 l 1155 469 l 1160 463 l 1158 460 l 1149 463 l 1149 469 m -12 466 q 2 455 1 460 l -1 452 q -14 463 -13 458 l -12 466 m -101 431 l -93 431 l -93 425 l -101 425 l -101 431 m 677 420 l 680 417 l 680 414 l 675 409 l 672 412 l 672 414 l 677 420 m -120 412 l -117 412 l -112 406 l -112 401 l -115 401 l -120 406 l -120 412 m 54 406 q 100 387 76 387 l 100 382 l 83 382 q 54 371 75 373 l 54 376 l 59 382 l 56 385 l 56 387 l 59 395 l 51 404 l 54 406 m 116 376 l 135 371 l 135 366 l 121 366 l 113 374 l 116 376 m 78 368 l 83 363 l 83 360 l 75 360 l 70 366 l 73 368 l 78 368 m 694 368 l 699 368 l 699 360 l 694 355 l 691 357 l 691 360 l 694 368 m -55 352 l -52 344 l -44 347 q -31 336 -31 341 l -39 330 l -22 309 l -28 303 q -36 314 -35 303 l -39 311 l -41 311 l -82 333 l -79 336 l -77 333 l -71 333 q -66 349 -71 349 l -60 344 q -55 352 -60 352 m 70 344 l 83 344 l 83 338 l 70 338 l 70 344 m 669 325 l 669 322 l 664 317 l 661 319 l 661 322 l 664 325 l 669 325 m -155 314 l -147 306 l -150 303 l -153 303 l -161 311 l -158 314 l -155 314 m -1 268 l 10 254 l 10 249 l 7 249 q -12 262 -12 258 l -1 268 m 648 195 l 653 195 l 653 186 l 648 186 l 648 195 m 610 189 q 602 173 610 175 l 596 178 q 602 186 602 178 l 604 189 l 610 189 m 599 143 l 602 140 l 602 138 l 593 132 l 591 135 l 591 138 l 599 143 m 561 127 l 569 124 l 569 119 l 564 119 l 558 124 l 561 127 m 585 116 l 588 113 l 588 111 l 585 108 l 583 108 l 580 111 l 580 113 l 583 116 l 585 116 m 838 108 l 838 100 l 851 100 l 851 105 l 838 108 m 588 100 l 591 97 l 591 94 l 585 89 l 583 92 l 583 94 l 588 100 m 412 35 l 412 26 q 439 40 426 26 l 439 48 l 436 48 l 412 35 m 786 37 l 789 35 l 789 32 l 783 26 l 781 29 l 781 32 l 786 37 m 227 7 l 246 2 l 246 -3 l 241 -3 q 224 5 227 -3 l 227 7 m 463 -9 l 466 -9 l 466 -14 l 452 -17 l 450 -17 l 450 -12 l 463 -9 z "},"E":{"ha":1086,"x_min":-452,"x_max":1203,"o":"m -352 954 q -336 937 -346 954 l -325 935 l -330 943 l -328 945 l -311 940 l -265 940 q -246 932 -255 932 l -233 932 q -227 940 -233 940 l -195 940 l -186 935 l -181 935 l -159 937 l -130 935 l -102 935 l -92 937 l -83 935 l -73 940 l -67 935 l -56 935 l -24 940 l -21 937 l -21 935 l -24 932 l -16 932 l 9 935 l 52 929 l 55 932 l 74 929 l 98 932 l 106 929 l 115 932 l 117 929 l 117 926 l 115 924 l 44 924 l 44 921 q 52 916 52 921 l 44 910 l 28 910 l 9 907 l 1 916 l -59 913 q -64 905 -59 905 l -105 905 l -105 910 l -70 910 l -75 916 l -97 916 l -181 924 l -208 921 l -227 921 l -246 916 l -260 918 q -328 910 -260 913 q -336 899 -328 899 l -344 902 l -344 897 l -336 880 l -338 878 l -341 878 l -344 886 l -347 883 l -352 883 q -382 907 -378 899 l -387 907 l -387 913 l -382 913 l -382 916 l -401 916 l -398 913 l -398 907 l -401 907 l -452 916 l -452 921 l -428 921 l -420 916 l -404 916 l -404 918 q -414 924 -404 924 l -417 926 l -417 929 l -414 932 l -382 926 q -371 932 -382 932 l -371 940 l -360 937 l -352 943 l -355 951 l -352 954 m 418 1115 l 422 1115 q 435 1075 429 1115 l 438 1078 l 441 1078 l 448 1072 l 448 1069 l 445 1069 l 441 1072 l 438 1072 l 438 1039 l 441 1042 l 445 1042 l 451 1036 l 451 1022 l 445 983 q 454 956 454 981 l 454 947 l 448 937 l 448 924 q 468 917 468 924 q 448 910 468 910 l 448 907 l 465 903 l 534 910 l 557 910 l 567 917 l 725 917 l 738 913 l 741 917 l 784 910 l 787 910 l 787 913 q 771 924 771 916 l 771 926 l 781 937 l 784 937 l 784 930 l 787 930 l 781 966 l 778 963 l 774 963 l 771 966 l 771 976 l 774 979 l 774 983 q 755 989 755 983 l 758 993 l 761 993 l 764 989 l 784 996 l 787 993 l 787 996 l 784 999 l 791 1048 l 781 1059 l 791 1065 l 794 1065 l 804 1042 l 804 1039 l 794 1022 q 804 970 794 983 l 798 933 l 798 924 l 801 926 l 804 926 l 808 924 l 808 920 l 804 910 l 808 910 l 847 917 l 923 917 q 966 887 966 917 q 1008 791 977 878 q 1038 749 1016 790 q 1088 673 1086 701 l 1084 673 q 956 798 1020 725 q 817 878 881 863 l 810 878 q 804 861 804 878 l 801 857 l 794 857 l 791 861 l 787 861 l 787 851 l 791 834 l 787 831 l 784 831 l 781 841 l 778 841 q 761 788 778 788 l 761 785 l 755 785 l 755 811 l 761 811 l 761 798 l 764 798 l 771 814 q 748 848 761 848 l 751 851 l 751 854 l 741 874 l 732 864 l 728 864 l 732 854 l 728 844 l 722 844 l 722 848 l 725 851 l 722 854 l 722 864 l 725 874 l 722 874 l 709 878 l 530 878 q 488 834 488 869 l 488 811 q 511 623 511 762 q 500 564 511 597 l 500 561 q 514 554 500 554 l 514 462 q 606 561 580 538 l 619 557 q 751 630 659 630 l 784 637 l 837 633 l 847 637 q 906 547 906 610 l 906 528 q 837 416 906 446 l 817 412 q 784 432 784 422 l 784 452 q 808 488 784 472 l 817 488 l 817 481 q 801 458 801 481 l 814 446 l 817 446 q 863 511 852 446 q 791 587 850 587 q 600 452 737 579 q 560 399 572 408 l 564 396 l 564 393 q 527 310 527 359 q 511 271 519 310 l 511 241 l 514 214 l 511 191 q 570 43 522 43 q 672 30 604 30 l 725 30 q 854 53 782 30 l 860 46 q 985 115 985 91 q 1035 185 1000 118 q 1078 251 1060 209 l 1084 251 q 989 0 1084 195 l 985 -3 l 939 -3 l 926 -6 l 913 -3 l 900 -6 l 877 -3 l 814 -3 l 735 3 l 715 3 l 659 -3 l 596 0 l 537 -3 l 454 0 l 451 3 l 451 7 l 431 3 l 395 7 l 257 -3 l 234 -3 l 234 3 q 359 102 359 70 l 362 102 l 359 125 l 359 231 l 346 271 q 355 277 346 277 l 353 281 l 353 283 q 366 353 363 283 l 366 363 q 353 505 353 450 l 353 518 l 359 524 l 353 643 q 359 703 359 660 l 359 871 l 355 871 q 144 808 238 871 q 66 593 66 749 l 66 568 l 75 547 l 72 534 q 148 478 75 522 l 171 478 q 237 518 237 492 q 260 574 260 534 q 273 614 267 574 q 214 683 273 659 l 208 683 q 158 646 178 683 l 158 627 q 178 593 158 607 l 194 597 l 194 616 l 184 630 l 184 633 l 191 640 l 194 640 q 220 604 220 625 l 220 584 q 181 538 216 538 q 109 607 109 545 q 174 742 109 726 l 210 752 q 296 699 296 741 l 300 703 l 303 703 q 330 630 321 703 q 263 419 330 492 q 201 393 254 409 l 197 389 l 184 389 q 79 425 123 389 q 0 534 28 463 l 0 577 q 210 880 0 793 l 214 878 q 346 903 291 903 l 366 903 l 372 910 l 366 910 l 366 917 l 401 917 l 401 920 l 395 937 l 399 940 l 401 940 q 418 917 410 919 l 425 940 l 422 943 l 422 947 l 428 953 l 425 970 l 438 989 l 441 989 l 435 1009 l 435 1013 l 441 1013 l 441 1016 l 435 1016 l 425 1006 l 422 1009 l 418 1009 l 415 1006 l 412 1009 l 412 1016 q 422 1045 422 1030 l 425 1045 l 422 1055 l 412 1055 q 405 1039 412 1039 l 399 1045 q 425 1062 399 1061 l 415 1098 l 418 1115 m -216 908 l -216 905 l -203 905 l -203 908 l -216 908 m -295 903 l -295 900 l -281 897 l -276 897 l -276 903 l -295 903 m -333 900 l -333 897 l -300 897 l -300 900 l -333 900 m 214 1088 l 214 1085 l 231 1085 l 231 1092 l 214 1088 m 247 1092 l 247 1085 l 277 1082 l 283 1092 l 247 1092 m 184 1088 l 184 1085 l 208 1085 l 208 1088 l 184 1088 m 6 1082 l 22 1078 l 36 1078 l 36 1072 l 9 1072 l 3 1078 l 6 1082 m -371 886 q -363 870 -370 870 l -360 884 l -363 886 l -371 886 m 857 1045 l 860 1045 l 877 1042 l 877 1036 l 873 1036 l 857 1039 l 857 1045 m -210 1038 l -191 1035 l -191 1029 l -207 1029 l -214 1035 l -210 1038 m 425 1029 l 422 1013 l 428 1013 l 428 1029 l 425 1029 m -360 848 q -349 764 -355 846 l -347 767 l -344 767 l -341 764 l -341 759 l -352 737 l -357 737 l -357 729 q -349 710 -357 720 l -349 707 l -355 702 q -366 740 -361 702 l -371 745 l -368 748 l -366 748 l -363 745 l -360 748 l -355 743 l -352 743 l -352 753 q -368 764 -364 753 l -368 786 l -366 832 q -374 838 -374 832 l -368 843 l -366 840 q -360 848 -366 848 m 461 1029 l 465 1025 l 465 1022 l 461 1019 l 458 1019 l 454 1022 l 454 1025 l 458 1029 l 461 1029 m 982 1025 l 989 1019 l 985 1016 l 982 1016 l 975 1022 l 979 1025 l 982 1025 m 49 1022 l 82 1022 l 82 1016 l 49 1016 l 49 1022 m 824 1022 l 827 1019 l 827 1006 l 821 1006 l 817 1019 l 821 1022 l 824 1022 m 943 1016 l 946 1013 l 946 1006 l 943 1006 l 936 1013 l 939 1016 l 943 1016 m 679 1013 l 682 1009 l 682 1006 l 675 999 l 672 1002 l 672 1006 l 679 1013 m 808 1009 l 810 1006 l 810 1002 l 801 1002 l 808 1009 m 606 1006 l 623 1002 l 623 996 l 613 996 l 606 1002 l 606 1006 m 699 999 l 722 996 l 728 996 l 728 989 l 705 989 l 699 996 l 699 999 m 989 993 l 996 993 l 996 983 l 989 976 l 985 979 l 985 983 l 989 993 m 610 989 l 623 989 l 629 983 l 626 979 l 623 979 l 610 989 m 784 983 l 781 973 l 787 973 l 787 983 l 784 983 m -363 808 l -363 767 l -360 767 l -360 808 l -363 808 m 985 973 l 985 966 l 969 966 l 952 963 l 949 966 l 949 970 l 952 973 l 985 973 m -219 800 l -211 800 l -211 794 l -219 794 l -219 800 m 745 963 l 751 956 q 745 947 745 956 l 741 947 l 735 953 l 745 963 m 665 953 l 669 953 l 682 940 l 672 930 l 669 933 l 669 937 l 672 937 l 665 953 m -295 783 l -290 775 l -292 772 l -295 772 l -300 781 l -298 783 l -295 783 m 201 943 q 217 926 201 926 l 217 920 l 208 920 q 201 930 201 920 l 197 930 l 194 926 l 191 926 l 191 930 q 201 943 196 943 m 738 940 l 755 933 l 758 937 l 758 933 l 748 924 q 738 930 748 930 l 735 933 l 735 937 l 738 940 m 191 907 l 194 907 l 194 903 q 184 890 189 890 l 181 894 l 181 897 l 191 907 m 412 901 l 412 880 l 415 880 l 415 901 l 412 901 m 201 887 l 204 884 l 204 878 l 201 878 l 194 884 l 197 887 l 201 887 m -284 726 l -279 721 l -279 718 l -284 713 l -292 713 l -298 718 l -284 726 m 768 874 l 768 871 q 781 848 776 848 l 784 874 l 768 874 m 1196 878 l 1200 874 l 1203 874 q 1190 844 1198 844 l 1183 851 l 1190 857 l 1187 861 l 1183 861 q 1196 878 1190 876 m 909 871 l 909 867 q 929 851 916 855 l 946 854 l 946 857 l 939 864 l 929 861 q 909 871 926 871 m 665 861 l 669 857 l 669 854 l 665 851 l 663 851 l 659 854 l 659 857 l 663 861 l 665 861 m 428 848 l 428 838 l 431 838 l 438 844 l 438 848 l 428 848 m 784 808 l 798 802 l 791 762 l 784 762 q 778 779 784 779 q 768 785 768 779 l 768 788 l 774 788 l 778 785 l 781 785 l 784 808 m -290 661 l -273 661 l -265 653 l -271 648 l -276 648 l -279 650 l -281 650 l -287 645 l -292 650 l -290 653 l -287 653 l -290 656 l -290 661 m 649 802 l 656 795 q 629 785 656 787 l 629 788 l 649 802 m 656 779 l 665 779 l 672 772 l 669 768 l 665 768 l 656 772 l 656 779 m 831 775 l 833 775 q 854 762 854 767 l 850 759 q 831 772 831 765 l 831 775 m 537 772 l 541 768 l 541 765 l 537 762 l 534 762 l 530 765 l 530 768 l 534 772 l 537 772 m 758 765 l 764 765 l 764 745 l 758 739 l 755 742 l 755 745 l 758 765 m 787 752 l 794 752 l 798 735 l 794 735 l 787 742 l 787 752 m 840 742 l 850 739 l 850 732 l 844 732 l 837 739 l 840 742 m 675 735 l 679 735 l 686 729 l 686 726 l 675 729 l 675 735 m 768 719 l 771 715 l 771 712 l 768 709 l 764 709 l 761 712 l 761 715 l 764 719 l 768 719 m 692 574 l 692 564 l 695 564 l 702 570 l 702 574 l 692 574 m 943 472 l 949 465 l 946 462 l 943 462 l 936 469 l 939 472 l 943 472 m 187 439 l 187 435 l 194 429 l 197 429 l 208 435 l 220 432 l 224 435 l 224 446 l 204 446 l 187 439 m 441 370 l 451 356 l 454 356 l 451 370 l 454 382 l 451 382 q 441 370 443 382 m -219 273 l -216 271 l -216 265 l -219 265 l -224 271 l -222 273 l -219 273 m -222 243 q -205 235 -205 240 l -205 233 q -224 241 -224 235 l -222 243 m 39 287 l 42 283 l 42 281 l 39 277 l 36 277 l 33 281 l 33 283 l 36 287 l 39 287 m -219 233 l -216 230 l -216 227 l -219 224 l -222 224 l -224 227 l -224 230 l -222 233 l -219 233 m 33 277 l 39 267 l 39 264 l 33 258 l 29 260 l 29 264 l 33 267 l 26 274 l 29 277 l 33 277 m 82 254 q 102 244 102 252 l 98 241 l 92 241 l 82 251 l 82 254 m 118 248 l 125 237 l 121 235 l 118 235 l 112 241 l 118 248 m 913 244 l 920 237 l 916 235 l 903 235 l 897 241 l 900 244 l 913 244 m -207 231 l -204 231 l -191 218 l -191 214 l -207 227 l -207 231 m 155 218 l 158 214 l 158 211 l 155 208 l 148 208 l 148 211 l 155 218 m 395 162 l 395 155 l 405 155 l 405 162 l 395 162 m 89 159 l 98 145 l 95 145 q 82 155 82 151 l 85 159 l 89 159 m 392 145 l 392 132 l 408 132 l 408 142 l 392 145 m 768 145 l 771 145 l 771 142 l 764 136 l 761 136 l 761 139 l 768 145 m 863 136 l 870 125 l 870 113 l 863 113 l 857 132 l 860 136 l 863 136 m 810 122 l 814 119 l 817 119 l 821 122 l 824 122 q 837 113 837 117 l 837 106 l 831 99 l 827 102 l 831 106 l 831 113 l 814 113 l 808 119 l 810 122 m 465 60 l 458 33 l 468 33 l 471 50 l 471 60 l 465 60 m 923 40 l 923 33 l 949 30 l 959 40 l 969 37 l 969 43 l 952 46 l 923 40 z "},"F":{"ha":973,"x_min":-279,"x_max":1470,"o":"m 448 1056 l 454 1056 l 454 1038 l 459 1019 l 500 1019 l 503 1021 l 505 1021 l 508 1019 l 508 1016 l 505 1013 l 468 1013 l 465 998 l 477 987 l 477 984 l 474 970 l 500 964 l 517 964 l 517 958 l 485 958 l 482 949 l 543 944 l 545 944 l 545 939 l 517 939 l 474 941 l 459 918 l 459 913 l 465 913 l 471 904 l 482 909 l 479 913 l 479 916 q 488 921 479 921 q 505 932 494 932 l 505 930 l 514 901 q 522 909 522 901 l 526 913 l 528 913 l 531 895 l 534 895 l 534 918 l 531 932 l 534 935 l 536 935 l 540 932 l 540 907 l 548 904 l 554 916 l 551 930 l 554 930 l 559 924 l 559 895 l 674 895 q 835 884 754 895 l 886 890 l 886 881 q 978 898 966 887 q 1089 939 1014 898 l 1098 953 l 1098 964 q 1055 990 1094 990 l 1046 990 q 1015 972 1023 990 l 1027 956 l 1027 953 l 1023 953 q 1001 979 1001 962 q 1041 1010 1001 998 l 1075 1010 q 1141 947 1141 1002 q 1023 832 1141 903 q 901 798 956 798 l 861 798 l 812 810 q 728 795 735 801 l 566 801 l 548 801 l 531 798 l 517 801 l 511 801 q 474 787 482 801 l 474 784 q 562 743 497 784 q 686 649 623 721 l 732 592 l 728 589 l 728 586 q 758 492 746 553 q 774 469 774 475 l 798 469 q 975 557 903 469 l 981 577 q 964 600 981 593 q 929 572 929 596 l 938 572 l 938 566 l 929 566 q 920 581 924 566 q 958 618 932 618 l 972 618 q 1004 586 1004 618 l 1004 581 q 889 429 1004 470 l 846 400 l 840 406 l 789 394 l 789 391 l 783 340 l 777 340 l 777 357 l 772 363 l 769 363 l 766 349 l 774 286 q 732 162 774 271 q 686 68 724 120 q 606 -1 624 2 q 557 -35 606 -15 q 528 -52 551 -43 q 474 -75 525 -65 q 374 -95 427 -95 l 328 -95 q 144 -38 207 -95 q 47 127 89 0 l 44 157 l 44 188 q 107 334 64 334 l 107 340 l 98 342 q 302 463 153 463 q 431 391 382 463 l 431 389 l 433 389 l 437 426 l 428 489 l 433 494 l 433 503 l 428 511 l 428 541 l 439 560 l 439 581 l 433 597 l 437 600 l 439 600 l 439 595 l 442 595 l 445 614 l 445 621 q 437 626 437 621 l 437 629 l 439 629 l 442 626 l 445 626 l 445 644 l 437 646 l 442 677 q 428 686 428 677 l 433 692 l 439 686 q 428 732 435 724 l 428 747 q 294 781 328 781 l 227 781 l 210 778 l 208 781 l 205 781 l 187 775 l 173 775 l 173 772 l 176 769 l 176 766 q 124 738 166 757 q 44 621 44 685 q 62 581 44 581 l 70 577 q 107 609 107 585 l 107 612 q 79 626 102 626 l 79 632 l 98 635 q 130 597 130 625 q 76 543 130 567 l 58 541 l 50 541 q -1 572 26 541 l -1 595 l -4 623 q 18 703 1 623 q 184 850 84 808 l 262 867 l 262 869 l 259 872 l 259 876 q 339 895 339 885 l 362 895 l 371 890 l 419 890 l 425 895 l 425 898 l 422 901 l 422 904 l 431 907 l 431 913 l 425 921 l 428 941 l 433 941 l 437 916 l 439 918 l 442 918 l 437 932 l 439 935 l 442 935 l 445 927 l 448 927 l 448 941 q 439 947 439 941 l 442 949 l 445 949 l 448 947 l 448 953 q 431 961 448 961 l 431 967 l 451 967 l 451 979 q 431 996 439 979 l 431 998 l 433 998 l 448 993 l 448 996 l 442 1004 l 448 1010 l 445 1019 l 448 1050 l 448 1056 m -224 1033 l -224 1030 l -231 1024 l -233 1027 l -233 1030 l -231 1033 l -224 1033 m -30 1033 l -21 1021 l -24 1019 l -30 1019 l -36 1024 l -36 1027 l -30 1033 m 73 1030 q 84 1021 84 1025 l 81 1019 l 79 1019 l 70 1027 l 73 1030 m 505 987 l 508 984 l 508 979 l 503 972 l 491 972 l 491 979 l 503 979 l 500 981 l 500 984 l 503 987 l 505 987 m -242 975 l -224 975 l -224 981 l -236 981 l -242 975 m 139 949 l 170 932 l 170 927 l 168 927 q 136 947 136 941 l 139 949 m 50 947 l 56 941 l 53 939 l 50 939 l 44 944 l 47 947 l 50 947 m -130 916 l -144 898 l -150 904 q -130 916 -137 916 m -179 904 l -182 827 l -179 824 l -176 824 l -176 904 l -179 904 m 496 904 l 496 890 l 503 890 l 500 904 l 496 904 m -79 901 l -76 898 l -76 895 l -81 890 l -84 892 l -84 895 l -79 901 m 474 898 l 474 890 l 482 890 l 474 898 m -273 890 l -271 887 l -271 884 l -273 881 l -276 881 l -279 884 l -279 887 l -276 890 l -273 890 m -116 884 l -113 881 l -113 864 l -119 864 l -121 881 l -119 884 l -116 884 m -264 872 l -262 869 l -262 867 l -264 864 l -268 864 l -271 867 l -271 869 l -268 872 l -264 872 m -87 864 l -84 861 l -84 858 l -87 855 l -90 855 l -93 858 l -93 861 l -90 864 l -87 864 m -259 855 l -256 852 l -256 850 l -259 846 l -262 846 l -264 850 l -264 852 l -262 855 l -259 855 m 938 844 l 938 838 l 946 829 l 958 832 l 958 838 l 941 844 l 938 844 m -21 841 l -16 836 l -18 832 l -27 832 l -27 836 l -21 841 m -90 838 l -64 832 l -64 827 l -70 827 l -96 832 l -90 838 m 385 832 l 385 827 l 405 827 l 419 829 l 419 832 l 385 832 m -96 832 l -93 824 l -96 821 l -98 821 l -102 824 l -102 827 l -96 832 m -41 832 l -39 832 l -33 827 l -36 824 l -39 824 l -41 827 l -41 832 m 958 821 l 958 815 l 966 815 l 966 821 l 958 821 m 256 804 l 256 798 l 259 798 l 264 804 l 264 810 l 262 810 l 256 804 m -84 810 l -79 810 l -79 781 l -84 781 l -84 810 m -271 769 l -264 758 l -268 755 l -271 755 l -276 764 l -271 769 m 87 752 l 87 749 l 96 749 l 96 758 l 93 758 l 87 752 m 786 749 q 872 724 821 732 l 872 718 q 783 743 831 720 l 783 747 l 786 749 m 772 732 l 774 729 l 774 726 l 766 721 l 760 721 l 760 724 l 772 732 m 471 721 l 471 701 l 494 695 l 494 689 l 482 686 l 474 689 l 474 635 q 465 629 474 629 l 465 626 l 479 623 q 494 644 489 644 q 511 632 496 632 l 514 632 q 522 644 515 644 l 526 644 l 526 640 l 522 637 l 522 635 l 543 632 l 545 632 q 526 649 538 649 l 526 654 q 554 629 554 651 l 559 629 l 559 626 l 568 629 q 471 721 539 675 m 803 709 l 806 706 l 806 703 l 803 701 l 800 701 l 798 703 l 798 706 l 800 709 l 803 709 m 803 695 l 806 692 l 806 689 l 803 686 l 800 686 l 798 689 l 798 692 l 800 695 l 803 695 m -182 684 l -182 658 l -179 658 l -179 684 l -182 684 m 262 686 l 264 684 l 264 680 l 256 672 l 248 672 l 248 677 l 262 686 m 227 680 q 239 672 239 676 l 239 663 l 233 658 l 231 661 l 231 663 l 233 666 l 233 669 l 224 677 l 227 680 m -168 669 l -170 654 l -168 618 l -165 618 l -165 669 l -168 669 m 574 669 l 574 661 l 580 654 l 585 654 l 585 658 l 580 669 l 574 669 m 224 669 l 227 666 l 227 663 l 224 661 l 222 661 l 219 663 l 219 666 l 222 669 l 224 669 m 880 669 l 883 666 l 883 652 l 878 652 l 875 666 l 878 669 l 880 669 m 411 666 l 414 666 l 419 661 l 419 654 l 414 654 l 411 666 m 849 666 l 854 652 l 840 658 l 840 663 l 849 666 m 726 658 l 734 658 l 734 652 l 726 652 l 726 658 m 769 646 l 783 646 l 783 640 l 769 640 l 769 646 m -179 637 l -179 626 l -176 626 l -176 637 l -179 637 m 256 637 l 279 637 l 279 632 l 256 632 l 256 637 m 591 635 l 591 629 l 600 629 l 600 635 l 591 635 m 608 629 l 608 626 l 617 626 l 617 635 l 614 635 l 608 629 m 290 635 l 294 632 l 294 629 l 290 626 l 288 626 l 285 629 l 285 632 l 288 635 l 290 635 m 299 635 q 311 626 311 631 l 308 623 q 296 632 296 627 l 299 635 m 709 635 l 720 632 l 740 635 q 751 626 740 631 l 754 629 l 758 629 l 766 626 l 769 629 l 769 632 l 800 626 l 800 632 l 806 632 l 806 626 l 809 626 q 814 635 809 635 l 821 626 l 843 629 l 869 623 l 872 623 l 878 629 l 912 626 l 946 626 l 946 621 q 918 609 926 621 l 872 609 l 875 606 l 875 603 q 861 566 861 587 l 861 541 l 854 534 l 852 534 l 854 572 l 849 603 l 846 603 q 840 589 846 589 l 835 589 l 835 592 l 843 609 l 826 609 l 826 595 l 821 595 q 814 606 814 595 l 812 606 q 806 595 812 595 l 795 606 l 774 603 l 760 603 l 746 606 l 743 603 l 743 606 q 758 612 743 612 l 758 618 l 743 614 l 728 614 l 728 621 l 734 621 l 734 623 q 706 632 706 623 l 709 635 m 577 621 l 577 618 l 583 618 l 588 623 l 588 629 l 585 629 l 577 621 m 391 626 l 416 623 l 425 626 l 428 623 l 428 621 l 425 618 l 419 618 l 391 621 l 391 626 m 488 623 l 488 618 l 517 618 l 517 621 l 488 623 m 526 623 l 526 621 l 545 618 l 548 618 l 543 623 l 526 623 m 468 618 l 468 606 l 463 606 l 463 612 l 456 612 l 456 600 l 474 597 l 471 595 l 471 592 l 474 574 l 468 569 l 465 572 l 468 574 l 468 586 l 456 586 l 456 557 l 465 563 l 468 560 q 456 549 465 549 l 454 515 l 454 494 l 456 494 l 456 520 l 463 520 l 463 515 q 471 494 463 494 l 471 489 q 456 463 458 489 l 454 460 l 463 434 l 463 431 l 456 431 l 451 448 l 448 448 l 445 400 l 445 371 l 454 288 q 362 127 454 175 q 282 119 340 119 q 231 214 231 143 l 231 242 q 282 311 247 311 l 302 311 q 325 291 319 302 l 325 271 q 308 245 325 255 l 288 245 l 288 251 q 311 274 311 256 q 299 291 304 291 q 264 256 270 291 q 296 199 270 230 l 328 194 q 388 260 388 213 l 391 279 q 362 354 375 354 q 299 400 319 400 l 285 400 q 147 328 208 400 l 116 277 q 93 182 93 234 l 102 134 l 102 111 q 224 -26 141 9 l 311 -61 q 540 22 501 -61 q 611 125 578 55 q 620 225 620 151 l 620 248 l 634 382 q 585 597 634 465 l 583 597 l 568 595 l 557 612 l 545 603 l 540 603 l 540 606 l 543 609 l 543 612 l 536 612 l 519 597 l 517 600 l 517 603 l 519 606 q 468 618 488 606 m 568 618 l 568 614 l 571 606 l 568 603 l 577 603 l 577 612 l 571 618 l 568 618 m 479 600 l 496 600 l 496 595 l 479 595 l 479 600 m 743 600 l 760 595 l 763 597 l 766 597 l 777 595 l 780 597 l 783 595 l 783 592 l 780 589 l 783 586 l 783 583 l 777 577 q 743 592 763 592 l 740 595 l 740 597 l 743 600 m -182 595 l -184 557 l -184 555 l -182 555 l -179 574 l -179 595 l -182 595 m 262 437 l 262 431 l 296 420 l 304 420 l 304 429 q 285 440 287 429 l 276 440 l 262 437 m 754 422 l 754 420 l 766 420 l 766 422 l 760 429 l 754 422 m 193 414 l 193 406 l 196 406 l 205 408 l 205 417 l 201 417 l 193 414 m 179 382 l 179 374 l 182 374 l 187 380 l 187 382 l 179 382 m 769 380 l 772 366 l 774 366 l 777 377 l 774 380 l 769 380 m 102 323 l 102 319 l 110 319 l 110 328 l 107 328 l 102 323 m 87 300 l 87 294 l 98 294 l 98 302 l 96 302 l 87 300 m 700 214 l 700 208 l 709 208 l 709 214 l 700 214 m 64 153 l 64 142 l 70 142 l 70 153 l 64 153 m 67 139 l 64 125 l 67 113 l 73 113 l 73 139 l 67 139 m 692 117 l 688 105 l 692 105 l 703 108 l 703 117 l 692 117 m 102 42 l 102 28 l 107 28 l 107 42 l 102 42 m 107 -7 q 116 -18 111 -7 l 113 -18 l 107 -12 l 107 -7 m 1372 -60 l 1378 -60 q 1383 -81 1378 -74 l 1383 -106 q 1372 -112 1383 -112 l 1369 -115 l 1369 -118 l 1392 -123 l 1398 -123 l 1398 -98 l 1409 -81 q 1423 -123 1423 -100 l 1444 -123 l 1447 -121 l 1449 -121 l 1452 -130 l 1470 -123 q 1461 -141 1467 -141 l 1423 -141 q 1409 -161 1409 -144 l 1407 -163 l 1404 -163 l 1398 -158 l 1398 -141 l 1329 -141 l 1312 -138 l 1309 -141 l 1246 -138 l 1172 -138 l 1166 -132 l 1180 -121 l 1272 -121 l 1355 -127 l 1355 -121 l 1352 -121 q 1315 -112 1315 -121 l 1372 -101 l 1372 -95 l 1375 -95 l 1369 -83 l 1372 -60 m 1373 -92 l 1376 -95 l 1379 -95 l 1388 -92 l 1390 -95 l 1390 -98 l 1388 -101 l 1376 -101 l 1370 -95 l 1373 -92 m 1409 -98 l 1409 -121 l 1415 -121 l 1415 -112 l 1412 -98 l 1409 -98 m 1432 -130 l 1432 -132 l 1444 -132 l 1444 -130 l 1432 -130 z "},"G":{"ha":857,"x_min":-248,"x_max":1152,"o":"m 736 976 q 853 889 824 976 l 853 881 q 812 786 853 833 q 723 734 770 734 l 715 734 q 685 759 685 742 l 682 762 l 674 759 q 587 824 640 797 q 430 859 510 859 l 381 859 q 164 707 225 859 l 148 661 q 132 555 136 661 q 123 452 125 555 l 134 441 l 134 420 l 153 363 q 254 124 182 219 q 454 24 339 24 l 484 24 q 685 178 637 24 l 688 224 l 688 254 q 666 309 688 309 l 661 314 l 663 317 l 666 317 l 669 314 l 671 314 l 671 317 q 528 363 646 363 l 457 363 q 340 303 353 363 l 340 290 q 359 276 346 276 l 362 276 l 373 287 l 373 298 l 365 306 l 357 306 l 354 303 l 351 303 l 351 306 l 359 314 l 376 314 q 389 292 389 307 q 343 254 389 254 q 297 314 312 254 q 349 385 324 385 q 397 425 363 387 l 495 431 l 500 425 l 509 431 l 536 431 l 604 439 l 663 439 q 793 452 663 446 l 834 463 l 840 463 l 840 460 q 788 379 840 426 q 728 360 757 366 l 709 360 l 709 355 q 723 336 723 355 q 745 314 739 336 l 742 311 l 745 298 l 745 292 l 742 262 l 755 238 q 576 10 755 56 q 463 -3 512 -3 l 416 -3 q 191 51 295 -3 q 123 97 130 88 q 75 157 99 137 l 53 200 l 56 211 q 26 265 26 244 q 4 336 4 312 l 4 387 q 31 536 9 396 q 80 710 46 640 q 237 838 178 838 q 316 876 239 852 q 430 892 370 892 l 438 892 q 623 854 564 892 q 707 813 631 854 l 745 805 q 812 859 812 824 q 818 878 818 859 q 726 949 818 933 q 709 935 715 945 q 723 916 709 922 l 731 919 l 731 924 l 723 935 l 726 938 l 728 938 q 747 911 747 930 l 747 905 q 726 892 741 892 l 709 892 q 677 924 677 898 l 677 930 q 736 976 677 969 m -25 968 l -22 968 q -17 949 -22 955 l -14 951 l -9 951 l -9 949 l -20 938 l -17 935 l -17 932 l -22 924 l -22 922 l -20 922 l -17 924 l -14 924 l -12 922 l -12 919 l -22 916 l -22 908 l -20 884 l -22 881 l -22 878 l -17 862 l -28 829 q -20 794 -20 829 l -20 789 l -25 751 l -20 745 l -25 740 l -22 724 l -28 718 q -36 732 -34 718 l -31 732 l -31 770 l -39 800 l -33 805 l -33 813 l -39 848 l -33 848 l -33 857 l -36 865 l -33 878 l -33 900 l -39 900 l -39 903 l -41 900 l -44 900 q -52 911 -48 900 l -77 905 l -79 908 l -79 911 q -60 916 -73 916 q -52 930 -60 924 q -41 941 -52 941 l -41 954 l -25 968 m 557 960 l 563 954 q 555 938 560 938 q 547 957 549 938 l 549 960 l 557 960 m 26 943 l 31 938 l 15 924 l 9 932 l 12 941 l 15 941 l 18 938 l 20 938 l 26 943 m 151 941 l 159 932 l 156 930 q 145 938 145 934 l 148 941 l 151 941 m 180 941 l 183 938 l 183 935 l 180 932 l 175 932 l 175 935 l 180 941 m 1149 924 l 1152 922 l 1152 919 l 1149 916 l 1146 916 l 1143 919 l 1143 922 l 1146 924 l 1149 924 m 26 908 l 28 905 l 28 903 l 26 900 l 20 900 l 20 903 l 26 908 m 981 854 l 986 854 l 986 846 l 989 846 l 1010 851 l 1013 848 l 1013 846 l 1008 835 q 981 846 981 842 l 981 854 m -52 843 l -50 840 l -50 838 l -55 832 l -58 835 l -58 838 l -52 843 m 606 840 l 606 835 l 614 835 l 614 840 l 606 840 m 628 832 l 628 824 l 647 821 l 647 827 l 628 832 m -150 816 l -147 813 l -147 810 l -153 805 l -155 808 l -155 810 l -150 816 m -28 805 l -31 794 l -25 794 l -25 805 l -28 805 m 39 770 l 42 767 l 42 764 l 39 762 l 42 759 l 39 756 l 37 756 l 34 759 l 31 759 l 39 770 m 761 762 l 761 756 l 769 756 l 769 762 l 761 762 m -28 713 l -22 713 l -20 686 l -25 653 q -17 640 -22 640 l -20 637 l -20 634 l -17 626 l -20 623 l -25 623 l -31 664 l -31 667 l -28 669 l -31 672 l -31 683 l -28 686 l -28 688 l -33 694 l -33 696 l -28 713 m -139 702 l -136 699 l -136 696 l -139 694 l -142 694 l -144 696 l -144 699 l -142 702 l -139 702 m -44 694 l -33 691 l -33 688 l -39 683 l -41 686 l -41 680 l -47 680 l -50 691 l -47 694 l -44 694 m -125 640 l -123 637 l -123 634 l -125 631 l -128 631 l -131 634 l -131 637 l -128 640 l -125 640 m 85 618 l 88 618 q 102 634 102 624 l 94 634 q 85 618 85 631 m 66 615 l 66 610 l 77 610 l 83 615 l 83 621 l 80 621 l 66 615 m -25 612 l -20 612 l -17 574 l -22 574 q -28 588 -22 588 l -25 607 l -25 612 m 446 602 l 449 599 l 449 596 l 446 593 l 444 593 l 441 596 l 441 599 l 444 602 l 446 602 m 444 593 l 444 591 l 438 585 l 435 588 l 435 591 l 438 593 l 444 593 m -79 536 l -77 534 l -77 531 l -79 528 l -82 528 l -85 531 l -85 534 l -82 536 l -79 536 m -36 528 l -31 523 l -31 520 l -36 526 l -36 528 m -22 515 l -17 515 l -14 496 l -20 496 l -22 509 l -22 515 m -31 507 q -17 463 -24 507 l -17 455 l -25 447 l -33 466 l -33 477 l -36 504 l -33 507 l -31 507 m -106 496 l -104 493 l -104 490 l -109 485 l -112 488 l -112 490 l -106 496 m 180 441 l 186 436 l 175 425 l 172 428 l 172 431 l 180 441 m -28 436 l -22 436 l -22 371 l -28 371 l -28 390 l -31 401 l -28 409 l -31 412 l -28 425 l -28 436 m 471 417 l 471 406 q 487 414 487 409 l 487 420 l 484 420 l 471 417 m 454 414 l 454 409 l 465 409 l 465 414 l 454 414 m 734 385 l 734 382 l 745 382 l 747 393 l 742 393 l 734 385 m -79 368 l -71 368 l -66 363 l -68 360 l -63 355 l -66 352 l -68 352 q -74 363 -74 352 l -79 363 l -79 368 m -22 341 l -17 341 l -17 333 l -22 333 l -22 341 m -17 325 l -14 317 l -17 298 l -22 298 l -22 319 l -17 325 m 555 325 q 560 314 560 325 l 568 311 l 571 314 l 590 314 l 590 309 l 563 306 l 547 311 l 533 311 l 533 317 l 547 322 l 549 319 l 555 325 m 579 325 l 582 322 l 582 319 l 579 317 l 574 317 l 574 319 l 579 325 m 647 322 l 652 309 l 644 303 l 639 309 l 642 311 l 628 311 l 620 306 l 617 306 l 617 309 q 647 322 617 316 m 444 319 l 446 317 l 463 317 l 465 319 l 468 319 l 471 317 l 471 314 l 468 311 l 446 311 l 441 317 l 444 319 m 506 319 l 522 319 l 522 314 l 519 314 l 487 311 l 487 317 l 506 319 m 604 319 l 614 319 l 614 314 l 604 314 l 606 311 l 606 306 l 601 306 l 595 311 l 604 319 m 812 319 l 818 314 l 810 303 l 804 309 l 804 311 l 812 319 m 850 319 l 872 314 l 875 317 l 878 317 l 883 311 l 886 314 l 886 317 l 888 314 l 891 314 l 899 319 l 905 319 q 964 311 930 319 l 972 314 l 975 311 l 975 309 q 967 303 975 303 l 959 306 l 940 303 l 921 314 q 867 303 921 307 l 853 306 l 834 303 l 831 306 l 831 309 l 850 319 m 774 317 l 796 317 l 802 311 l 793 306 l 788 306 l 780 311 l 777 311 l 780 309 l 780 306 l 777 303 q 750 311 750 306 l 753 314 l 755 314 l 769 311 l 774 317 m 940 298 l 943 295 l 945 295 l 943 292 l 943 287 l 945 287 l 945 292 l 951 287 l 943 281 q 935 295 938 281 l 937 298 l 940 298 m -22 290 l -17 290 l -14 271 l -17 262 q -9 246 -12 262 q -14 214 -11 214 l -12 211 l -12 203 l -22 189 l -17 176 l -20 173 l -22 173 l -28 189 l -28 192 l -22 200 l -28 222 l -25 222 l -22 219 l -20 219 l -20 224 l -25 233 l -25 241 l -17 252 l -17 254 l -25 265 l -20 271 l -22 287 l -22 290 m -85 287 l -82 284 l -82 281 l -85 279 l -87 279 l -90 281 l -90 284 l -87 287 l -85 287 m 812 281 l 815 279 l 815 276 l 812 273 l 810 273 l 807 276 l 807 279 l 810 281 l 812 281 m 937 268 l 943 268 l 945 257 l 943 254 l 940 254 l 937 257 l 937 268 m 720 249 l 720 241 l 728 241 l 728 243 l 723 249 l 720 249 m 818 222 l 821 219 l 821 216 l 818 214 l 815 214 l 812 216 l 812 219 l 815 222 l 818 222 m -242 184 l -239 181 l -239 178 l -242 176 l -245 176 l -248 178 l -248 181 l -245 184 l -242 184 m -28 151 l -22 151 l -22 130 l -28 130 l -28 151 m -25 64 l -22 62 l -22 51 l -28 51 l -31 62 l -28 64 l -25 64 m 308 48 l 305 35 l 311 29 l 316 29 l 313 48 l 308 48 m -115 -1 l -109 -6 l -115 -14 l -112 -17 l -115 -20 l -125 -12 q -120 -3 -120 -12 l -117 -1 l -115 -1 m -33 -66 l -31 -68 l -31 -71 l -33 -74 l -36 -74 l -39 -71 l -39 -68 l -36 -66 l -33 -66 z "}}}
